<?xml version="1.0" standalone="no"?>
<!DOCTYPE svg PUBLIC "-//W3C//DTD SVG 1.1//EN" "http://www.w3.org/Graphics/SVG/1.1/DTD/svg11.dtd" >
<svg>
<metadata>
Created by FontForge 20090622 at Mon Feb 17 07:29:31 2020
 By deploy user
Copyright &#194;&#169; 2017 by Salvador Rodr&#195;&#173;guez. All rights reserved.
</metadata>
<defs>
<font id="SonnyGothic-Bold" horiz-adv-x="668" >
  <font-face 
    font-family="Sonny Gothic Bold"
    font-weight="600"
    font-stretch="normal"
    units-per-em="1000"
    panose-1="0 0 7 0 0 0 0 0 0 0"
    ascent="800"
    descent="-200"
    x-height="485"
    cap-height="700"
    bbox="-225 -291 1571 1000"
    underline-thickness="50"
    underline-position="-50"
    unicode-range="U+0020-U+FB02"
  />
<missing-glyph horiz-adv-x="707" 
d="M100 739h507v-739h-507v739zM549 79v601h-337zM159 658v-599h336z" />
    <glyph glyph-name="fi" unicode="fi" horiz-adv-x="700" 
d="M119 0v364h-114v121h114v87q0 99 63 158t168 59q41 0 72 -9v-123q-23 5 -41 5q-52 0 -81.5 -24.5t-29.5 -67.5v-85h152v-121h-152v-364h-151zM485 635v137h154v-137h-154zM487 0v485h150v-485h-150z" />
    <glyph glyph-name="fl" unicode="fl" horiz-adv-x="700" 
d="M119 0v364h-114v121h114v87q0 99 63 158t168 59q41 0 72 -9v-123q-23 5 -41 5q-52 0 -81.5 -24.5t-29.5 -67.5v-85h152v-121h-152v-364h-151zM487 0v772h150v-772h-150z" />
    <glyph glyph-name="f_f" unicode="ff" horiz-adv-x="848" 
d="M119 0v364h-114v121h114v87q0 99 63 158t168 59q41 0 72 -9v-123q-23 5 -41 5q-52 0 -81.5 -24.5t-29.5 -67.5v-85h152v-121h-152v-364h-151zM543 0v364h-114v121h114v87q0 99 63 158t168 59q41 0 72 -9v-123q-23 5 -41 5q-52 0 -81.5 -24.5t-29.5 -67.5v-85h152v-121
h-152v-364h-151z" />
    <glyph glyph-name="f_f_i" unicode="ffi" horiz-adv-x="1124" 
d="M119 0v364h-114v121h114v87q0 99 63 158t168 59q41 0 72 -9v-123q-23 5 -41 5q-52 0 -81.5 -24.5t-29.5 -67.5v-85h152v-121h-152v-364h-151zM543 0v364h-114v121h114v87q0 99 63 158t168 59q41 0 72 -9v-123q-23 5 -41 5q-52 0 -81.5 -24.5t-29.5 -67.5v-85h152v-121
h-152v-364h-151zM909 635v137h154v-137h-154zM911 0v485h150v-485h-150z" />
    <glyph glyph-name="f_f_l" unicode="ffl" horiz-adv-x="1124" 
d="M119 0v364h-114v121h114v87q0 99 63 158t168 59q41 0 72 -9v-123q-23 5 -41 5q-52 0 -81.5 -24.5t-29.5 -67.5v-85h152v-121h-152v-364h-151zM543 0v364h-114v121h114v87q0 99 63 158t168 59q41 0 72 -9v-123q-23 5 -41 5q-52 0 -81.5 -24.5t-29.5 -67.5v-85h152v-121
h-152v-364h-151zM911 0v772h150v-772h-150z" />
    <glyph glyph-name=".notdef" horiz-adv-x="707" 
d="M100 739h507v-739h-507v739zM549 79v601h-337zM159 658v-599h336z" />
    <glyph glyph-name=".null" horiz-adv-x="0" 
 />
    <glyph glyph-name="nonmarkingreturn" horiz-adv-x="333" 
 />
    <glyph glyph-name="space" unicode=" " horiz-adv-x="255" 
 />
    <glyph glyph-name="exclam" unicode="!" horiz-adv-x="293" 
d="M80 228l-11 281v191h156v-191l-12 -281h-133zM63 157h167v-157h-167v157z" />
    <glyph glyph-name="quotedbl" unicode="&#x22;" horiz-adv-x="371" 
d="M43 479l-7 202v91h122v-91l-7 -202h-108zM220 479l-7 202v91h122v-91l-7 -202h-108z" />
    <glyph glyph-name="numbersign" unicode="#" horiz-adv-x="825" 
d="M374 0l58 176h-155l-58 -176h-146l58 176h-100v119h139l37 110h-116v120h155l58 175h147l-58 -175h154l58 175h147l-58 -175h100v-120h-140l-36 -110h117v-119h-156l-58 -176h-147zM317 295h154l37 110h-155z" />
    <glyph glyph-name="dollar" unicode="$" horiz-adv-x="705" 
d="M241 509q0 -37 30.5 -58.5t76.5 -29t99 -20t99 -30t76.5 -60.5t30.5 -109q0 -85 -61 -142t-164 -71v-106h-124v105q-113 14 -183.5 76t-80.5 159h157q10 -49 53.5 -80.5t114.5 -31.5q55 0 88.5 21.5t33.5 56.5q0 31 -23 50t-59.5 28t-80.5 16t-88.5 20t-81 33.5t-59.5 62
t-23 100.5q0 88 63 146t169 69v105h124v-110q95 -18 156.5 -74.5t68.5 -138.5h-158q-9 43 -42.5 69.5t-92.5 26.5q-53 0 -86 -22.5t-33 -60.5z" />
    <glyph glyph-name="percent" unicode="%" horiz-adv-x="1151" 
d="M285 318q-97 0 -156 54.5t-59 144.5t59 144.5t156 54.5t156 -54.5t59 -144.5t-59 -144.5t-156 -54.5zM280 0l489 700h103l-489 -700h-103zM285 413q49 0 79.5 28.5t30.5 75.5t-30.5 75.5t-79.5 28.5t-79.5 -28.5t-30.5 -75.5t30.5 -75.5t79.5 -28.5zM867 -16
q-97 0 -156 54.5t-59 144.5t59 144.5t156 54.5q96 0 155 -54.5t59 -144.5t-59 -144.5t-155 -54.5zM867 79q49 0 79.5 28.5t30.5 75.5t-30.5 75.5t-79.5 28.5q-50 0 -80.5 -28.5t-30.5 -75.5t30.5 -75.5t80.5 -28.5z" />
    <glyph glyph-name="ampersand" unicode="&#x26;" horiz-adv-x="721" 
d="M724 0h-194l-49 48q-82 -64 -211 -64q-109 0 -175 56.5t-66 150.5q0 53 31.5 103t85.5 83l-2 2q-29 28 -47.5 66.5t-18.5 76.5q0 88 63.5 141t167.5 53q107 0 172.5 -56.5t65.5 -149.5h-141q0 38 -25 61t-66 23q-36 0 -58 -20.5t-22 -54.5q0 -20 13 -42t23 -32l37 -36
l145 -143q7 32 7 75h143q0 -106 -37 -186zM275 106q65 0 110 36l-148 146q-57 -42 -57 -93q0 -40 26 -64.5t69 -24.5z" />
    <glyph glyph-name="quotesingle" unicode="'" horiz-adv-x="195" 
d="M43 479l-7 202v91h122v-91l-7 -202h-108z" />
    <glyph glyph-name="parenleft" unicode="(" horiz-adv-x="401" 
d="M209 294q0 -98 39.5 -179.5t128.5 -168.5l-101 -96q-225 194 -225 444q0 251 225 445l101 -96q-89 -87 -128.5 -168.5t-39.5 -180.5z" />
    <glyph glyph-name="parenright" unicode=")" horiz-adv-x="401" 
d="M192 294q0 99 -39.5 180.5t-128.5 168.5l101 96q225 -194 225 -445q0 -250 -225 -444l-101 96q89 87 128.5 168t39.5 180z" />
    <glyph glyph-name="asterisk" unicode="*" horiz-adv-x="433" 
d="M176 387v98l-101 -53l-36 71l92 49l-92 49l36 71l101 -54v98h81v-98l101 54l36 -71l-92 -49l92 -49l-36 -71l-101 53v-98h-81z" />
    <glyph glyph-name="plus" unicode="+" horiz-adv-x="706" 
d="M290 100v170h-189v115h189v170h126v-170h188v-115h-188v-170h-126z" />
    <glyph glyph-name="comma" unicode="," horiz-adv-x="234" 
d="M34 157h167v-120q0 -87 -42.5 -132.5t-130.5 -56.5l-12 63q47 13 67 31t23 58h-72v157z" />
    <glyph glyph-name="hyphen" unicode="-" horiz-adv-x="563" 
d="M94 193v136h376v-136h-376z" />
    <glyph glyph-name="period" unicode="." horiz-adv-x="234" 
d="M34 157h167v-157h-167v157z" />
    <glyph glyph-name="slash" unicode="/" horiz-adv-x="439" 
d="M173 -168h-138l269 900h138z" />
    <glyph glyph-name="zero" unicode="0" horiz-adv-x="693" 
d="M347 716q134 0 216.5 -77t82.5 -204v-170q0 -127 -82.5 -204t-216.5 -77q-135 0 -217 77t-82 204v170q0 127 82 204t217 77zM496 265v170q0 68 -41 110t-108 42t-108.5 -42t-41.5 -110v-170q0 -68 41.5 -110t108.5 -42t108 42t41 110z" />
    <glyph glyph-name="one" unicode="1" horiz-adv-x="412" 
d="M179 0v573h-174v127h327v-700h-153z" />
    <glyph glyph-name="two" unicode="2" horiz-adv-x="598" 
d="M51 0v72l290 329q46 56 46 105q0 37 -26 59t-70 22q-46 0 -74 -25.5t-33 -68.5h-150q6 102 74.5 162.5t184.5 60.5q114 0 183.5 -56.5t69.5 -148.5q0 -84 -78 -174l-188 -217h274v-120h-503z" />
    <glyph glyph-name="three" unicode="3" horiz-adv-x="602" 
d="M370 404q93 -15 146.5 -70.5t53.5 -136.5q0 -96 -72 -154.5t-190 -58.5q-114 0 -188.5 55t-84.5 152h147q10 -38 42 -62.5t84 -24.5q53 0 85 25.5t32 67.5q0 45 -34.5 73t-91.5 28h-92v111l148 164h-295v127h481v-106z" />
    <glyph glyph-name="four" unicode="4" horiz-adv-x="685" 
d="M404 0v128h-369v94l282 478h235v-448h98v-124h-98v-128h-148zM202 252h202v339z" />
    <glyph glyph-name="five" unicode="5" horiz-adv-x="639" 
d="M341 441q106 0 177.5 -61.5t71.5 -157.5q0 -105 -76.5 -171.5t-196.5 -66.5q-115 0 -191 57t-88 153h148q12 -41 46 -65.5t87 -24.5q58 0 93 31t35 81q0 48 -36 77t-96 29q-61 0 -107 -34l-117 53l60 359h397v-127h-282l-25 -147q46 15 100 15z" />
    <glyph glyph-name="six" unicode="6" horiz-adv-x="657" 
d="M340 473q124 -3 199 -68.5t75 -171.5q0 -112 -78.5 -180.5t-206.5 -68.5t-206.5 68t-78.5 179q0 72 61 163l210 306h177l-155 -227h3zM329 102q61 0 99 35t38 91q0 55 -38 90t-99 35q-62 0 -100.5 -35t-38.5 -91t38.5 -90.5t100.5 -34.5z" />
    <glyph glyph-name="seven" unicode="7" horiz-adv-x="547" 
d="M10 700h518v-84l-296 -616h-171l275 567h-326v133z" />
    <glyph glyph-name="eight" unicode="8" horiz-adv-x="661" 
d="M330 -16q-129 0 -208 57.5t-79 151.5q0 59 31.5 105t89.5 73q-91 50 -91 152q0 87 70.5 140t186.5 53q115 0 186 -53.5t71 -140.5q0 -102 -91 -151q58 -27 90 -73t32 -105q0 -94 -79 -151.5t-209 -57.5zM330 411q52 0 83 28t31 74q0 42 -31 68t-83 26q-51 0 -82 -26
t-31 -68q0 -46 31 -74t82 -28zM330 101q57 0 91.5 29t34.5 76q0 49 -34.5 78.5t-91.5 29.5q-56 0 -90.5 -29.5t-34.5 -78.5q0 -47 34.5 -76t90.5 -29z" />
    <glyph glyph-name="nine" unicode="9" horiz-adv-x="657" 
d="M328 716q128 0 206.5 -68t78.5 -179q0 -73 -62 -163l-209 -306h-178l156 227h-1q-121 0 -198.5 66t-77.5 174q0 112 78.5 180.5t206.5 68.5zM328 347q62 0 100.5 35t38.5 91q0 55 -38.5 90t-100.5 35q-61 0 -99 -35t-38 -91q0 -55 38 -90t99 -35z" />
    <glyph glyph-name="colon" unicode=":" horiz-adv-x="234" 
d="M34 485h167v-157h-167v157zM34 157h167v-157h-167v157z" />
    <glyph glyph-name="semicolon" unicode=";" horiz-adv-x="234" 
d="M34 485h167v-157h-167v157zM34 157h167v-120q0 -87 -42.5 -132.5t-130.5 -56.5l-12 63q47 13 67 31t23 58h-72v157z" />
    <glyph glyph-name="less" unicode="&#x3c;" horiz-adv-x="558" 
d="M493 49l-448 192v130l448 192v-131l-293 -126l293 -126v-131z" />
    <glyph glyph-name="equal" unicode="=" horiz-adv-x="714" 
d="M101 367v115h511v-115h-511zM101 163v115h511v-115h-511z" />
    <glyph glyph-name="greater" unicode="&#x3e;" horiz-adv-x="558" 
d="M65 49v131l293 126l-293 126v131l448 -192v-130z" />
    <glyph glyph-name="question" unicode="?" horiz-adv-x="575" 
d="M197 228q-2 52 17 87.5t48 54t58 34t50 39t21 56.5q0 44 -29.5 70.5t-78.5 26.5q-46 0 -75.5 -23.5t-34.5 -61.5h-148q9 94 78.5 149.5t175.5 55.5q113 0 182.5 -59t69.5 -154q0 -52 -22 -90.5t-53.5 -60.5t-62.5 -40t-52.5 -38.5t-20.5 -45.5h-123zM175 157h167v-157
h-167v157z" />
    <glyph glyph-name="at" unicode="@" horiz-adv-x="1044" 
d="M526 -186q-199 0 -333 122.5t-134 304.5t135.5 304.5t337.5 122.5q204 0 329 -111t125 -293q0 -106 -52 -170.5t-136 -64.5q-48 0 -89 21t-60 55q-24 -34 -67.5 -54.5t-90.5 -20.5q-94 0 -153 59t-59 151t59 151t153 59q36 0 71 -13.5t55 -34.5h2v34h126v-239
q0 -75 58 -75q37 0 59.5 38.5t22.5 101.5q0 142 -97 228.5t-256 86.5q-158 0 -264 -96.5t-106 -239.5q0 -144 104 -240t259 -96q124 0 234 75l52 -81q-129 -85 -285 -85zM516 133q46 0 73.5 29.5t27.5 77.5t-27.5 77t-73.5 29q-48 0 -78 -29.5t-30 -76.5t30 -77t78 -30z" />
    <glyph glyph-name="A" unicode="A" horiz-adv-x="801" 
d="M15 0l312 700h149l310 -700h-167l-60 143h-315l-61 -143h-168zM296 272h210l-103 249h-3z" />
    <glyph glyph-name="B" unicode="B" horiz-adv-x="731" 
d="M66 0v700h350q109 0 174.5 -49.5t65.5 -131.5q0 -54 -27.5 -95.5t-78.5 -59.5v-4q65 -13 102.5 -59.5t37.5 -112.5q0 -85 -71 -136.5t-190 -51.5h-363zM223 409h160q55 0 88.5 25.5t33.5 65.5q0 35 -29.5 56t-83.5 21h-169v-168zM223 124h190q56 0 89 23t33 61t-30 61
t-80 23h-202v-168z" />
    <glyph glyph-name="C" unicode="C" horiz-adv-x="834" 
d="M427 124q76 0 127 40t70 110h162q-21 -133 -119 -211t-241 -78q-170 0 -274 101t-104 265t104 264.5t274 100.5q143 0 241 -78t119 -211h-162q-19 70 -69.5 110t-127.5 40q-99 0 -159.5 -62.5t-60.5 -163.5q0 -102 60.5 -164.5t159.5 -62.5z" />
    <glyph glyph-name="D" unicode="D" horiz-adv-x="783" 
d="M343 700q179 0 285.5 -95.5t106.5 -254.5t-106.5 -254.5t-285.5 -95.5h-277v700h277zM332 134q110 0 176.5 59.5t66.5 156.5t-66.5 156.5t-176.5 59.5h-109v-432h109z" />
    <glyph glyph-name="E" unicode="E" horiz-adv-x="642" 
d="M602 570h-379v-159h332v-129h-332v-152h379v-130h-536v700h536v-130z" />
    <glyph glyph-name="F" unicode="F" horiz-adv-x="615" 
d="M66 0v700h529v-130h-372v-180h322v-129h-322v-261h-157z" />
    <glyph glyph-name="G" unicode="G" horiz-adv-x="842" 
d="M425 -15q-169 0 -273 101t-104 265t103.5 264.5t273.5 100.5q146 0 240 -72t123 -187h-164q-23 58 -75.5 89t-121.5 31q-99 0 -159.5 -62.5t-60.5 -163.5q0 -103 61 -165.5t159 -62.5q73 0 124.5 35.5t67.5 96.5h-203v123h378q1 -187 -95.5 -290t-273.5 -103z" />
    <glyph glyph-name="H" unicode="H" horiz-adv-x="770" 
d="M66 0v700h157v-287h324v287h157v-700h-157v280h-324v-280h-157z" />
    <glyph glyph-name="I" unicode="I" horiz-adv-x="289" 
d="M66 0v700h157v-700h-157z" />
    <glyph glyph-name="J" unicode="J" horiz-adv-x="647" 
d="M298 -16q-120 0 -195.5 64.5t-85.5 181.5h155q18 -111 134 -111q56 0 91 39t35 103v306h-312v133h471v-437q0 -133 -77 -206t-216 -73z" />
    <glyph glyph-name="K" unicode="K" horiz-adv-x="763" 
d="M751 0h-198l-330 327v-327h-157v700h157v-337l308 337h189l-319 -350z" />
    <glyph glyph-name="L" unicode="L" horiz-adv-x="612" 
d="M223 130h366v-130h-523v700h157v-570z" />
    <glyph glyph-name="M" unicode="M" horiz-adv-x="1078" 
d="M15 0l192 700h171l158 -478h4l161 478h170l192 -700h-166l-128 462h-4l-153 -462h-147l-153 461h-4l-127 -461h-166z" />
    <glyph glyph-name="N" unicode="N" horiz-adv-x="784" 
d="M561 700h157v-700h-126l-369 429v-429h-157v700h123l372 -439v439z" />
    <glyph glyph-name="O" unicode="O" horiz-adv-x="857" 
d="M429 -15q-169 0 -275 102t-106 263t106 263t275 102q168 0 274.5 -102t106.5 -263t-106.5 -263t-274.5 -102zM429 121q98 0 160 64t62 165t-62 165t-160 64t-160 -64t-62 -165t62 -165t160 -64z" />
    <glyph glyph-name="P" unicode="P" horiz-adv-x="669" 
d="M66 0v700h294q129 0 208.5 -68t79.5 -178q0 -114 -81.5 -184t-213.5 -70h-130v-200h-157zM223 330h122q64 0 105 34.5t41 89.5q0 51 -40.5 83t-105.5 32h-122v-239z" />
    <glyph glyph-name="Q" unicode="Q" horiz-adv-x="857" 
d="M810 350q0 -98 -41.5 -177t-116.5 -127l150 -129l-112 -95l-199 167q-27 -4 -62 -4q-169 0 -275 102t-106 263t106 263t275 102q168 0 274.5 -102t106.5 -263zM207 350q0 -101 62 -165t160 -64t160 64t62 165t-62 165t-160 64t-160 -64t-62 -165z" />
    <glyph glyph-name="R" unicode="R" horiz-adv-x="738" 
d="M716 0h-188l-174 245h-131v-245h-157v700h312q130 0 207 -62t77 -166q0 -69 -37.5 -121t-106.5 -79zM223 569v-193h133q70 0 110 25.5t40 70.5q0 46 -37.5 71.5t-104.5 25.5h-141z" />
    <glyph glyph-name="S" unicode="S" horiz-adv-x="708" 
d="M369 -15q-140 0 -226.5 63.5t-99.5 174.5h156q11 -49 55.5 -80.5t115.5 -31.5q55 0 88 21.5t32 56.5q0 31 -23.5 50t-60 28t-81 16t-89 20t-81.5 33.5t-60.5 62t-24.5 100.5q-1 98 75.5 157.5t202.5 59.5t210 -60t94 -160h-158q-10 43 -44 69.5t-92 26.5
q-54 0 -86.5 -22.5t-31.5 -60.5q0 -37 31 -58.5t77 -29t99.5 -20t99.5 -30t77 -60.5t32 -109q1 -98 -77.5 -157.5t-209.5 -59.5z" />
    <glyph glyph-name="T" unicode="T" horiz-adv-x="686" 
d="M659 700v-133h-238v-567h-157v567h-238v133h633z" />
    <glyph glyph-name="U" unicode="U" horiz-adv-x="771" 
d="M385 -16q-151 0 -240 87t-89 236v393h158v-395q0 -83 47 -133t124 -50q78 0 125 50t47 133v395h158v-393q0 -149 -89 -236t-241 -87z" />
    <glyph glyph-name="V" unicode="V" horiz-adv-x="816" 
d="M330 0l-317 700h173l220 -502h4l221 502h173l-317 -700h-157z" />
    <glyph glyph-name="W" unicode="W" horiz-adv-x="1091" 
d="M238 0l-215 700h166l138 -468h4l139 468h153l136 -469h4l139 469h166l-216 -700h-163l-142 475h-4l-141 -475h-164z" />
    <glyph glyph-name="X" unicode="X" horiz-adv-x="731" 
d="M11 0l250 347l-245 353h190l159 -235l159 235h191l-245 -354l250 -346h-181l-173 235l-174 -235h-181z" />
    <glyph glyph-name="Y" unicode="Y" horiz-adv-x="748" 
d="M295 0v218l-287 482h174l191 -326l193 326h174l-287 -481v-219h-158z" />
    <glyph glyph-name="Z" unicode="Z" horiz-adv-x="692" 
d="M39 0v71l377 498h-361v131h589v-70l-364 -499h369v-131h-610z" />
    <glyph glyph-name="bracketleft" unicode="[" horiz-adv-x="387" 
d="M55 -144v876h301v-133h-153v-610h153v-133h-301z" />
    <glyph glyph-name="backslash" unicode="\" horiz-adv-x="439" 
d="M266 -168l-269 900h138l269 -900h-138z" />
    <glyph glyph-name="bracketright" unicode="]" horiz-adv-x="387" 
d="M31 -144v133h153v610h-153v133h301v-876h-301z" />
    <glyph glyph-name="asciicircum" unicode="^" horiz-adv-x="454" 
d="M287 700l145 -258h-132l-73 150l-73 -150h-133l146 258h120z" />
    <glyph glyph-name="underscore" unicode="_" horiz-adv-x="602" 
d="M0 -219v121h602v-121h-602z" />
    <glyph glyph-name="grave" unicode="`" horiz-adv-x="342" 
d="M289 565h-131l-108 159h159l83 -155z" />
    <glyph glyph-name="a" unicode="a" horiz-adv-x="654" 
d="M288 -16q-109 0 -179 72.5t-70 185.5q0 114 69.5 186.5t179.5 72.5q95 0 154 -63h2v47h148v-485h-148v47h-2q-60 -63 -154 -63zM315 101q56 0 91 39.5t35 101.5q0 63 -35 102.5t-91 39.5q-57 0 -93 -39.5t-36 -102.5q0 -62 36 -101.5t93 -39.5z" />
    <glyph glyph-name="b" unicode="b" horiz-adv-x="654" 
d="M369 501q108 0 177.5 -72.5t69.5 -186.5q0 -113 -70 -185.5t-179 -72.5q-92 0 -154 63h-2v-47h-148v772h150v-334h2q57 63 154 63zM340 101q56 0 92 39.5t36 101.5q0 63 -36 102.5t-92 39.5t-91.5 -39.5t-35.5 -102.5q0 -62 35.5 -101.5t91.5 -39.5z" />
    <glyph glyph-name="c" unicode="c" horiz-adv-x="608" 
d="M314 -16q-124 0 -199.5 71t-75.5 187q0 117 75.5 188t199.5 71q105 0 175 -55t80 -146h-142q-8 35 -37 57.5t-76 22.5q-59 0 -95 -38t-36 -100t36 -99.5t95 -37.5q47 0 76 22.5t37 57.5h142q-10 -92 -80 -146.5t-175 -54.5z" />
    <glyph glyph-name="d" unicode="d" horiz-adv-x="654" 
d="M286 501q96 0 153 -63h2v334h151v-772h-148v47h-2q-62 -63 -154 -63q-109 0 -179 72.5t-70 185.5q0 114 69 186.5t178 72.5zM315 101q56 0 91 39.5t35 101.5q0 63 -35 102.5t-91 39.5q-57 0 -93 -39.5t-36 -102.5q0 -62 36 -101.5t93 -39.5z" />
    <glyph glyph-name="e" unicode="e" horiz-adv-x="607" 
d="M312 -16q-122 0 -197 71t-75 187q0 117 73.5 188t192.5 71t190 -70.5t71 -192.5v-43h-381q12 -45 47 -71t82 -26q67 0 95 40h149q-20 -69 -88.5 -111.5t-158.5 -42.5zM185 284h239q-2 47 -33 76.5t-81 29.5q-49 0 -83.5 -29.5t-41.5 -76.5z" />
    <glyph glyph-name="f" unicode="f" horiz-adv-x="424" 
d="M119 0v364h-114v121h114v87q0 99 63 158t168 59q41 0 72 -9v-123q-23 5 -41 5q-52 0 -81.5 -24.5t-29.5 -67.5v-85h152v-121h-152v-364h-151z" />
    <glyph glyph-name="g" unicode="g" horiz-adv-x="658" 
d="M448 485h148v-497q0 -106 -74 -171.5t-194 -65.5q-116 0 -188.5 55t-83.5 147h151q8 -37 39 -58.5t81 -21.5q53 0 85.5 31t32.5 83v62h-2q-61 -63 -153 -63q-109 0 -178 72.5t-69 185.5t69.5 185t178.5 72q92 0 154 -62h3v46zM319 104q56 0 91 39t35 101t-35.5 101
t-90.5 39q-56 0 -92.5 -39.5t-36.5 -100.5q0 -62 36 -101t93 -39z" />
    <glyph glyph-name="h" unicode="h" horiz-adv-x="634" 
d="M63 0v772h150v-334h2q60 63 152 63q94 0 153.5 -62t59.5 -159v-280h-151v260q0 51 -28.5 82t-76.5 31q-50 0 -80.5 -29.5t-30.5 -78.5v-265h-150z" />
    <glyph glyph-name="i" unicode="i" horiz-adv-x="276" 
d="M61 635v137h154v-137h-154zM63 0v485h150v-485h-150z" />
    <glyph glyph-name="j" unicode="j" horiz-adv-x="279" 
d="M64 635v137h154v-137h-154zM-31 -249v121l12 2q46 6 65.5 24t19.5 65v522h151v-506q0 -118 -54 -173t-168 -55h-26z" />
    <glyph glyph-name="k" unicode="k" horiz-adv-x="628" 
d="M63 0v772h150v-530l206 243h171l-205 -243l235 -242h-188l-219 225v-225h-150z" />
    <glyph glyph-name="l" unicode="l" horiz-adv-x="276" 
d="M63 0v772h150v-772h-150z" />
    <glyph glyph-name="m" unicode="m" horiz-adv-x="958" 
d="M63 0v485h148v-47h2q60 63 150 63q91 0 150 -64q68 64 167 64q98 0 161.5 -62t63.5 -159v-280h-151v260q0 51 -28 82t-75 31q-41 0 -66 -29.5t-25 -78.5v-265h-151v260q0 51 -26 82t-69 31q-46 0 -73.5 -29.5t-27.5 -78.5v-265h-150z" />
    <glyph glyph-name="n" unicode="n" horiz-adv-x="634" 
d="M63 0v485h148v-47h2q57 63 150 63q95 0 156 -62t61 -159v-280h-151v260q0 51 -28.5 82t-76.5 31q-50 0 -80.5 -29.5t-30.5 -78.5v-265h-150z" />
    <glyph glyph-name="o" unicode="o" horiz-adv-x="628" 
d="M314 -16q-124 0 -199.5 71t-75.5 187q0 117 75.5 188t199.5 71t199.5 -71t75.5 -188q0 -116 -75.5 -187t-199.5 -71zM314 108q59 0 95.5 36.5t36.5 97.5t-36.5 98t-95.5 37t-95.5 -37t-36.5 -98t36.5 -97.5t95.5 -36.5z" />
    <glyph glyph-name="p" unicode="p" horiz-adv-x="654" 
d="M369 -16q-98 0 -154 62h-2v-278h-150v716h148v-47h2q63 64 154 64q109 0 179 -73t70 -186q0 -114 -69.5 -186t-177.5 -72zM340 384q-56 0 -91.5 -39.5t-35.5 -102.5t35.5 -102t91.5 -39t92 39t36 102q0 62 -36 102t-92 40z" />
    <glyph glyph-name="q" unicode="q" horiz-adv-x="654" 
d="M286 -16q-109 0 -178 72t-69 186q0 113 70 186t179 73q91 0 154 -64h2v48h148v-717h-151v278h-2q-56 -62 -153 -62zM315 384q-57 0 -93 -40t-36 -102q0 -63 36 -102t93 -39q56 0 91 39t35 102t-35 102.5t-91 39.5z" />
    <glyph glyph-name="r" unicode="r" horiz-adv-x="419" 
d="M63 0v485h148v-58h2q43 74 131 74q32 0 52 -6v-136q-27 6 -50 6q-62 0 -97.5 -37t-35.5 -104v-224h-150z" />
    <glyph glyph-name="s" unicode="s" horiz-adv-x="547" 
d="M276 -16q-110 0 -177 48t-71 129h134q12 -69 118 -69q37 0 59 12t22 32q0 26 -32 37.5t-78 17t-92 16.5t-78 45t-32 92q0 71 61 114t161 43q98 0 162 -42.5t72 -121.5h-136q-5 29 -34 45t-67 16q-32 0 -53 -11.5t-21 -32.5q0 -22 23.5 -35t58.5 -17t75.5 -12.5t75.5 -21
t58.5 -44.5t23.5 -81q0 -75 -62 -117t-171 -42z" />
    <glyph glyph-name="t" unicode="t" horiz-adv-x="469" 
d="M329 -16q-96 0 -154.5 53.5t-58.5 141.5v185h-111v121h111v154h150v-154h158v-121h-158v-168q0 -40 23 -61t67 -21q8 0 68 5v-123q-42 -12 -95 -12z" />
    <glyph glyph-name="u" unicode="u" horiz-adv-x="624" 
d="M312 -16q-116 0 -187 62.5t-71 164.5v274h150v-260q0 -51 29.5 -82t78.5 -31t78.5 31t29.5 82v260h150v-274q0 -102 -71 -164.5t-187 -62.5z" />
    <glyph glyph-name="v" unicode="v" horiz-adv-x="622" 
d="M240 0l-225 485h160l135 -304h2l137 304h158l-225 -485h-142z" />
    <glyph glyph-name="w" unicode="w" horiz-adv-x="848" 
d="M197 0l-179 485h158l93 -272h2l94 272h120l94 -273h2l93 273h157l-178 -485h-136l-91 268h-2l-91 -268h-136z" />
    <glyph glyph-name="x" unicode="x" horiz-adv-x="594" 
d="M14 0l184 243l-182 242h174l107 -142l109 142h173l-183 -243l184 -242h-168l-113 151l-117 -151h-168z" />
    <glyph glyph-name="y" unicode="y" horiz-adv-x="664" 
d="M487 485h159l-322 -717h-161l103 222l-247 495h160l161 -326h2z" />
    <glyph glyph-name="z" unicode="z" horiz-adv-x="533" 
d="M33 0v69l258 298h-252v118h462v-75l-253 -292h252v-118h-467z" />
    <glyph glyph-name="braceleft" unicode="{" horiz-adv-x="381" 
d="M350 -151q-112 3 -173 54.5t-61 136.5v136q0 35 -14 48t-56 17l-18 1v110l18 2q42 3 56 16.5t14 48.5v136q0 85 61 136t173 55v-134q-84 -5 -84 -65v-121q0 -58 -16.5 -86.5t-60.5 -42.5q44 -13 60.5 -41.5t16.5 -87.5v-121q0 -60 84 -65v-133z" />
    <glyph glyph-name="bar" unicode="|" horiz-adv-x="332" 
d="M99 -160v890h134v-890h-134z" />
    <glyph glyph-name="braceright" unicode="}" horiz-adv-x="381" 
d="M32 -151l-1 133q84 5 84 65v121q0 59 16.5 87.5t60.5 41.5q-44 14 -60.5 42.5t-16.5 86.5v121q0 60 -84 65l1 134q112 -4 172.5 -55t60.5 -136v-136q0 -35 14 -48.5t56 -16.5l19 -2v-110l-19 -1q-42 -4 -56 -17t-14 -48v-136q0 -85 -61 -136.5t-172 -54.5z" />
    <glyph glyph-name="asciitilde" unicode="~" horiz-adv-x="495" 
d="M325 254q-39 0 -88.5 28t-59.5 28q-28 0 -28 -38h-128q1 71 39 115t103 44q44 0 93.5 -28t60.5 -28q29 0 29 38h128q0 -72 -41 -115.5t-108 -43.5z" />
    <glyph glyph-name="exclamdown" unicode="&#xa1;" horiz-adv-x="293" 
d="M63 328v157h167v-157h-167zM80 257h133l12 -281v-191h-156v191z" />
    <glyph glyph-name="cent" unicode="&#xa2;" horiz-adv-x="608" 
d="M314 105q47 0 76 22.5t37 57.5h142q-9 -76 -59.5 -127.5t-130.5 -67.5v-106h-124v105q-99 16 -157.5 83.5t-58.5 169.5t58.5 170t157.5 84v115h124v-116q79 -16 130 -67.5t60 -127.5h-142q-8 35 -37 57.5t-76 22.5q-59 0 -95 -38t-36 -100t36 -99.5t95 -37.5z" />
    <glyph glyph-name="sterling" unicode="&#xa3;" horiz-adv-x="662" 
d="M39 0v123h63v149h-63v113h63v91q0 109 74.5 174.5t191.5 65.5q111 0 185 -57.5t78 -154.5h-149q-26 89 -115 89q-51 0 -83.5 -32t-32.5 -85v-91h205v-113h-205v-149h367v-123h-579z" />
    <glyph glyph-name="currency" unicode="&#xa4;" horiz-adv-x="546" 
d="M122 70l-81 81l45 45q-28 47 -28 106q0 60 28 107l-45 45l81 81l53 -53q41 19 98 19t99 -19l52 53l81 -81l-45 -45q28 -47 28 -107q0 -59 -28 -106l45 -45l-81 -81l-52 52q-42 -19 -99 -19t-98 19zM273 198q49 0 79.5 28.5t30.5 75.5t-30.5 75.5t-79.5 28.5t-79.5 -28.5
t-30.5 -75.5t30.5 -75.5t79.5 -28.5z" />
    <glyph glyph-name="yen" unicode="&#xa5;" horiz-adv-x="748" 
d="M740 700l-235 -394h138v-94h-190v-47h190v-94h-190v-71h-158v71h-190v94h190v47h-190v94h138l-235 394h174l191 -326l193 326h174z" />
    <glyph glyph-name="brokenbar" unicode="&#xa6;" horiz-adv-x="332" 
d="M99 336v394h134v-394h-134zM99 -160v394h134v-394h-134z" />
    <glyph glyph-name="section" unicode="&#xa7;" horiz-adv-x="589" 
d="M293 -135q-101 0 -165.5 50t-76.5 143h151q12 -73 88 -73q32 0 50.5 14.5t18.5 38.5q0 23 -24.5 42t-60.5 31t-79 29.5t-79 37.5t-60.5 56.5t-24.5 84.5q0 87 78 129q-33 41 -33 99q0 75 62 122t160 47q100 0 164.5 -49.5t74.5 -142.5h-153q-11 73 -86 73q-30 0 -49 -15
t-19 -38q0 -28 34 -50t82 -39.5t96 -39t82 -60.5t34 -92q0 -85 -81 -129q36 -41 36 -99q0 -79 -59.5 -124.5t-160.5 -45.5zM371 205q44 13 44 49q0 25 -27 42.5t-88.5 41t-88.5 36.5q-37 -12 -37 -48q0 -21 19.5 -39t42.5 -28t67 -26.5t68 -27.5z" />
    <glyph glyph-name="dieresis" unicode="&#xa8;" horiz-adv-x="492" 
d="M50 725h164v-154h-164v154zM277 725h165v-154h-165v154z" />
    <glyph glyph-name="copyright" unicode="&#xa9;" horiz-adv-x="868" 
d="M434 -16q-170 0 -278 102.5t-108 263.5t108 263.5t278 102.5t278.5 -102.5t108.5 -263.5t-108.5 -263.5t-278.5 -102.5zM434 65q130 0 212.5 80t82.5 205t-82.5 205t-212.5 80q-129 0 -212 -80t-83 -205t83 -205t212 -80zM437 184q-80 0 -131 46.5t-51 119.5t51 119.5
t131 46.5q68 0 114.5 -35.5t61.5 -97.5h-102q-23 46 -75 46q-36 0 -59 -22t-23 -57t23 -57t59 -22q52 0 75 46h102q-15 -62 -61.5 -97.5t-114.5 -35.5z" />
    <glyph glyph-name="ordfeminine" unicode="&#xaa;" horiz-adv-x="388" 
d="M152 380q-59 0 -96.5 29t-37.5 74q0 44 35.5 68.5t98.5 24.5h97v4q0 26 -14.5 42.5t-44.5 16.5q-48 0 -61 -41h-97q5 54 49 86t109 32q74 0 116.5 -37.5t42.5 -102.5v-189h-93v29h-2q-37 -36 -102 -36zM172 454q34 0 55.5 18t21.5 45h-96q-15 0 -26.5 -6.5t-11.5 -19.5
q0 -18 16 -27.5t41 -9.5z" />
    <glyph glyph-name="guillemotleft" unicode="&#xab;" horiz-adv-x="491" 
d="M259 410l-103 -158l103 -158h-135l-98 148v20l98 148h135zM465 410l-103 -158l103 -158h-135l-97 148v20l97 148h135z" />
    <glyph glyph-name="registered" unicode="&#xae;" horiz-adv-x="592" 
d="M296 203q-113 0 -190 70.5t-77 174.5q0 103 77 173.5t190 70.5t190 -70.5t77 -173.5q0 -104 -77 -174.5t-190 -70.5zM296 266q81 0 137.5 53t56.5 129t-56.5 128t-137.5 52t-137.5 -52t-56.5 -128t56.5 -129t137.5 -53zM210 350v207h98q40 0 65 -20.5t25 -54.5
q0 -45 -42 -62l51 -70h-68l-41 60h-31v-60h-57zM267 455h40q33 0 33 28q0 12 -9.5 19.5t-23.5 7.5h-40v-55z" />
    <glyph glyph-name="macron" unicode="&#xaf;" horiz-adv-x="402" 
d="M50 579v110h302v-110h-302z" />
    <glyph glyph-name="degree" unicode="&#xb0;" horiz-adv-x="487" 
d="M243 372q-85 0 -136.5 47.5t-51.5 124.5t51.5 124.5t136.5 47.5t136.5 -47.5t51.5 -124.5t-51.5 -124.5t-136.5 -47.5zM243 466q38 0 61.5 21.5t23.5 56.5t-23.5 56.5t-61.5 21.5t-61 -21.5t-23 -56.5t23 -56.5t61 -21.5z" />
    <glyph glyph-name="plusminus" unicode="&#xb1;" horiz-adv-x="705" 
d="M290 178v148h-189v116h189v148h126v-148h187v-116h-187v-148h-126zM101 0v116h502v-116h-502z" />
    <glyph glyph-name="uni00B2" unicode="&#xb2;" horiz-adv-x="387" 
d="M38 481v52l156 162l8 8l8.5 8.5t7.5 8t7.5 9t5.5 8t5 9.5t2.5 9t1.5 10q0 17 -12.5 28t-34.5 11q-49 0 -56 -49h-101q4 63 48.5 101.5t112.5 38.5q71 0 114 -34t43 -89q0 -51 -63 -118l-81 -86h148v-87h-320z" />
    <glyph glyph-name="uni00B3" unicode="&#xb3;" horiz-adv-x="402" 
d="M267 717q47 -14 73.5 -44t26.5 -71q0 -57 -45.5 -93t-120.5 -36q-70 0 -116 35.5t-54 94.5h107q4 -18 21 -31t45 -13q26 0 42 13t16 33t-16.5 33t-46.5 13h-51v70l73 77h-166v89h304v-73z" />
    <glyph glyph-name="acute" unicode="&#xb4;" horiz-adv-x="342" 
d="M53 565l-3 4l83 155h159l-108 -159h-131z" />
    <glyph glyph-name="paragraph" unicode="&#xb6;" horiz-adv-x="722" 
d="M288 -142v462h-42q-100 0 -161 52.5t-61 137.5t61 137.5t161 52.5h180v-842h-138zM517 -142v842h139v-842h-139z" />
    <glyph glyph-name="periodcentered" unicode="&#xb7;" horiz-adv-x="234" 
d="M34 325h167v-158h-167v158z" />
    <glyph glyph-name="cedilla" unicode="&#xb8;" horiz-adv-x="291" 
d="M50 -174l50 197h141l-67 -197h-124z" />
    <glyph glyph-name="uni00B9" unicode="&#xb9;" horiz-adv-x="263" 
d="M122 483v315h-104v89h209v-404h-105z" />
    <glyph glyph-name="ordmasculine" unicode="&#xba;" horiz-adv-x="409" 
d="M204 380q-80 0 -131.5 47t-51.5 121t51.5 121t131.5 47q81 0 132.5 -47t51.5 -121t-51.5 -121t-132.5 -47zM204 465q38 0 61.5 23t23.5 60t-24 60.5t-61 23.5t-60.5 -23.5t-23.5 -60.5t23.5 -60t60.5 -23z" />
    <glyph glyph-name="guillemotright" unicode="&#xbb;" horiz-adv-x="491" 
d="M26 410h135l98 -148v-20l-98 -148h-135l103 158zM233 410h134l98 -148v-20l-98 -148h-134l102 158z" />
    <glyph glyph-name="onequarter" unicode="&#xbc;" horiz-adv-x="883" 
d="M122 300v315h-104v89h209v-404h-105zM107 0l488 700h103l-488 -700h-103zM856 160v-89h-54v-71h-106v71h-223v70l190 263h139v-244h54zM589 160h107v145z" />
    <glyph glyph-name="onehalf" unicode="&#xbd;" horiz-adv-x="857" 
d="M122 300v315h-104v89h209v-404h-105zM107 0l488 700h103l-488 -700h-103zM509 1v51l156 163l7.5 7.5l8.5 8.5t7.5 8t7.5 9t6 8.5t5 9l2.5 8.5t1.5 10q0 18 -13 28.5t-35 10.5q-23 0 -38 -13.5t-18 -35.5h-100q3 63 47.5 102t113.5 39q70 0 113 -34t43 -89q0 -51 -63 -118
l-81 -87h149v-86h-320z" />
    <glyph glyph-name="threequarters" unicode="&#xbe;" horiz-adv-x="970" 
d="M367 419q0 -57 -45.5 -92.5t-120.5 -35.5q-70 0 -116 35t-54 94h107q4 -18 21 -31t45 -13q26 0 42 13t16 33t-16.5 33t-46.5 13h-51v70l73 77h-166v89h304v-73l-91 -97q46 -14 72.5 -44.5t26.5 -70.5zM682 700h103l-489 -700h-103zM889 160h53v-89h-53v-71h-107v71h-223
v70l190 263h140v-244zM782 160v145l-107 -145h107z" />
    <glyph glyph-name="questiondown" unicode="&#xbf;" horiz-adv-x="575" 
d="M400 328h-167v157h167v-157zM378 257q2 -52 -17 -87.5t-47.5 -54t-58 -34t-50 -39t-20.5 -56.5q0 -44 29.5 -70.5t78.5 -26.5q45 0 74.5 23.5t34.5 61.5h148q-8 -94 -78 -149.5t-176 -55.5q-113 0 -182.5 58.5t-69.5 154.5q0 52 22 90.5t53.5 60.5t63 40t52.5 38.5
t20 45.5h123z" />
    <glyph glyph-name="Agrave" unicode="&#xc0;" horiz-adv-x="801" 
d="M472 769h-131l-108 159h159l83 -155zM15 0l312 700h149l310 -700h-167l-60 143h-315l-61 -143h-168zM296 272h210l-103 249h-3z" />
    <glyph glyph-name="Aacute" unicode="&#xc1;" horiz-adv-x="801" 
d="M330 769l-3 4l83 155h159l-108 -159h-131zM15 0l312 700h149l310 -700h-167l-60 143h-315l-61 -143h-168zM296 272h210l-103 249h-3z" />
    <glyph glyph-name="Acircumflex" unicode="&#xc2;" horiz-adv-x="801" 
d="M206 768l125 156h139l125 -156h-131l-63 72l-64 -72h-131zM15 0l312 700h149l310 -700h-167l-60 143h-315l-61 -143h-168zM296 272h210l-103 249h-3z" />
    <glyph glyph-name="Atilde" unicode="&#xc3;" horiz-adv-x="801" 
d="M472 780q-38 0 -79.5 23.5t-51.5 23.5q-22 0 -29 -32h-109q3 62 35.5 100t90.5 38q41 0 81 -23.5t51 -23.5q21 0 27 33h108q2 -60 -32.5 -99.5t-91.5 -39.5zM15 0l312 700h149l310 -700h-167l-60 143h-315l-61 -143h-168zM296 272h210l-103 249h-3z" />
    <glyph glyph-name="Adieresis" unicode="&#xc4;" horiz-adv-x="801" 
d="M205 774v153h164v-153h-164zM432 774v153h165v-153h-165zM15 0l312 700h149l310 -700h-167l-60 143h-315l-61 -143h-168zM296 272h210l-103 249h-3z" />
    <glyph glyph-name="Aring" unicode="&#xc5;" horiz-adv-x="801" 
d="M402 776q-56 0 -91 30.5t-35 80.5t35 80.5t91 30.5t90 -30.5t34 -80.5t-34.5 -80.5t-89.5 -30.5zM401 841q22 0 35.5 13t13.5 33q0 21 -13.5 33.5t-35.5 12.5q-21 0 -35 -12.5t-14 -33.5q0 -20 14 -33t35 -13zM15 0l312 700h149l310 -700h-167l-60 143h-315l-61 -143
h-168zM296 272h210l-103 249h-3z" />
    <glyph glyph-name="AE" unicode="&#xc6;" horiz-adv-x="1183" 
d="M26 0l542 700h575v-131h-379v-158h336v-129h-336v-152h379v-130h-535v142h-283l-109 -142h-190zM419 272h189v249z" />
    <glyph glyph-name="Ccedilla" unicode="&#xc7;" horiz-adv-x="834" 
d="M427 124q76 0 127 40t70 110h162q-19 -120 -101.5 -196t-205.5 -90l-55 -162h-124l42 166q-135 24 -214.5 120.5t-79.5 238.5q0 164 104 264.5t274 100.5q143 0 241 -78t119 -211h-162q-19 70 -69.5 110t-127.5 40q-99 0 -159.5 -62.5t-60.5 -163.5q0 -102 60.5 -164.5
t159.5 -62.5z" />
    <glyph glyph-name="Egrave" unicode="&#xc8;" horiz-adv-x="642" 
d="M417 769h-131l-108 159h159l83 -155zM602 570h-379v-159h332v-129h-332v-152h379v-130h-536v700h536v-130z" />
    <glyph glyph-name="Eacute" unicode="&#xc9;" horiz-adv-x="642" 
d="M275 769l-3 4l83 155h159l-108 -159h-131zM602 570h-379v-159h332v-129h-332v-152h379v-130h-536v700h536v-130z" />
    <glyph glyph-name="Ecircumflex" unicode="&#xca;" horiz-adv-x="642" 
d="M151 768l125 156h139l125 -156h-131l-63 72l-64 -72h-131zM602 570h-379v-159h332v-129h-332v-152h379v-130h-536v700h536v-130z" />
    <glyph glyph-name="Edieresis" unicode="&#xcb;" horiz-adv-x="642" 
d="M150 774v153h164v-153h-164zM377 774v153h165v-153h-165zM602 570h-379v-159h332v-129h-332v-152h379v-130h-536v700h536v-130z" />
    <glyph glyph-name="Igrave" unicode="&#xcc;" horiz-adv-x="289" 
d="M216 769h-131l-108 159h159l83 -155zM66 0v700h157v-700h-157z" />
    <glyph glyph-name="Iacute" unicode="&#xcd;" horiz-adv-x="289" 
d="M74 769l-3 4l83 155h159l-108 -159h-131zM66 0v700h157v-700h-157z" />
    <glyph glyph-name="Icircumflex" unicode="&#xce;" horiz-adv-x="289" 
d="M-50 768l125 156h139l125 -156h-131l-63 72l-64 -72h-131zM66 0v700h157v-700h-157z" />
    <glyph glyph-name="Idieresis" unicode="&#xcf;" horiz-adv-x="289" 
d="M-51 774v153h164v-153h-164zM176 774v153h165v-153h-165zM66 0v700h157v-700h-157z" />
    <glyph glyph-name="Eth" unicode="&#xd0;" horiz-adv-x="783" 
d="M343 700q179 0 285.5 -95.5t106.5 -254.5t-106.5 -254.5t-285.5 -95.5h-277v286h-59v129h59v285h277zM332 134q110 0 176.5 59.5t66.5 156.5t-66.5 156.5t-176.5 59.5h-109v-151h135v-129h-135v-152h109z" />
    <glyph glyph-name="Ntilde" unicode="&#xd1;" horiz-adv-x="784" 
d="M463 780q-38 0 -79.5 23.5t-51.5 23.5q-22 0 -29 -32h-109q3 62 35.5 100t90.5 38q40 0 81 -23.5t51 -23.5q21 0 27 33h108q2 -60 -32.5 -99.5t-91.5 -39.5zM561 700h157v-700h-126l-369 429v-429h-157v700h123l372 -439v439z" />
    <glyph glyph-name="Ograve" unicode="&#xd2;" horiz-adv-x="857" 
d="M500 769h-131l-108 159h159l83 -155zM429 -15q-169 0 -275 102t-106 263t106 263t275 102q168 0 274.5 -102t106.5 -263t-106.5 -263t-274.5 -102zM429 121q98 0 160 64t62 165t-62 165t-160 64t-160 -64t-62 -165t62 -165t160 -64z" />
    <glyph glyph-name="Oacute" unicode="&#xd3;" horiz-adv-x="857" 
d="M358 769l-3 4l83 155h159l-108 -159h-131zM429 -15q-169 0 -275 102t-106 263t106 263t275 102q168 0 274.5 -102t106.5 -263t-106.5 -263t-274.5 -102zM429 121q98 0 160 64t62 165t-62 165t-160 64t-160 -64t-62 -165t62 -165t160 -64z" />
    <glyph glyph-name="Ocircumflex" unicode="&#xd4;" horiz-adv-x="857" 
d="M234 768l125 156h139l125 -156h-131l-63 72l-64 -72h-131zM429 -15q-169 0 -275 102t-106 263t106 263t275 102q168 0 274.5 -102t106.5 -263t-106.5 -263t-274.5 -102zM429 121q98 0 160 64t62 165t-62 165t-160 64t-160 -64t-62 -165t62 -165t160 -64z" />
    <glyph glyph-name="Otilde" unicode="&#xd5;" horiz-adv-x="857" 
d="M500 780q-38 0 -79.5 23.5t-51.5 23.5q-22 0 -29 -32h-109q3 62 35.5 100t90.5 38q41 0 81 -23.5t51 -23.5q21 0 27 33h108q2 -60 -32.5 -99.5t-91.5 -39.5zM429 -15q-169 0 -275 102t-106 263t106 263t275 102q168 0 274.5 -102t106.5 -263t-106.5 -263t-274.5 -102z
M429 121q98 0 160 64t62 165t-62 165t-160 64t-160 -64t-62 -165t62 -165t160 -64z" />
    <glyph glyph-name="Odieresis" unicode="&#xd6;" horiz-adv-x="857" 
d="M233 774v153h164v-153h-164zM460 774v153h165v-153h-165zM429 -15q-169 0 -275 102t-106 263t106 263t275 102q168 0 274.5 -102t106.5 -263t-106.5 -263t-274.5 -102zM429 121q98 0 160 64t62 165t-62 165t-160 64t-160 -64t-62 -165t62 -165t160 -64z" />
    <glyph glyph-name="multiply" unicode="&#xd7;" horiz-adv-x="685" 
d="M189 89l-82 80l151 151l-145 142l86 85l146 -142l151 148l83 -80l-150 -150l143 -143l-86 -85l-145 143z" />
    <glyph glyph-name="Oslash" unicode="&#xd8;" horiz-adv-x="857" 
d="M716 600q94 -99 94 -250q0 -161 -106.5 -263t-274.5 -102q-121 0 -212 54l-51 -57l-76 61l51 57q-93 101 -93 250q0 161 106 263t275 102q121 0 212 -54l51 57l76 -60zM207 350q0 -77 37 -134l299 335q-51 28 -114 28q-98 0 -160 -64t-62 -165zM429 121q98 0 160 64
t62 165q0 77 -38 134l-298 -335q51 -28 114 -28z" />
    <glyph glyph-name="Ugrave" unicode="&#xd9;" horiz-adv-x="771" 
d="M457 769h-131l-108 159h159l83 -155zM385 -16q-151 0 -240 87t-89 236v393h158v-395q0 -83 47 -133t124 -50q78 0 125 50t47 133v395h158v-393q0 -149 -89 -236t-241 -87z" />
    <glyph glyph-name="Uacute" unicode="&#xda;" horiz-adv-x="771" 
d="M315 769l-3 4l83 155h159l-108 -159h-131zM385 -16q-151 0 -240 87t-89 236v393h158v-395q0 -83 47 -133t124 -50q78 0 125 50t47 133v395h158v-393q0 -149 -89 -236t-241 -87z" />
    <glyph glyph-name="Ucircumflex" unicode="&#xdb;" horiz-adv-x="771" 
d="M191 768l125 156h139l125 -156h-131l-63 72l-64 -72h-131zM385 -16q-151 0 -240 87t-89 236v393h158v-395q0 -83 47 -133t124 -50q78 0 125 50t47 133v395h158v-393q0 -149 -89 -236t-241 -87z" />
    <glyph glyph-name="Udieresis" unicode="&#xdc;" horiz-adv-x="771" 
d="M190 774v153h164v-153h-164zM417 774v153h165v-153h-165zM385 -16q-151 0 -240 87t-89 236v393h158v-395q0 -83 47 -133t124 -50q78 0 125 50t47 133v395h158v-393q0 -149 -89 -236t-241 -87z" />
    <glyph glyph-name="Yacute" unicode="&#xdd;" horiz-adv-x="748" 
d="M303 769l-3 4l83 155h159l-108 -159h-131zM295 0v218l-287 482h174l191 -326l193 326h174l-287 -481v-219h-158z" />
    <glyph glyph-name="Thorn" unicode="&#xde;" horiz-adv-x="669" 
d="M66 0v700h157v-99h137q129 0 208.5 -68t79.5 -178q0 -114 -81.5 -184.5t-213.5 -70.5h-130v-100h-157zM223 231h122q65 0 105.5 34.5t40.5 89.5q0 50 -41 82t-105 32h-122v-238z" />
    <glyph glyph-name="germandbls" unicode="&#xdf;" horiz-adv-x="650" 
d="M454 411q73 -20 115.5 -76t42.5 -134q0 -99 -65.5 -158t-175.5 -59q-54 0 -105 19v128q37 -17 78 -17q51 0 82 29t31 76t-31.5 76.5t-83.5 29.5h-42v94l64 80q37 47 37 93q0 32 -25.5 51.5t-67.5 19.5q-43 0 -69 -22t-26 -59v-582h-150v583q0 93 66.5 149.5t175.5 56.5
t176 -50.5t67 -133.5q0 -72 -54 -145z" />
    <glyph glyph-name="agrave" unicode="&#xe0;" horiz-adv-x="654" 
d="M394 565h-131l-108 159h159l83 -155zM288 -16q-109 0 -179 72.5t-70 185.5q0 114 69.5 186.5t179.5 72.5q95 0 154 -63h2v47h148v-485h-148v47h-2q-60 -63 -154 -63zM315 101q56 0 91 39.5t35 101.5q0 63 -35 102.5t-91 39.5q-57 0 -93 -39.5t-36 -102.5q0 -62 36 -101.5
t93 -39.5z" />
    <glyph glyph-name="aacute" unicode="&#xe1;" horiz-adv-x="654" 
d="M252 565l-3 4l83 155h159l-108 -159h-131zM288 -16q-109 0 -179 72.5t-70 185.5q0 114 69.5 186.5t179.5 72.5q95 0 154 -63h2v47h148v-485h-148v47h-2q-60 -63 -154 -63zM315 101q56 0 91 39.5t35 101.5q0 63 -35 102.5t-91 39.5q-57 0 -93 -39.5t-36 -102.5
q0 -62 36 -101.5t93 -39.5z" />
    <glyph glyph-name="acircumflex" unicode="&#xe2;" horiz-adv-x="654" 
d="M128 559l125 157h139l125 -157h-131l-63 73l-64 -73h-131zM288 -16q-109 0 -179 72.5t-70 185.5q0 114 69.5 186.5t179.5 72.5q95 0 154 -63h2v47h148v-485h-148v47h-2q-60 -63 -154 -63zM315 101q56 0 91 39.5t35 101.5q0 63 -35 102.5t-91 39.5q-57 0 -93 -39.5
t-36 -102.5q0 -62 36 -101.5t93 -39.5z" />
    <glyph glyph-name="atilde" unicode="&#xe3;" horiz-adv-x="654" 
d="M394 565q-38 0 -79.5 24t-51.5 24q-22 0 -29 -33h-109q3 63 35.5 101t90.5 38q41 0 81 -24t51 -24q21 0 27 33h108q2 -60 -32.5 -99.5t-91.5 -39.5zM288 -16q-109 0 -179 72.5t-70 185.5q0 114 69.5 186.5t179.5 72.5q95 0 154 -63h2v47h148v-485h-148v47h-2
q-60 -63 -154 -63zM315 101q56 0 91 39.5t35 101.5q0 63 -35 102.5t-91 39.5q-57 0 -93 -39.5t-36 -102.5q0 -62 36 -101.5t93 -39.5z" />
    <glyph glyph-name="adieresis" unicode="&#xe4;" horiz-adv-x="654" 
d="M127 725h164v-154h-164v154zM354 725h165v-154h-165v154zM288 -16q-109 0 -179 72.5t-70 185.5q0 114 69.5 186.5t179.5 72.5q95 0 154 -63h2v47h148v-485h-148v47h-2q-60 -63 -154 -63zM315 101q56 0 91 39.5t35 101.5q0 63 -35 102.5t-91 39.5q-57 0 -93 -39.5
t-36 -102.5q0 -62 36 -101.5t93 -39.5z" />
    <glyph glyph-name="aring" unicode="&#xe5;" horiz-adv-x="654" 
d="M324 551q-56 0 -91 30.5t-35 80.5q0 49 35 79.5t91 30.5t90 -30.5t34 -79.5q0 -50 -34 -80.5t-90 -30.5zM323 616q22 0 35.5 12.5t13.5 33.5q0 20 -13.5 33t-35.5 13q-21 0 -35 -13t-14 -33q0 -21 14 -33.5t35 -12.5zM288 -16q-109 0 -179 72.5t-70 185.5
q0 114 69.5 186.5t179.5 72.5q95 0 154 -63h2v47h148v-485h-148v47h-2q-60 -63 -154 -63zM315 101q56 0 91 39.5t35 101.5q0 63 -35 102.5t-91 39.5q-57 0 -93 -39.5t-36 -102.5q0 -62 36 -101.5t93 -39.5z" />
    <glyph glyph-name="ae" unicode="&#xe6;" horiz-adv-x="956" 
d="M916 238v-43h-381q12 -45 47 -71t82 -26q67 0 95 40h149q-20 -69 -88.5 -111.5t-158.5 -42.5q-136 0 -212 86q-72 -86 -219 -86q-87 0 -143 43.5t-56 111.5q0 67 52.5 104.5t145.5 37.5h147v17q0 90 -90 90q-72 0 -86 -61h-145q7 79 69.5 126.5t165.5 47.5q118 0 181 -63
q72 63 184 63q119 0 190 -70.5t71 -192.5zM533 284h240q-2 47 -33 76.5t-81 29.5q-49 0 -83.5 -29.5t-42.5 -76.5zM259 94q54 0 86 28t32 72h-141q-28 0 -45.5 -13t-17.5 -33q0 -25 23.5 -39.5t62.5 -14.5z" />
    <glyph glyph-name="ccedilla" unicode="&#xe7;" horiz-adv-x="608" 
d="M314 105q47 0 76 22.5t37 57.5h142q-9 -80 -63.5 -132t-139.5 -65l-55 -162h-124l43 168q-88 22 -139.5 87.5t-51.5 160.5q0 117 75.5 188t199.5 71q105 0 175 -55t80 -146h-142q-8 35 -37 57.5t-76 22.5q-59 0 -95 -38t-36 -100t36 -99.5t95 -37.5z" />
    <glyph glyph-name="egrave" unicode="&#xe8;" horiz-adv-x="607" 
d="M375 565h-131l-108 159h159l83 -155zM312 -16q-122 0 -197 71t-75 187q0 117 73.5 188t192.5 71t190 -70.5t71 -192.5v-43h-381q12 -45 47 -71t82 -26q67 0 95 40h149q-20 -69 -88.5 -111.5t-158.5 -42.5zM185 284h239q-2 47 -33 76.5t-81 29.5q-49 0 -83.5 -29.5
t-41.5 -76.5z" />
    <glyph glyph-name="eacute" unicode="&#xe9;" horiz-adv-x="607" 
d="M233 565l-3 4l83 155h159l-108 -159h-131zM312 -16q-122 0 -197 71t-75 187q0 117 73.5 188t192.5 71t190 -70.5t71 -192.5v-43h-381q12 -45 47 -71t82 -26q67 0 95 40h149q-20 -69 -88.5 -111.5t-158.5 -42.5zM185 284h239q-2 47 -33 76.5t-81 29.5q-49 0 -83.5 -29.5
t-41.5 -76.5z" />
    <glyph glyph-name="ecircumflex" unicode="&#xea;" horiz-adv-x="607" 
d="M109 559l125 157h139l125 -157h-131l-63 73l-64 -73h-131zM312 -16q-122 0 -197 71t-75 187q0 117 73.5 188t192.5 71t190 -70.5t71 -192.5v-43h-381q12 -45 47 -71t82 -26q67 0 95 40h149q-20 -69 -88.5 -111.5t-158.5 -42.5zM185 284h239q-2 47 -33 76.5t-81 29.5
q-49 0 -83.5 -29.5t-41.5 -76.5z" />
    <glyph glyph-name="edieresis" unicode="&#xeb;" horiz-adv-x="607" 
d="M108 725h164v-154h-164v154zM335 725h165v-154h-165v154zM312 -16q-122 0 -197 71t-75 187q0 117 73.5 188t192.5 71t190 -70.5t71 -192.5v-43h-381q12 -45 47 -71t82 -26q67 0 95 40h149q-20 -69 -88.5 -111.5t-158.5 -42.5zM185 284h239q-2 47 -33 76.5t-81 29.5
q-49 0 -83.5 -29.5t-41.5 -76.5z" />
    <glyph glyph-name="igrave" unicode="&#xec;" horiz-adv-x="276" 
d="M209 565h-131l-108 159h159l83 -155zM63 0v485h150v-485h-150z" />
    <glyph glyph-name="iacute" unicode="&#xed;" horiz-adv-x="276" 
d="M67 565l-3 4l83 155h159l-108 -159h-131zM63 0v485h150v-485h-150z" />
    <glyph glyph-name="icircumflex" unicode="&#xee;" horiz-adv-x="276" 
d="M-57 559l125 157h139l125 -157h-131l-63 73l-64 -73h-131zM63 0v485h150v-485h-150z" />
    <glyph glyph-name="idieresis" unicode="&#xef;" horiz-adv-x="276" 
d="M-58 725h164v-154h-164v154zM169 725h165v-154h-165v154zM63 0v485h150v-485h-150z" />
    <glyph glyph-name="eth" unicode="&#xf0;" horiz-adv-x="623" 
d="M429 601q77 -73 118 -164t41 -185q0 -121 -75 -194.5t-199 -73.5t-199.5 69.5t-75.5 184.5q0 113 76 183t199 70q31 0 61 -9q-30 40 -74 75l-159 -55l-32 81l100 34q-38 21 -99 49l132 55q53 -22 106 -56l105 36l32 -80zM314 108q58 0 94 36t36 94t-36 93.5t-94 35.5
q-59 0 -95 -35.5t-36 -93.5q0 -59 36 -94.5t95 -35.5z" />
    <glyph glyph-name="ntilde" unicode="&#xf1;" horiz-adv-x="634" 
d="M396 565q-38 0 -79.5 24t-51.5 24q-22 0 -29 -33h-109q3 63 35.5 101t90.5 38q41 0 81 -24t51 -24q21 0 27 33h108q2 -60 -32.5 -99.5t-91.5 -39.5zM63 0v485h148v-47h2q57 63 150 63q95 0 156 -62t61 -159v-280h-151v260q0 51 -28.5 82t-76.5 31q-50 0 -80.5 -29.5
t-30.5 -78.5v-265h-150z" />
    <glyph glyph-name="ograve" unicode="&#xf2;" horiz-adv-x="628" 
d="M385 565h-131l-108 159h159l83 -155zM314 -16q-124 0 -199.5 71t-75.5 187q0 117 75.5 188t199.5 71t199.5 -71t75.5 -188q0 -116 -75.5 -187t-199.5 -71zM314 108q59 0 95.5 36.5t36.5 97.5t-36.5 98t-95.5 37t-95.5 -37t-36.5 -98t36.5 -97.5t95.5 -36.5z" />
    <glyph glyph-name="oacute" unicode="&#xf3;" horiz-adv-x="628" 
d="M243 565l-3 4l83 155h159l-108 -159h-131zM314 -16q-124 0 -199.5 71t-75.5 187q0 117 75.5 188t199.5 71t199.5 -71t75.5 -188q0 -116 -75.5 -187t-199.5 -71zM314 108q59 0 95.5 36.5t36.5 97.5t-36.5 98t-95.5 37t-95.5 -37t-36.5 -98t36.5 -97.5t95.5 -36.5z" />
    <glyph glyph-name="ocircumflex" unicode="&#xf4;" horiz-adv-x="628" 
d="M119 559l125 157h139l125 -157h-131l-63 73l-64 -73h-131zM314 -16q-124 0 -199.5 71t-75.5 187q0 117 75.5 188t199.5 71t199.5 -71t75.5 -188q0 -116 -75.5 -187t-199.5 -71zM314 108q59 0 95.5 36.5t36.5 97.5t-36.5 98t-95.5 37t-95.5 -37t-36.5 -98t36.5 -97.5
t95.5 -36.5z" />
    <glyph glyph-name="otilde" unicode="&#xf5;" horiz-adv-x="628" 
d="M385 565q-38 0 -79.5 24t-51.5 24q-22 0 -29 -33h-109q3 63 35.5 101t90.5 38q31 0 57 -12t44.5 -24t30.5 -12q21 0 27 33h108q2 -60 -32.5 -99.5t-91.5 -39.5zM314 -16q-124 0 -199.5 71t-75.5 187q0 117 75.5 188t199.5 71t199.5 -71t75.5 -188q0 -116 -75.5 -187
t-199.5 -71zM314 108q59 0 95.5 36.5t36.5 97.5t-36.5 98t-95.5 37t-95.5 -37t-36.5 -98t36.5 -97.5t95.5 -36.5z" />
    <glyph glyph-name="odieresis" unicode="&#xf6;" horiz-adv-x="628" 
d="M118 725h164v-154h-164v154zM345 725h165v-154h-165v154zM314 -16q-124 0 -199.5 71t-75.5 187q0 117 75.5 188t199.5 71t199.5 -71t75.5 -188q0 -116 -75.5 -187t-199.5 -71zM314 108q59 0 95.5 36.5t36.5 97.5t-36.5 98t-95.5 37t-95.5 -37t-36.5 -98t36.5 -97.5
t95.5 -36.5z" />
    <glyph glyph-name="divide" unicode="&#xf7;" horiz-adv-x="715" 
d="M278 601h160v-150h-160v150zM101 270v115h513v-115h-513zM278 208h160v-149h-160v149z" />
    <glyph glyph-name="oslash" unicode="&#xf8;" horiz-adv-x="628" 
d="M524 419q65 -70 65 -177q0 -116 -75.5 -187t-199.5 -71q-85 0 -148 34l-38 -42l-61 48l37 41q-65 71 -65 177q0 117 75.5 188t199.5 71q85 0 149 -35l38 43l61 -48zM182 242q0 -40 17 -71l174 194q-27 12 -59 12q-59 0 -95.5 -37t-36.5 -98zM314 108q59 0 95.5 36.5
t36.5 97.5q0 40 -17 71l-173 -194q27 -11 58 -11z" />
    <glyph glyph-name="ugrave" unicode="&#xf9;" horiz-adv-x="624" 
d="M384 565h-131l-108 159h159l83 -155zM312 -16q-116 0 -187 62.5t-71 164.5v274h150v-260q0 -51 29.5 -82t78.5 -31t78.5 31t29.5 82v260h150v-274q0 -102 -71 -164.5t-187 -62.5z" />
    <glyph glyph-name="uacute" unicode="&#xfa;" horiz-adv-x="624" 
d="M242 565l-3 4l83 155h159l-108 -159h-131zM312 -16q-116 0 -187 62.5t-71 164.5v274h150v-260q0 -51 29.5 -82t78.5 -31t78.5 31t29.5 82v260h150v-274q0 -102 -71 -164.5t-187 -62.5z" />
    <glyph glyph-name="ucircumflex" unicode="&#xfb;" horiz-adv-x="624" 
d="M118 559l125 157h139l125 -157h-131l-63 73l-64 -73h-131zM312 -16q-116 0 -187 62.5t-71 164.5v274h150v-260q0 -51 29.5 -82t78.5 -31t78.5 31t29.5 82v260h150v-274q0 -102 -71 -164.5t-187 -62.5z" />
    <glyph glyph-name="udieresis" unicode="&#xfc;" horiz-adv-x="624" 
d="M117 725h164v-154h-164v154zM344 725h165v-154h-165v154zM312 -16q-116 0 -187 62.5t-71 164.5v274h150v-260q0 -51 29.5 -82t78.5 -31t78.5 31t29.5 82v260h150v-274q0 -102 -71 -164.5t-187 -62.5z" />
    <glyph glyph-name="yacute" unicode="&#xfd;" horiz-adv-x="664" 
d="M392 565h-131l-3 4l83 155h159zM487 485h159l-322 -717h-161l103 222l-247 495h160l161 -326h2z" />
    <glyph glyph-name="thorn" unicode="&#xfe;" horiz-adv-x="654" 
d="M63 -232v1004h150v-335h2q63 64 155 64q108 0 177 -72.5t69 -186.5q0 -115 -70.5 -187t-175.5 -72q-92 0 -155 65h-2v-280h-150zM340 101q56 0 92 39.5t36 101.5q0 63 -36 102.5t-92 39.5t-91.5 -39.5t-35.5 -102.5q0 -62 35.5 -101.5t91.5 -39.5z" />
    <glyph glyph-name="ydieresis" unicode="&#xff;" horiz-adv-x="664" 
d="M300 725v-154h-164v154h164zM528 725v-154h-165v154h165zM487 485h159l-322 -717h-161l103 222l-247 495h160l161 -326h2z" />
    <glyph glyph-name="Amacron" unicode="&#x100;" horiz-adv-x="801" 
d="M250 775v110h302v-110h-302zM15 0l312 700h149l310 -700h-167l-60 143h-315l-61 -143h-168zM296 272h210l-103 249h-3z" />
    <glyph glyph-name="amacron" unicode="&#x101;" horiz-adv-x="654" 
d="M172 579v110h302v-110h-302zM288 -16q-109 0 -179 72.5t-70 185.5q0 114 69.5 186.5t179.5 72.5q95 0 154 -63h2v47h148v-485h-148v47h-2q-60 -63 -154 -63zM315 101q56 0 91 39.5t35 101.5q0 63 -35 102.5t-91 39.5q-57 0 -93 -39.5t-36 -102.5q0 -62 36 -101.5
t93 -39.5z" />
    <glyph glyph-name="Abreve" unicode="&#x102;" horiz-adv-x="801" 
d="M472 931h104q-4 -72 -49.5 -117t-125.5 -45t-125.5 45t-49.5 117h104q9 -70 71 -70t71 70zM15 0l312 700h149l310 -700h-167l-60 143h-315l-61 -143h-168zM296 272h210l-103 249h-3z" />
    <glyph glyph-name="abreve" unicode="&#x103;" horiz-adv-x="654" 
d="M394 715h104q-4 -73 -49.5 -118t-125.5 -45t-125.5 45t-49.5 118h104q9 -71 71 -71t71 71zM288 -16q-109 0 -179 72.5t-70 185.5q0 114 69.5 186.5t179.5 72.5q95 0 154 -63h2v47h148v-485h-148v47h-2q-60 -63 -154 -63zM315 101q56 0 91 39.5t35 101.5q0 63 -35 102.5
t-91 39.5q-57 0 -93 -39.5t-36 -102.5q0 -62 36 -101.5t93 -39.5z" />
    <glyph glyph-name="Aogonek" unicode="&#x104;" horiz-adv-x="801" 
d="M799 -73l13 -108q-44 -11 -82 -11q-71 0 -117 31.5t-46 85.5t46 89l-54 129h-315l-61 -143h-168l312 700h149l310 -700h-26q-69 -11 -69 -47q0 -33 61 -33q22 0 47 7zM296 272h210l-103 249h-3z" />
    <glyph glyph-name="aogonek" unicode="&#x105;" horiz-adv-x="654" 
d="M625 -73l13 -108q-44 -11 -82 -11q-71 0 -117 31.5t-46 85.5q0 56 51 92v30h-2q-60 -63 -154 -63q-109 0 -179 72.5t-70 185.5q0 114 69.5 186.5t179.5 72.5q95 0 154 -63h2v47h148v-485h-6q-69 -11 -69 -47q0 -33 61 -33q22 0 47 7zM315 101q56 0 91 39.5t35 101.5
q0 63 -35 102.5t-91 39.5q-57 0 -93 -39.5t-36 -102.5q0 -62 36 -101.5t93 -39.5z" />
    <glyph glyph-name="Cacute" unicode="&#x106;" horiz-adv-x="834" 
d="M345 769l-3 4l83 155h159l-108 -159h-131zM427 124q76 0 127 40t70 110h162q-21 -133 -119 -211t-241 -78q-170 0 -274 101t-104 265t104 264.5t274 100.5q143 0 241 -78t119 -211h-162q-19 70 -69.5 110t-127.5 40q-99 0 -159.5 -62.5t-60.5 -163.5q0 -102 60.5 -164.5
t159.5 -62.5z" />
    <glyph glyph-name="cacute" unicode="&#x107;" horiz-adv-x="608" 
d="M231 565l-3 4l83 155h159l-108 -159h-131zM314 -16q-124 0 -199.5 71t-75.5 187q0 117 75.5 188t199.5 71q105 0 175 -55t80 -146h-142q-8 35 -37 57.5t-76 22.5q-59 0 -95 -38t-36 -100t36 -99.5t95 -37.5q47 0 76 22.5t37 57.5h142q-10 -92 -80 -146.5t-175 -54.5z" />
    <glyph glyph-name="Cdotaccent" unicode="&#x10a;" horiz-adv-x="834" 
d="M333 927h164v-153h-164v153zM427 124q76 0 127 40t70 110h162q-21 -133 -119 -211t-241 -78q-170 0 -274 101t-104 265t104 264.5t274 100.5q143 0 241 -78t119 -211h-162q-19 70 -69.5 110t-127.5 40q-99 0 -159.5 -62.5t-60.5 -163.5q0 -102 60.5 -164.5t159.5 -62.5z
" />
    <glyph glyph-name="cdotaccent" unicode="&#x10b;" horiz-adv-x="608" 
d="M219 725h164v-154h-164v154zM314 -16q-124 0 -199.5 71t-75.5 187q0 117 75.5 188t199.5 71q105 0 175 -55t80 -146h-142q-8 35 -37 57.5t-76 22.5q-59 0 -95 -38t-36 -100t36 -99.5t95 -37.5q47 0 76 22.5t37 57.5h142q-10 -92 -80 -146.5t-175 -54.5z" />
    <glyph glyph-name="Ccaron" unicode="&#x10c;" horiz-adv-x="834" 
d="M346 768l-125 156h131l64 -72l63 72h131l-125 -156h-139zM427 124q76 0 127 40t70 110h162q-21 -133 -119 -211t-241 -78q-170 0 -274 101t-104 265t104 264.5t274 100.5q143 0 241 -78t119 -211h-162q-19 70 -69.5 110t-127.5 40q-99 0 -159.5 -62.5t-60.5 -163.5
q0 -102 60.5 -164.5t159.5 -62.5z" />
    <glyph glyph-name="ccaron" unicode="&#x10d;" horiz-adv-x="608" 
d="M232 559l-125 157h131l64 -73l63 73h131l-125 -157h-139zM314 -16q-124 0 -199.5 71t-75.5 187q0 117 75.5 188t199.5 71q105 0 175 -55t80 -146h-142q-8 35 -37 57.5t-76 22.5q-59 0 -95 -38t-36 -100t36 -99.5t95 -37.5q47 0 76 22.5t37 57.5h142q-10 -92 -80 -146.5
t-175 -54.5z" />
    <glyph glyph-name="Dcaron" unicode="&#x10e;" horiz-adv-x="783" 
d="M322 768l-125 156h131l64 -72l63 72h131l-125 -156h-139zM343 700q179 0 285.5 -95.5t106.5 -254.5t-106.5 -254.5t-285.5 -95.5h-277v700h277zM332 134q110 0 176.5 59.5t66.5 156.5t-66.5 156.5t-176.5 59.5h-109v-432h109z" />
    <glyph glyph-name="dcaron" unicode="&#x10f;" horiz-adv-x="654" 
d="M286 501q96 0 153 -63h2v334h151v-772h-148v47h-2q-62 -63 -154 -63q-109 0 -179 72.5t-70 185.5q0 114 69 186.5t178 72.5zM657 571l6 201h140l-40 -201h-106zM315 101q56 0 91 39.5t35 101.5q0 63 -35 102.5t-91 39.5q-57 0 -93 -39.5t-36 -102.5q0 -62 36 -101.5
t93 -39.5z" />
    <glyph glyph-name="Dcroat" unicode="&#x110;" horiz-adv-x="783" 
d="M343 700q179 0 285.5 -95.5t106.5 -254.5t-106.5 -254.5t-285.5 -95.5h-277v286h-59v129h59v285h277zM332 134q110 0 176.5 59.5t66.5 156.5t-66.5 156.5t-176.5 59.5h-109v-151h135v-129h-135v-152h109z" />
    <glyph glyph-name="dcroat" unicode="&#x111;" horiz-adv-x="711" 
d="M631 653v-103h-39v-550h-148v47h-2q-62 -63 -154 -63q-109 0 -179 72.5t-70 185.5q0 114 69 186.5t178 72.5q96 0 153 -63h2v112h-167v103h167v119h151v-119h39zM315 101q56 0 91 39.5t35 101.5q0 63 -35 102.5t-91 39.5q-57 0 -93 -39.5t-36 -102.5q0 -62 36 -101.5
t93 -39.5z" />
    <glyph glyph-name="Emacron" unicode="&#x112;" horiz-adv-x="642" 
d="M195 775v110h302v-110h-302zM602 570h-379v-159h332v-129h-332v-152h379v-130h-536v700h536v-130z" />
    <glyph glyph-name="emacron" unicode="&#x113;" horiz-adv-x="607" 
d="M153 579v110h302v-110h-302zM312 -16q-122 0 -197 71t-75 187q0 117 73.5 188t192.5 71t190 -70.5t71 -192.5v-43h-381q12 -45 47 -71t82 -26q67 0 95 40h149q-20 -69 -88.5 -111.5t-158.5 -42.5zM185 284h239q-2 47 -33 76.5t-81 29.5q-49 0 -83.5 -29.5t-41.5 -76.5z
" />
    <glyph glyph-name="Edotaccent" unicode="&#x116;" horiz-adv-x="642" 
d="M263 927h164v-153h-164v153zM602 570h-379v-159h332v-129h-332v-152h379v-130h-536v700h536v-130z" />
    <glyph glyph-name="edotaccent" unicode="&#x117;" horiz-adv-x="607" 
d="M221 725h164v-154h-164v154zM312 -16q-122 0 -197 71t-75 187q0 117 73.5 188t192.5 71t190 -70.5t71 -192.5v-43h-381q12 -45 47 -71t82 -26q67 0 95 40h149q-20 -69 -88.5 -111.5t-158.5 -42.5zM185 284h239q-2 47 -33 76.5t-81 29.5q-49 0 -83.5 -29.5t-41.5 -76.5z
" />
    <glyph glyph-name="Eogonek" unicode="&#x118;" horiz-adv-x="642" 
d="M594 -73l13 -108q-44 -11 -82 -11q-71 0 -117 31.5t-46 85.5q0 44 31 75h-327v700h536v-130h-379v-159h332v-129h-332v-152h379v-130h-47q-69 -11 -69 -47q0 -33 61 -33q23 0 47 7z" />
    <glyph glyph-name="eogonek" unicode="&#x119;" horiz-adv-x="607" 
d="M567 238v-43h-381q12 -45 47 -71t82 -26q67 0 95 40h149q-14 -48 -52.5 -84t-92.5 -54h-1q-13 -5 -36 -10q-32 -12 -32 -37q0 -33 61 -33q22 0 47 7l13 -108q-44 -11 -82 -11q-71 0 -117 31.5t-46 85.5q0 36 22 66q-94 19 -148.5 86t-54.5 165q0 117 73.5 188t192.5 71
t190 -70.5t71 -192.5zM185 284h239q-2 47 -33 76.5t-81 29.5q-49 0 -83.5 -29.5t-41.5 -76.5z" />
    <glyph glyph-name="Ecaron" unicode="&#x11a;" horiz-adv-x="642" 
d="M276 768l-125 156h131l64 -72l63 72h131l-125 -156h-139zM602 570h-379v-159h332v-129h-332v-152h379v-130h-536v700h536v-130z" />
    <glyph glyph-name="ecaron" unicode="&#x11b;" horiz-adv-x="607" 
d="M234 559l-125 157h131l64 -73l63 73h131l-125 -157h-139zM312 -16q-122 0 -197 71t-75 187q0 117 73.5 188t192.5 71t190 -70.5t71 -192.5v-43h-381q12 -45 47 -71t82 -26q67 0 95 40h149q-20 -69 -88.5 -111.5t-158.5 -42.5zM185 284h239q-2 47 -33 76.5t-81 29.5
q-49 0 -83.5 -29.5t-41.5 -76.5z" />
    <glyph glyph-name="Gbreve" unicode="&#x11e;" horiz-adv-x="842" 
d="M494 931h104q-4 -72 -49.5 -117t-125.5 -45t-125.5 45t-49.5 117h104q9 -70 71 -70t71 70zM425 -15q-169 0 -273 101t-104 265t103.5 264.5t273.5 100.5q146 0 240 -72t123 -187h-164q-23 58 -75.5 89t-121.5 31q-99 0 -159.5 -62.5t-60.5 -163.5q0 -103 61 -165.5
t159 -62.5q73 0 124.5 35.5t67.5 96.5h-203v123h378q1 -187 -95.5 -290t-273.5 -103z" />
    <glyph glyph-name="gbreve" unicode="&#x11f;" horiz-adv-x="658" 
d="M396 715h104q-4 -73 -49.5 -118t-125.5 -45t-125.5 45t-49.5 118h104q9 -71 71 -71t71 71zM448 485h148v-497q0 -106 -74 -171.5t-194 -65.5q-116 0 -188.5 55t-83.5 147h151q8 -37 39 -58.5t81 -21.5q53 0 85.5 31t32.5 83v62h-2q-61 -63 -153 -63q-109 0 -178 72.5
t-69 185.5t69.5 185t178.5 72q92 0 154 -62h3v46zM319 104q56 0 91 39t35 101t-35.5 101t-90.5 39q-56 0 -92.5 -39.5t-36.5 -100.5q0 -62 36 -101t93 -39z" />
    <glyph glyph-name="Gdotaccent" unicode="&#x120;" horiz-adv-x="842" 
d="M340 927h164v-153h-164v153zM425 -15q-169 0 -273 101t-104 265t103.5 264.5t273.5 100.5q146 0 240 -72t123 -187h-164q-23 58 -75.5 89t-121.5 31q-99 0 -159.5 -62.5t-60.5 -163.5q0 -103 61 -165.5t159 -62.5q73 0 124.5 35.5t67.5 96.5h-203v123h378
q1 -187 -95.5 -290t-273.5 -103z" />
    <glyph glyph-name="gdotaccent" unicode="&#x121;" horiz-adv-x="658" 
d="M242 725h164v-154h-164v154zM448 485h148v-497q0 -106 -74 -171.5t-194 -65.5q-116 0 -188.5 55t-83.5 147h151q8 -37 39 -58.5t81 -21.5q53 0 85.5 31t32.5 83v62h-2q-61 -63 -153 -63q-109 0 -178 72.5t-69 185.5t69.5 185t178.5 72q92 0 154 -62h3v46zM319 104
q56 0 91 39t35 101t-35.5 101t-90.5 39q-56 0 -92.5 -39.5t-36.5 -100.5q0 -62 36 -101t93 -39z" />
    <glyph glyph-name="Gcommaaccent" unicode="&#x122;" horiz-adv-x="842" 
d="M425 -15q-169 0 -273 101t-104 265t103.5 264.5t273.5 100.5q146 0 240 -72t123 -187h-164q-23 58 -75.5 89t-121.5 31q-99 0 -159.5 -62.5t-60.5 -163.5q0 -103 61 -165.5t159 -62.5q73 0 124.5 35.5t67.5 96.5h-203v123h378q1 -187 -95.5 -290t-273.5 -103zM345 -49
h164v-80q0 -78 -36 -114t-126 -48l-13 63q48 13 62.5 25t16.5 37h-68v117z" />
    <glyph glyph-name="gcommaaccent" unicode="&#x123;" horiz-adv-x="658" 
d="M405 572h-164v80q0 78 36 114t126 48l13 -63q-48 -13 -62.5 -25t-16.5 -37h68v-117zM448 485h148v-497q0 -106 -74 -171.5t-194 -65.5q-116 0 -188.5 55t-83.5 147h151q8 -37 39 -58.5t81 -21.5q53 0 85.5 31t32.5 83v62h-2q-61 -63 -153 -63q-109 0 -178 72.5t-69 185.5
t69.5 185t178.5 72q92 0 154 -62h3v46zM319 104q56 0 91 39t35 101t-35.5 101t-90.5 39q-56 0 -92.5 -39.5t-36.5 -100.5q0 -62 36 -101t93 -39z" />
    <glyph glyph-name="Hbar" unicode="&#x126;" horiz-adv-x="770" 
d="M547 700h157v-700h-157v280h-324v-280h-157v700h157v-96h324v96zM223 413h324v86h-324v-86z" />
    <glyph glyph-name="hbar" unicode="&#x127;" horiz-adv-x="699" 
d="M367 501q94 0 153.5 -62t59.5 -159v-280h-151v260q0 51 -28.5 82t-76.5 31q-50 0 -80.5 -29.5t-30.5 -78.5v-265h-150v576h-41v87h41v109h150v-109h135v-87h-135v-138h2q60 63 152 63z" />
    <glyph glyph-name="Itilde" unicode="&#x128;" horiz-adv-x="289" 
d="M216 780q-38 0 -79.5 23.5t-51.5 23.5q-22 0 -29 -32h-109q3 62 35.5 100t90.5 38q41 0 81 -23.5t51 -23.5q21 0 27 33h108q2 -60 -32.5 -99.5t-91.5 -39.5zM66 0v700h157v-700h-157z" />
    <glyph glyph-name="itilde" unicode="&#x129;" horiz-adv-x="276" 
d="M209 565q-38 0 -79.5 24t-51.5 24q-22 0 -29 -33h-109q3 63 35.5 101t90.5 38q31 0 57 -12t44.5 -24t30.5 -12q21 0 27 33h108q2 -60 -32.5 -99.5t-91.5 -39.5zM63 0v485h150v-485h-150z" />
    <glyph glyph-name="Imacron" unicode="&#x12a;" horiz-adv-x="289" 
d="M-6 775v110h302v-110h-302zM66 0v700h157v-700h-157z" />
    <glyph glyph-name="imacron" unicode="&#x12b;" horiz-adv-x="276" 
d="M-13 579v110h302v-110h-302zM63 0v485h150v-485h-150z" />
    <glyph glyph-name="Iogonek" unicode="&#x12e;" horiz-adv-x="289" 
d="M248 -73l13 -108q-44 -11 -82 -11q-71 0 -117 31.5t-46 85.5q0 57 50 91v684h157v-700h-14q-69 -11 -69 -47q0 -33 61 -33q23 0 47 7z" />
    <glyph glyph-name="iogonek" unicode="&#x12f;" horiz-adv-x="276" 
d="M215 772v-137h-154v137h154zM250 -73l13 -108q-44 -11 -82 -11q-71 0 -117 31.5t-46 85.5t45 88v472h150v-485h-2q-69 -11 -69 -47q0 -33 61 -33q23 0 47 7z" />
    <glyph glyph-name="Idotaccent" unicode="&#x130;" horiz-adv-x="289" 
d="M62 927h164v-153h-164v153zM66 0v700h157v-700h-157z" />
    <glyph glyph-name="dotlessi" unicode="&#x131;" horiz-adv-x="276" 
d="M63 0v485h150v-485h-150z" />
    <glyph glyph-name="IJ" unicode="&#x132;" horiz-adv-x="936" 
d="M66 0v700h157v-700h-157zM587 -16q-120 0 -195.5 64.5t-85.5 181.5h155q18 -111 134 -111q56 0 91 39t35 103v306h-312v133h471v-437q0 -133 -77 -206t-216 -73z" />
    <glyph glyph-name="ij" unicode="&#x133;" horiz-adv-x="555" 
d="M61 635v137h154v-137h-154zM340 635v137h154v-137h-154zM63 0v485h150v-485h-150zM245 -249v121l12 2q46 6 65.5 24t19.5 65v522h151v-506q0 -118 -54 -173t-168 -55h-26z" />
    <glyph glyph-name="Kcommaaccent" unicode="&#x136;" horiz-adv-x="763" 
d="M401 350l350 -350h-198l-330 327v-327h-157v700h157v-337l308 337h189zM292 -166v117h164v-80q0 -78 -36 -114t-126 -48l-13 63q48 13 62.5 25t16.5 37h-68z" />
    <glyph glyph-name="kcommaaccent" unicode="&#x137;" horiz-adv-x="628" 
d="M63 0v772h150v-530l206 243h171l-205 -243l235 -242h-188l-219 225v-225h-150zM223 -49h164v-80q0 -78 -36 -114t-126 -48l-13 63q48 13 62.5 25t16.5 37h-68v117z" />
    <glyph glyph-name="kgreenlandic" unicode="&#x138;" horiz-adv-x="628" 
d="M63 0v485h150v-243l206 243h171l-205 -243l235 -242h-188l-219 225v-225h-150z" />
    <glyph glyph-name="Lacute" unicode="&#x139;" horiz-adv-x="612" 
d="M74 769l-3 4l83 155h159l-108 -159h-131zM223 130h366v-130h-523v700h157v-570z" />
    <glyph glyph-name="lacute" unicode="&#x13a;" horiz-adv-x="276" 
d="M67 841l-3 4l83 155h159l-108 -159h-131zM63 0v772h150v-772h-150z" />
    <glyph glyph-name="Lcommaaccent" unicode="&#x13b;" horiz-adv-x="612" 
d="M223 130h366v-130h-523v700h157v-570zM239 -49h164v-80q0 -78 -36 -114t-126 -48l-13 63q48 13 62.5 25t16.5 37h-68v117z" />
    <glyph glyph-name="lcommaaccent" unicode="&#x13c;" horiz-adv-x="276" 
d="M63 0v772h150v-772h-150zM56 -49h164v-80q0 -78 -36 -114t-126 -48l-13 63q48 13 62.5 25t16.5 37h-68v117z" />
    <glyph glyph-name="Lcaron" unicode="&#x13d;" horiz-adv-x="612" 
d="M223 130h366v-130h-523v700h157v-570zM369 498l6 201h140l-40 -201h-106z" />
    <glyph glyph-name="lcaron" unicode="&#x13e;" horiz-adv-x="276" 
d="M63 0v772h150v-772h-150zM280 571l6 201h140l-40 -201h-106z" />
    <glyph glyph-name="Ldot" unicode="&#x13f;" horiz-adv-x="612" 
d="M223 130h366v-130h-523v700h157v-570zM338 441h167v-158h-167v158z" />
    <glyph glyph-name="ldot" unicode="&#x140;" horiz-adv-x="276" 
d="M63 0v772h150v-772h-150zM254 376h167v-158h-167v158z" />
    <glyph glyph-name="Lslash" unicode="&#x141;" horiz-adv-x="612" 
d="M223 130h366v-130h-523v252l-60 -22v120l60 22v328h157v-272l163 59v-119l-163 -59v-179z" />
    <glyph glyph-name="lslash" unicode="&#x142;" horiz-adv-x="276" 
d="M276 481v-131l-63 -23v-327h-150v271l-63 -23v132l63 23v369h150v-314z" />
    <glyph glyph-name="Nacute" unicode="&#x143;" horiz-adv-x="784" 
d="M321 769l-3 4l83 155h159l-108 -159h-131zM561 700h157v-700h-126l-369 429v-429h-157v700h123l372 -439v439z" />
    <glyph glyph-name="nacute" unicode="&#x144;" horiz-adv-x="634" 
d="M254 565l-3 4l83 155h159l-108 -159h-131zM63 0v485h148v-47h2q57 63 150 63q95 0 156 -62t61 -159v-280h-151v260q0 51 -28.5 82t-76.5 31q-50 0 -80.5 -29.5t-30.5 -78.5v-265h-150z" />
    <glyph glyph-name="Ncommaaccent" unicode="&#x145;" horiz-adv-x="784" 
d="M561 700h157v-700h-126l-369 429v-429h-157v700h123l372 -439v439zM311 -49h164v-80q0 -78 -36 -114t-126 -48l-13 63q48 13 62.5 25t16.5 37h-68v117z" />
    <glyph glyph-name="ncommaaccent" unicode="&#x146;" horiz-adv-x="634" 
d="M63 0v485h148v-47h2q57 63 150 63q95 0 156 -62t61 -159v-280h-151v260q0 51 -28.5 82t-76.5 31q-50 0 -80.5 -29.5t-30.5 -78.5v-265h-150zM243 -49h164v-80q0 -78 -36 -114t-126 -48l-13 63q48 13 62.5 25t16.5 37h-68v117z" />
    <glyph glyph-name="Ncaron" unicode="&#x147;" horiz-adv-x="784" 
d="M322 768l-125 156h131l64 -72l63 72h131l-125 -156h-139zM561 700h157v-700h-126l-369 429v-429h-157v700h123l372 -439v439z" />
    <glyph glyph-name="ncaron" unicode="&#x148;" horiz-adv-x="634" 
d="M255 559l-125 157h131l64 -73l63 73h131l-125 -157h-139zM63 0v485h148v-47h2q57 63 150 63q95 0 156 -62t61 -159v-280h-151v260q0 51 -28.5 82t-76.5 31q-50 0 -80.5 -29.5t-30.5 -78.5v-265h-150z" />
    <glyph glyph-name="Eng" unicode="&#x14a;" horiz-adv-x="784" 
d="M561 700h157v-666q0 -136 -77.5 -209.5t-218.5 -73.5q-64 0 -135 22l19 127q57 -13 100 -13q73 0 113 36.5t40 108.5v6l-336 391v-429h-157v700h123l372 -439v439z" />
    <glyph glyph-name="eng" unicode="&#x14b;" horiz-adv-x="640" 
d="M333 -249v121l11 2q46 6 65.5 24t19.5 64v298q0 51 -28.5 82t-76.5 31q-50 0 -80.5 -29.5t-30.5 -78.5v-265h-150v485h148v-47h2q57 63 150 63q95 0 156 -62t61 -159v-302q0 -117 -53.5 -172t-167.5 -55h-26z" />
    <glyph glyph-name="Omacron" unicode="&#x14c;" horiz-adv-x="857" 
d="M278 775v110h302v-110h-302zM429 -15q-169 0 -275 102t-106 263t106 263t275 102q168 0 274.5 -102t106.5 -263t-106.5 -263t-274.5 -102zM429 121q98 0 160 64t62 165t-62 165t-160 64t-160 -64t-62 -165t62 -165t160 -64z" />
    <glyph glyph-name="omacron" unicode="&#x14d;" horiz-adv-x="628" 
d="M163 579v110h302v-110h-302zM314 -16q-124 0 -199.5 71t-75.5 187q0 117 75.5 188t199.5 71t199.5 -71t75.5 -188q0 -116 -75.5 -187t-199.5 -71zM314 108q59 0 95.5 36.5t36.5 97.5t-36.5 98t-95.5 37t-95.5 -37t-36.5 -98t36.5 -97.5t95.5 -36.5z" />
    <glyph glyph-name="Ohungarumlaut" unicode="&#x150;" horiz-adv-x="857" 
d="M290 780l-2 4l61 155h138l-83 -159h-114zM456 780l-3 4l62 155h137l-82 -159h-114zM429 -15q-169 0 -275 102t-106 263t106 263t275 102q168 0 274.5 -102t106.5 -263t-106.5 -263t-274.5 -102zM429 121q98 0 160 64t62 165t-62 165t-160 64t-160 -64t-62 -165t62 -165
t160 -64z" />
    <glyph glyph-name="ohungarumlaut" unicode="&#x151;" horiz-adv-x="628" 
d="M175 565l-2 3l61 156h138l-83 -159h-114zM341 565l-3 3l62 156h137l-82 -159h-114zM314 -16q-124 0 -199.5 71t-75.5 187q0 117 75.5 188t199.5 71t199.5 -71t75.5 -188q0 -116 -75.5 -187t-199.5 -71zM314 108q59 0 95.5 36.5t36.5 97.5t-36.5 98t-95.5 37t-95.5 -37
t-36.5 -98t36.5 -97.5t95.5 -36.5z" />
    <glyph glyph-name="OE" unicode="&#x152;" horiz-adv-x="1046" 
d="M421 0q-178 0 -285 95.5t-107 254.5t107 254.5t285 95.5h585v-130h-379v-159h332v-129h-332v-152h379v-130h-585zM432 134h38v432h-38q-110 0 -176.5 -59.5t-66.5 -156.5t66.5 -156.5t176.5 -59.5z" />
    <glyph glyph-name="oe" unicode="&#x153;" horiz-adv-x="1013" 
d="M973 238v-43h-381q12 -45 47 -71t82 -26q67 0 95 40h149q-20 -69 -88.5 -111.5t-158.5 -42.5q-125 0 -201 74q-76 -74 -203 -74q-124 0 -199.5 71t-75.5 187q0 117 75.5 188t199.5 71q126 0 202 -74q74 74 196 74q119 0 190 -70.5t71 -192.5zM590 284h240q-2 47 -33 76.5
t-81 29.5q-49 0 -83.5 -29.5t-42.5 -76.5zM314 108q59 0 95.5 36.5t36.5 97.5t-36.5 98t-95.5 37t-95.5 -37t-36.5 -98t36.5 -97.5t95.5 -36.5z" />
    <glyph glyph-name="Racute" unicode="&#x154;" horiz-adv-x="738" 
d="M422 769h-131l-3 4l83 155h159zM716 0h-188l-174 245h-131v-245h-157v700h312q130 0 207 -62t77 -166q0 -69 -37.5 -121t-106.5 -79zM223 569v-193h133q70 0 110 25.5t40 70.5q0 46 -37.5 71.5t-104.5 25.5h-141z" />
    <glyph glyph-name="racute" unicode="&#x155;" horiz-adv-x="419" 
d="M139 565l-3 4l83 155h159l-108 -159h-131zM63 0v485h148v-58h2q43 74 131 74q32 0 52 -6v-136q-27 6 -50 6q-62 0 -97.5 -37t-35.5 -104v-224h-150z" />
    <glyph glyph-name="Rcommaaccent" unicode="&#x156;" horiz-adv-x="738" 
d="M518 272l198 -272h-188l-174 245h-131v-245h-157v700h312q130 0 207 -62t77 -166q0 -69 -37.5 -121t-106.5 -79zM223 569v-193h133q70 0 110 25.5t40 70.5q0 46 -37.5 71.5t-104.5 25.5h-141zM280 -166v117h164v-80q0 -78 -36 -114t-126 -48l-13 63q48 13 62.5 25
t16.5 37h-68z" />
    <glyph glyph-name="rcommaaccent" unicode="&#x157;" horiz-adv-x="419" 
d="M63 0v485h148v-58h2q43 74 131 74q32 0 52 -6v-136q-27 6 -50 6q-62 0 -97.5 -37t-35.5 -104v-224h-150zM57 -49h164v-80q0 -78 -36 -114t-126 -48l-13 63q48 13 62.5 25t16.5 37h-68v117z" />
    <glyph glyph-name="Rcaron" unicode="&#x158;" horiz-adv-x="738" 
d="M431 768h-139l-125 156h131l64 -72l63 72h131zM716 0h-188l-174 245h-131v-245h-157v700h312q130 0 207 -62t77 -166q0 -69 -37.5 -121t-106.5 -79zM223 569v-193h133q70 0 110 25.5t40 70.5q0 46 -37.5 71.5t-104.5 25.5h-141z" />
    <glyph glyph-name="rcaron" unicode="&#x159;" horiz-adv-x="419" 
d="M140 559l-125 157h131l64 -73l63 73h131l-125 -157h-139zM63 0v485h148v-58h2q43 74 131 74q32 0 52 -6v-136q-27 6 -50 6q-62 0 -97.5 -37t-35.5 -104v-224h-150z" />
    <glyph glyph-name="Sacute" unicode="&#x15a;" horiz-adv-x="708" 
d="M284 769l-3 4l83 155h159l-108 -159h-131zM369 -15q-140 0 -226.5 63.5t-99.5 174.5h156q11 -49 55.5 -80.5t115.5 -31.5q55 0 88 21.5t32 56.5q0 31 -23.5 50t-60 28t-81 16t-89 20t-81.5 33.5t-60.5 62t-24.5 100.5q-1 98 75.5 157.5t202.5 59.5t210 -60t94 -160h-158
q-10 43 -44 69.5t-92 26.5q-54 0 -86.5 -22.5t-31.5 -60.5q0 -37 31 -58.5t77 -29t99.5 -20t99.5 -30t77 -60.5t32 -109q1 -98 -77.5 -157.5t-209.5 -59.5z" />
    <glyph glyph-name="sacute" unicode="&#x15b;" horiz-adv-x="547" 
d="M204 565l-3 4l83 155h159l-108 -159h-131zM276 -16q-110 0 -177 48t-71 129h134q12 -69 118 -69q37 0 59 12t22 32q0 26 -32 37.5t-78 17t-92 16.5t-78 45t-32 92q0 71 61 114t161 43q98 0 162 -42.5t72 -121.5h-136q-5 29 -34 45t-67 16q-32 0 -53 -11.5t-21 -32.5
q0 -22 23.5 -35t58.5 -17t75.5 -12.5t75.5 -21t58.5 -44.5t23.5 -81q0 -75 -62 -117t-171 -42z" />
    <glyph glyph-name="Scedilla" unicode="&#x15e;" horiz-adv-x="708" 
d="M656 202q1 -88 -63 -146t-174 -69l-55 -161h-124l42 166q-103 18 -166 78.5t-73 152.5h156q11 -49 55.5 -80.5t115.5 -31.5q55 0 88 21.5t32 56.5q0 31 -23.5 50t-60 28t-81 16t-89 20t-81.5 33.5t-60.5 62t-24.5 100.5q-1 98 75.5 157.5t202.5 59.5t210 -60t94 -160
h-158q-10 43 -44 69.5t-92 26.5q-54 0 -86.5 -22.5t-31.5 -60.5q0 -37 31 -58.5t77 -29t99.5 -20t99.5 -30t77 -60.5t32 -109z" />
    <glyph glyph-name="scedilla" unicode="&#x15f;" horiz-adv-x="547" 
d="M509 143q0 -63 -44.5 -103.5t-125.5 -51.5l-55 -162h-124l42 165q-79 14 -125 59t-49 111h134q12 -69 118 -69q37 0 59 12t22 32q0 26 -32 37.5t-78 17t-92 16.5t-78 45t-32 92q0 71 61 114t161 43q98 0 162 -42.5t72 -121.5h-136q-5 29 -34 45t-67 16q-32 0 -53 -11.5
t-21 -32.5q0 -22 23.5 -35t58.5 -17t75.5 -12.5t75.5 -21t58.5 -44.5t23.5 -81z" />
    <glyph glyph-name="Scaron" unicode="&#x160;" horiz-adv-x="708" 
d="M285 768l-125 156h131l64 -72l63 72h131l-125 -156h-139zM369 -15q-140 0 -226.5 63.5t-99.5 174.5h156q11 -49 55.5 -80.5t115.5 -31.5q55 0 88 21.5t32 56.5q0 31 -23.5 50t-60 28t-81 16t-89 20t-81.5 33.5t-60.5 62t-24.5 100.5q-1 98 75.5 157.5t202.5 59.5t210 -60
t94 -160h-158q-10 43 -44 69.5t-92 26.5q-54 0 -86.5 -22.5t-31.5 -60.5q0 -37 31 -58.5t77 -29t99.5 -20t99.5 -30t77 -60.5t32 -109q1 -98 -77.5 -157.5t-209.5 -59.5z" />
    <glyph glyph-name="scaron" unicode="&#x161;" horiz-adv-x="547" 
d="M205 559l-125 157h131l64 -73l63 73h131l-125 -157h-139zM276 -16q-110 0 -177 48t-71 129h134q12 -69 118 -69q37 0 59 12t22 32q0 26 -32 37.5t-78 17t-92 16.5t-78 45t-32 92q0 71 61 114t161 43q98 0 162 -42.5t72 -121.5h-136q-5 29 -34 45t-67 16q-32 0 -53 -11.5
t-21 -32.5q0 -22 23.5 -35t58.5 -17t75.5 -12.5t75.5 -21t58.5 -44.5t23.5 -81q0 -75 -62 -117t-171 -42z" />
    <glyph glyph-name="uni0162" unicode="&#x162;" horiz-adv-x="686" 
d="M26 700h633v-133h-238v-567h-13l-59 -174h-124l44 174h-5v567h-238v133z" />
    <glyph glyph-name="uni0163" unicode="&#x163;" horiz-adv-x="469" 
d="M424 364h-158v-168q0 -40 23 -61t67 -21q8 0 68 5v-123q-33 -9 -72 -11l-54 -159h-124l46 181q-49 23 -76.5 68t-27.5 104v185h-111v121h111v154h150v-154h158v-121z" />
    <glyph glyph-name="Tcaron" unicode="&#x164;" horiz-adv-x="686" 
d="M273 768l-125 156h131l64 -72l63 72h131l-125 -156h-139zM659 700v-133h-238v-567h-157v567h-238v133h633z" />
    <glyph glyph-name="tcaron" unicode="&#x165;" horiz-adv-x="469" 
d="M327 563l6 201h140l-40 -201h-106zM329 -16q-96 0 -154.5 53.5t-58.5 141.5v185h-111v121h111v154h150v-154h158v-121h-158v-168q0 -40 23 -61t67 -21q8 0 68 5v-123q-42 -12 -95 -12z" />
    <glyph glyph-name="Tbar" unicode="&#x166;" horiz-adv-x="686" 
d="M659 567h-238v-104h155v-105h-155v-358h-157v358h-154v105h154v104h-238v133h633v-133z" />
    <glyph glyph-name="tbar" unicode="&#x167;" horiz-adv-x="488" 
d="M424 364h-158v-53h158v-78h-158v-37q0 -40 23 -61t67 -21q8 0 68 5v-123q-42 -12 -95 -12q-96 0 -154.5 53.5t-58.5 141.5v54h-111v78h111v53h-111v121h111v154h150v-154h158v-121z" />
    <glyph glyph-name="Utilde" unicode="&#x168;" horiz-adv-x="771" 
d="M457 780q-38 0 -79.5 23.5t-51.5 23.5q-22 0 -29 -32h-109q3 62 35.5 100t90.5 38q40 0 81 -23.5t51 -23.5q21 0 27 33h108q2 -60 -32.5 -99.5t-91.5 -39.5zM385 -16q-151 0 -240 87t-89 236v393h158v-395q0 -83 47 -133t124 -50q78 0 125 50t47 133v395h158v-393
q0 -149 -89 -236t-241 -87z" />
    <glyph glyph-name="utilde" unicode="&#x169;" horiz-adv-x="624" 
d="M384 565q-38 0 -79.5 24t-51.5 24q-22 0 -29 -33h-109q3 63 35.5 101t90.5 38q41 0 81 -24t51 -24q21 0 27 33h108q2 -60 -32.5 -99.5t-91.5 -39.5zM312 -16q-116 0 -187 62.5t-71 164.5v274h150v-260q0 -51 29.5 -82t78.5 -31t78.5 31t29.5 82v260h150v-274
q0 -102 -71 -164.5t-187 -62.5z" />
    <glyph glyph-name="Umacron" unicode="&#x16a;" horiz-adv-x="771" 
d="M235 775v110h302v-110h-302zM385 -16q-151 0 -240 87t-89 236v393h158v-395q0 -83 47 -133t124 -50q78 0 125 50t47 133v395h158v-393q0 -149 -89 -236t-241 -87z" />
    <glyph glyph-name="umacron" unicode="&#x16b;" horiz-adv-x="624" 
d="M162 579v110h302v-110h-302zM312 -16q-116 0 -187 62.5t-71 164.5v274h150v-260q0 -51 29.5 -82t78.5 -31t78.5 31t29.5 82v260h150v-274q0 -102 -71 -164.5t-187 -62.5z" />
    <glyph glyph-name="Uring" unicode="&#x16e;" horiz-adv-x="771" 
d="M387 776q-56 0 -91 30.5t-35 80.5t35 80.5t91 30.5t90 -30.5t34 -80.5t-34.5 -80.5t-89.5 -30.5zM386 841q22 0 35.5 13t13.5 33q0 21 -13.5 33.5t-35.5 12.5q-21 0 -35 -12.5t-14 -33.5q0 -20 14 -33t35 -13zM385 -16q-151 0 -240 87t-89 236v393h158v-395
q0 -83 47 -133t124 -50q78 0 125 50t47 133v395h158v-393q0 -149 -89 -236t-241 -87z" />
    <glyph glyph-name="uring" unicode="&#x16f;" horiz-adv-x="624" 
d="M314 551q-56 0 -91 30.5t-35 80.5q0 49 35 79.5t91 30.5t90 -30.5t34 -79.5q0 -50 -34 -80.5t-90 -30.5zM313 616q22 0 35.5 12.5t13.5 33.5q0 20 -13.5 33t-35.5 13q-21 0 -35 -13t-14 -33q0 -21 14 -33.5t35 -12.5zM312 -16q-116 0 -187 62.5t-71 164.5v274h150v-260
q0 -51 29.5 -82t78.5 -31t78.5 31t29.5 82v260h150v-274q0 -102 -71 -164.5t-187 -62.5z" />
    <glyph glyph-name="Uhungarumlaut" unicode="&#x170;" horiz-adv-x="771" 
d="M247 780l-2 4l61 155h138l-83 -159h-114zM413 780l-3 4l62 155h137l-82 -159h-114zM385 -16q-151 0 -240 87t-89 236v393h158v-395q0 -83 47 -133t124 -50q78 0 125 50t47 133v395h158v-393q0 -149 -89 -236t-241 -87z" />
    <glyph glyph-name="uhungarumlaut" unicode="&#x171;" horiz-adv-x="624" 
d="M174 565l-2 3l61 156h138l-83 -159h-114zM340 565l-3 3l62 156h137l-82 -159h-114zM312 -16q-116 0 -187 62.5t-71 164.5v274h150v-260q0 -51 29.5 -82t78.5 -31t78.5 31t29.5 82v260h150v-274q0 -102 -71 -164.5t-187 -62.5z" />
    <glyph glyph-name="Uogonek" unicode="&#x172;" horiz-adv-x="771" 
d="M557 700h158v-393q0 -128 -67 -211.5t-185 -104.5q-33 -14 -33 -38q0 -33 61 -33q23 0 47 7l13 -108q-44 -11 -82 -11q-71 0 -117 31.5t-46 85.5q0 35 20 63q-126 17 -198 101.5t-72 217.5v393h158v-395q0 -83 47 -133t124 -50q78 0 125 50t47 133v395z" />
    <glyph glyph-name="uogonek" unicode="&#x173;" horiz-adv-x="624" 
d="M420 485h150v-274q0 -86 -50.5 -144.5t-138.5 -75.5q-26 -14 -26 -35q0 -33 61 -33q22 0 47 7l13 -108q-44 -11 -82 -11q-71 0 -117 31.5t-46 85.5q0 34 19 61q-90 17 -143 76t-53 146v274h150v-260q0 -51 29.5 -82t78.5 -31t78.5 31t29.5 82v260z" />
    <glyph glyph-name="Wcircumflex" unicode="&#x174;" horiz-adv-x="1091" 
d="M350 768l125 156h139l125 -156h-131l-63 72l-64 -72h-131zM238 0l-215 700h166l138 -468h4l139 468h153l136 -469h4l139 469h166l-216 -700h-163l-142 475h-4l-141 -475h-164z" />
    <glyph glyph-name="wcircumflex" unicode="&#x175;" horiz-adv-x="848" 
d="M230 559l125 157h139l125 -157h-131l-63 73l-64 -73h-131zM197 0l-179 485h158l93 -272h2l94 272h120l94 -273h2l93 273h157l-178 -485h-136l-91 268h-2l-91 -268h-136z" />
    <glyph glyph-name="Ycircumflex" unicode="&#x176;" horiz-adv-x="748" 
d="M179 768l125 156h139l125 -156h-131l-63 72l-64 -72h-131zM295 0v218l-287 482h174l191 -326l193 326h174l-287 -481v-219h-158z" />
    <glyph glyph-name="ycircumflex" unicode="&#x177;" horiz-adv-x="664" 
d="M332 632l-64 -73h-131l125 157h139l125 -157h-131zM487 485h159l-322 -717h-161l103 222l-247 495h160l161 -326h2z" />
    <glyph glyph-name="Ydieresis" unicode="&#x178;" horiz-adv-x="748" 
d="M178 774v153h164v-153h-164zM405 774v153h165v-153h-165zM295 0v218l-287 482h174l191 -326l193 326h174l-287 -481v-219h-158z" />
    <glyph glyph-name="Zacute" unicode="&#x179;" horiz-adv-x="692" 
d="M275 769l-3 4l83 155h159l-108 -159h-131zM39 0v71l377 498h-361v131h589v-70l-364 -499h369v-131h-610z" />
    <glyph glyph-name="zacute" unicode="&#x17a;" horiz-adv-x="533" 
d="M196 565l-3 4l83 155h159l-108 -159h-131zM33 0v69l258 298h-252v118h462v-75l-253 -292h252v-118h-467z" />
    <glyph glyph-name="Zdotaccent" unicode="&#x17b;" horiz-adv-x="692" 
d="M263 927h164v-153h-164v153zM39 0v71l377 498h-361v131h589v-70l-364 -499h369v-131h-610z" />
    <glyph glyph-name="zdotaccent" unicode="&#x17c;" horiz-adv-x="533" 
d="M184 725h164v-154h-164v154zM33 0v69l258 298h-252v118h462v-75l-253 -292h252v-118h-467z" />
    <glyph glyph-name="Zcaron" unicode="&#x17d;" horiz-adv-x="692" 
d="M276 768l-125 156h131l64 -72l63 72h131l-125 -156h-139zM39 0v71l377 498h-361v131h589v-70l-364 -499h369v-131h-610z" />
    <glyph glyph-name="zcaron" unicode="&#x17e;" horiz-adv-x="533" 
d="M197 559l-125 157h131l64 -73l63 73h131l-125 -157h-139zM33 0v69l258 298h-252v118h462v-75l-253 -292h252v-118h-467z" />
    <glyph glyph-name="florin" unicode="&#x192;" horiz-adv-x="610" 
d="M481 587q-39 0 -63.5 -22.5t-31.5 -63.5l-18 -120h169v-114h-185l-26 -173q-15 -105 -71.5 -159.5t-147.5 -54.5q-63 0 -128 17l21 121q68 -9 80 -9q39 0 63 23t30 63l25 172h-130v114h147l18 121q15 105 71.5 159.5t147.5 54.5q62 0 128 -18l-21 -123q-51 12 -78 12z
" />
    <glyph glyph-name="uni01CA" unicode="&#x1ca;" horiz-adv-x="1431" 
d="M561 700h157v-700h-126l-369 429v-429h-157v700h123l372 -439v439zM1082 -16q-120 0 -195.5 64.5t-85.5 181.5h155q18 -111 134 -111q56 0 91 39t35 103v306h-312v133h471v-437q0 -133 -77 -206t-216 -73z" />
    <glyph glyph-name="uni01CC" unicode="&#x1cc;" horiz-adv-x="913" 
d="M698 635v137h154v-137h-154zM63 0v485h148v-47h2q57 63 150 63q95 0 156 -62t61 -159v-280h-151v260q0 51 -28.5 82t-76.5 31q-50 0 -80.5 -29.5t-30.5 -78.5v-265h-150zM603 -249v121l12 2q46 6 65.5 24t19.5 65v522h151v-506q0 -118 -54 -173t-168 -55h-26z" />
    <glyph glyph-name="AEacute" unicode="&#x1fc;" horiz-adv-x="1183" 
d="M594 769l-3 4l83 155h159l-108 -159h-131zM26 0l542 700h575v-131h-379v-158h336v-129h-336v-152h379v-130h-535v142h-283l-109 -142h-190zM419 272h189v249z" />
    <glyph glyph-name="aeacute" unicode="&#x1fd;" horiz-adv-x="956" 
d="M537 565h-131l-3 4l83 155h159zM916 238v-43h-381q12 -45 47 -71t82 -26q67 0 95 40h149q-20 -69 -88.5 -111.5t-158.5 -42.5q-136 0 -212 86q-72 -86 -219 -86q-87 0 -143 43.5t-56 111.5q0 67 52.5 104.5t145.5 37.5h147v17q0 90 -90 90q-72 0 -86 -61h-145
q7 79 69.5 126.5t165.5 47.5q118 0 181 -63q72 63 184 63q119 0 190 -70.5t71 -192.5zM533 284h240q-2 47 -33 76.5t-81 29.5q-49 0 -83.5 -29.5t-42.5 -76.5zM259 94q54 0 86 28t32 72h-141q-28 0 -45.5 -13t-17.5 -33q0 -25 23.5 -39.5t62.5 -14.5z" />
    <glyph glyph-name="Oslashacute" unicode="&#x1fe;" horiz-adv-x="857" 
d="M489 769h-131l-3 4l83 155h159zM716 600q94 -99 94 -250q0 -161 -106.5 -263t-274.5 -102q-121 0 -212 54l-51 -57l-76 61l51 57q-93 101 -93 250q0 161 106 263t275 102q121 0 212 -54l51 57l76 -60zM207 350q0 -77 37 -134l299 335q-51 28 -114 28q-98 0 -160 -64
t-62 -165zM429 121q98 0 160 64t62 165q0 77 -38 134l-298 -335q51 -28 114 -28z" />
    <glyph glyph-name="oslashacute" unicode="&#x1ff;" horiz-adv-x="628" 
d="M374 565h-131l-3 4l83 155h159zM524 419q65 -70 65 -177q0 -116 -75.5 -187t-199.5 -71q-85 0 -148 34l-38 -42l-61 48l37 41q-65 71 -65 177q0 117 75.5 188t199.5 71q85 0 149 -35l38 43l61 -48zM182 242q0 -40 17 -71l174 194q-27 12 -59 12q-59 0 -95.5 -37
t-36.5 -98zM314 108q59 0 95.5 36.5t36.5 97.5q0 40 -17 71l-173 -194q27 -11 58 -11z" />
    <glyph glyph-name="Scommaaccent" unicode="&#x218;" horiz-adv-x="708" 
d="M369 -15q-140 0 -226.5 63.5t-99.5 174.5h156q11 -49 55.5 -80.5t115.5 -31.5q55 0 88 21.5t32 56.5q0 31 -23.5 50t-60 28t-81 16t-89 20t-81.5 33.5t-60.5 62t-24.5 100.5q-1 98 75.5 157.5t202.5 59.5t210 -60t94 -160h-158q-10 43 -44 69.5t-92 26.5
q-54 0 -86.5 -22.5t-31.5 -60.5q0 -37 31 -58.5t77 -29t99.5 -20t99.5 -30t77 -60.5t32 -109q1 -98 -77.5 -157.5t-209.5 -59.5zM273 -49h164v-80q0 -78 -36 -114t-126 -48l-13 63q48 13 62.5 25t16.5 37h-68v117z" />
    <glyph glyph-name="scommaaccent" unicode="&#x219;" horiz-adv-x="547" 
d="M276 -16q-110 0 -177 48t-71 129h134q12 -69 118 -69q37 0 59 12t22 32q0 26 -32 37.5t-78 17t-92 16.5t-78 45t-32 92q0 71 61 114t161 43q98 0 162 -42.5t72 -121.5h-136q-5 29 -34 45t-67 16q-32 0 -53 -11.5t-21 -32.5q0 -22 23.5 -35t58.5 -17t75.5 -12.5t75.5 -21
t58.5 -44.5t23.5 -81q0 -75 -62 -117t-171 -42zM193 -49h164v-80q0 -78 -36 -114t-126 -48l-13 63q48 13 62.5 25t16.5 37h-68v117z" />
    <glyph glyph-name="uni021A" unicode="&#x21a;" horiz-adv-x="686" 
d="M659 700v-133h-238v-567h-157v567h-238v133h633zM258 -49h164v-80q0 -78 -36 -114t-126 -48l-13 63q48 13 62.5 25t16.5 37h-68v117z" />
    <glyph glyph-name="uni021B" unicode="&#x21b;" horiz-adv-x="469" 
d="M329 -16q-96 0 -154.5 53.5t-58.5 141.5v185h-111v121h111v154h150v-154h158v-121h-158v-168q0 -40 23 -61t67 -21q8 0 68 5v-123q-42 -12 -95 -12zM207 -49h164v-80q0 -78 -36 -114t-126 -48l-13 63q48 13 62.5 25t16.5 37h-68v117z" />
    <glyph glyph-name="uni0237" unicode="&#x237;" horiz-adv-x="279" 
d="M-30 -249v121l12 2q46 6 65.5 24t19.5 64v523h150v-506q0 -118 -53.5 -173t-167.5 -55h-26z" />
    <glyph glyph-name="circumflex" unicode="&#x2c6;" horiz-adv-x="489" 
d="M50 559l125 157h139l125 -157h-131l-63 73l-64 -73h-131z" />
    <glyph glyph-name="caron" unicode="&#x2c7;" horiz-adv-x="489" 
d="M175 559l-125 157h131l64 -73l63 73h131l-125 -157h-139z" />
    <glyph glyph-name="breve" unicode="&#x2d8;" horiz-adv-x="450" 
d="M296 715h104q-4 -73 -49.5 -118t-125.5 -45t-125.5 45t-49.5 118h104q9 -71 71 -71t71 71z" />
    <glyph glyph-name="dotaccent" unicode="&#x2d9;" horiz-adv-x="264" 
d="M50 725h164v-154h-164v154z" />
    <glyph glyph-name="ring" unicode="&#x2da;" horiz-adv-x="350" 
d="M176 551q-56 0 -91 30.5t-35 80.5q0 49 35 79.5t91 30.5t90 -30.5t34 -79.5q0 -50 -34 -80.5t-90 -30.5zM175 616q22 0 35.5 12.5t13.5 33.5q0 20 -13.5 33t-35.5 13q-21 0 -35 -13t-14 -33q0 -21 14 -33.5t35 -12.5z" />
    <glyph glyph-name="ogonek" unicode="&#x2db;" horiz-adv-x="345" 
d="M213 -192q-71 0 -117 31.5t-46 85.5q0 55 46.5 89t129.5 43l17 -57q-69 -11 -69 -47q0 -33 61 -33q23 0 47 7l13 -108q-44 -11 -82 -11z" />
    <glyph glyph-name="tilde" unicode="&#x2dc;" horiz-adv-x="493" 
d="M319 565q-38 0 -79.5 24t-51.5 24q-22 0 -29 -33h-109q3 63 35.5 101t90.5 38q31 0 57 -12t44.5 -24t30.5 -12q21 0 27 33h108q2 -60 -32.5 -99.5t-91.5 -39.5z" />
    <glyph glyph-name="hungarumlaut" unicode="&#x2dd;" horiz-adv-x="464" 
d="M52 565l-2 3l61 156h138l-83 -159h-114zM218 565l-3 3l62 156h137l-82 -159h-114z" />
    <glyph glyph-name="uni0326" unicode="&#x326;" horiz-adv-x="0" 
d="M-214 -49h164v-80q0 -78 -36 -114t-126 -48l-13 63q48 13 62.5 25t16.5 37h-68v117z" />
    <glyph glyph-name="Wgrave" unicode="&#x1e80;" horiz-adv-x="1091" 
d="M616 769h-131l-108 159h159l83 -155zM238 0l-215 700h166l138 -468h4l139 468h153l136 -469h4l139 469h166l-216 -700h-163l-142 475h-4l-141 -475h-164z" />
    <glyph glyph-name="wgrave" unicode="&#x1e81;" horiz-adv-x="848" 
d="M496 565h-131l-108 159h159l83 -155zM197 0l-179 485h158l93 -272h2l94 272h120l94 -273h2l93 273h157l-178 -485h-136l-91 268h-2l-91 -268h-136z" />
    <glyph glyph-name="Wacute" unicode="&#x1e82;" horiz-adv-x="1091" 
d="M474 769l-3 4l83 155h159l-108 -159h-131zM238 0l-215 700h166l138 -468h4l139 468h153l136 -469h4l139 469h166l-216 -700h-163l-142 475h-4l-141 -475h-164z" />
    <glyph glyph-name="wacute" unicode="&#x1e83;" horiz-adv-x="848" 
d="M354 565l-3 4l83 155h159l-108 -159h-131zM197 0l-179 485h158l93 -272h2l94 272h120l94 -273h2l93 273h157l-178 -485h-136l-91 268h-2l-91 -268h-136z" />
    <glyph glyph-name="Wdieresis" unicode="&#x1e84;" horiz-adv-x="1091" 
d="M349 774v153h164v-153h-164zM576 774v153h165v-153h-165zM238 0l-215 700h166l138 -468h4l139 468h153l136 -469h4l139 469h166l-216 -700h-163l-142 475h-4l-141 -475h-164z" />
    <glyph glyph-name="wdieresis" unicode="&#x1e85;" horiz-adv-x="848" 
d="M229 725h164v-154h-164v154zM456 725h165v-154h-165v154zM197 0l-179 485h158l93 -272h2l94 272h120l94 -273h2l93 273h157l-178 -485h-136l-91 268h-2l-91 -268h-136z" />
    <glyph glyph-name="uni1E9E" unicode="&#x1e9e;" horiz-adv-x="757" 
d="M514 404q95 -18 148.5 -72t53.5 -134q0 -95 -79 -154.5t-198 -59.5q-73 0 -135 25v134q58 -29 118 -29q52 0 89.5 26t37.5 66q0 44 -38.5 71t-101.5 27h-63v107l169 144q-60 35 -132 35t-116 -35.5t-44 -93.5v-461h-157v462q0 116 86 185t229 69q144 0 273 -75v-120z" />
    <glyph glyph-name="Ygrave" unicode="&#x1ef2;" horiz-adv-x="748" 
d="M445 769h-131l-108 159h159l83 -155zM295 0v218l-287 482h174l191 -326l193 326h174l-287 -481v-219h-158z" />
    <glyph glyph-name="ygrave" unicode="&#x1ef3;" horiz-adv-x="664" 
d="M403 565h-131l-108 159h159l83 -155zM487 485h159l-322 -717h-161l103 222l-247 495h160l161 -326h2z" />
    <glyph glyph-name="uni1EF8" unicode="&#x1ef8;" horiz-adv-x="748" 
d="M445 780q-38 0 -79.5 23.5t-51.5 23.5q-22 0 -29 -32h-109q3 62 35.5 100t90.5 38q40 0 81 -23.5t51 -23.5q21 0 27 33h108q2 -60 -32.5 -99.5t-91.5 -39.5zM295 0v218l-287 482h174l191 -326l193 326h174l-287 -481v-219h-158z" />
    <glyph glyph-name="uni1EF9" unicode="&#x1ef9;" horiz-adv-x="664" 
d="M403 565q-38 0 -79.5 24t-51.5 24q-22 0 -29 -33h-109q3 63 35.5 101t90.5 38q31 0 57 -12t44.5 -24t30.5 -12q21 0 27 33h108q2 -60 -32.5 -99.5t-91.5 -39.5zM487 485h159l-322 -717h-161l103 222l-247 495h160l161 -326h2z" />
    <glyph glyph-name="endash" unicode="&#x2013;" horiz-adv-x="715" 
d="M94 194v136h527v-136h-527z" />
    <glyph glyph-name="emdash" unicode="&#x2014;" horiz-adv-x="1093" 
d="M94 194v136h905v-136h-905z" />
    <glyph glyph-name="quoteleft" unicode="&#x2018;" horiz-adv-x="234" 
d="M201 464h-167v119q0 88 42 133t130 56l13 -62q-47 -13 -67 -31t-23 -58h72v-157z" />
    <glyph glyph-name="quoteright" unicode="&#x2019;" horiz-adv-x="234" 
d="M34 772h167v-119q0 -87 -42.5 -132.5t-130.5 -56.5l-12 62q47 13 67 31t23 58h-72v157z" />
    <glyph glyph-name="quotesinglbase" unicode="&#x201a;" horiz-adv-x="234" 
d="M34 157h167v-120q0 -87 -42.5 -132.5t-130.5 -56.5l-12 63q47 13 67 31t23 58h-72v157z" />
    <glyph glyph-name="quotedblleft" unicode="&#x201c;" horiz-adv-x="453" 
d="M201 464h-167v119q0 88 42 133t130 56l13 -62q-47 -13 -67 -31t-23 -58h72v-157zM419 464h-167v119q0 88 42 133t130 56l13 -62q-47 -13 -67 -31t-23 -58h72v-157z" />
    <glyph glyph-name="quotedblright" unicode="&#x201d;" horiz-adv-x="453" 
d="M34 772h167v-119q0 -87 -42.5 -132.5t-130.5 -56.5l-12 62q47 13 67 31t23 58h-72v157zM252 772h167v-119q0 -87 -42 -132.5t-130 -56.5l-13 62q47 13 67 31t23 58h-72v157z" />
    <glyph glyph-name="quotedblbase" unicode="&#x201e;" horiz-adv-x="453" 
d="M34 157h167v-120q0 -87 -42.5 -132.5t-130.5 -56.5l-12 63q47 13 67 31t23 58h-72v157zM252 157h167v-120q0 -87 -42 -132.5t-130 -56.5l-13 63q47 13 67 31t23 58h-72v157z" />
    <glyph glyph-name="dagger" unicode="&#x2020;" horiz-adv-x="420" 
d="M163 304v213h-122v88h122v115h94v-115h121v-88h-121v-213h-94z" />
    <glyph glyph-name="daggerdbl" unicode="&#x2021;" horiz-adv-x="420" 
d="M163 304v93h-122v88h122v57h-122v88h122v90h94v-90h121v-88h-121v-57h121v-88h-121v-93h-94z" />
    <glyph glyph-name="bullet" unicode="&#x2022;" horiz-adv-x="364" 
d="M182 156q-62 0 -106.5 41.5t-44.5 100.5t44.5 100.5t106.5 41.5t106.5 -41.5t44.5 -100.5t-44.5 -100.5t-106.5 -41.5z" />
    <glyph glyph-name="uni2023" unicode="&#x2023;" horiz-adv-x="370" 
d="M63 35v458l280 -229z" />
    <glyph glyph-name="ellipsis" unicode="&#x2026;" horiz-adv-x="735" 
d="M34 157h167v-157h-167v157zM284 157h167v-157h-167v157zM534 157h167v-157h-167v157z" />
    <glyph glyph-name="perthousand" unicode="&#x2030;" horiz-adv-x="1641" 
d="M285 318q-97 0 -156 54.5t-59 144.5t59 144.5t156 54.5t156 -54.5t59 -144.5t-59 -144.5t-156 -54.5zM280 0l489 700h103l-489 -700h-103zM285 413q49 0 79.5 28.5t30.5 75.5t-30.5 75.5t-79.5 28.5t-79.5 -28.5t-30.5 -75.5t30.5 -75.5t79.5 -28.5zM867 -16
q-97 0 -156 54.5t-59 144.5t59 144.5t156 54.5q96 0 155 -54.5t59 -144.5t-59 -144.5t-155 -54.5zM1356 -16q-96 0 -155 54.5t-59 144.5t59 144.5t155 54.5q97 0 156 -54.5t59 -144.5t-59 -144.5t-156 -54.5zM867 79q49 0 79.5 28.5t30.5 75.5t-30.5 75.5t-79.5 28.5
q-50 0 -80.5 -28.5t-30.5 -75.5t30.5 -75.5t80.5 -28.5zM1356 79q50 0 80.5 28.5t30.5 75.5t-30.5 75.5t-80.5 28.5q-49 0 -79.5 -28.5t-30.5 -75.5t30.5 -75.5t79.5 -28.5z" />
    <glyph glyph-name="guilsinglleft" unicode="&#x2039;" horiz-adv-x="285" 
d="M259 410l-103 -158l103 -158h-135l-98 148v20l98 148h135z" />
    <glyph glyph-name="guilsinglright" unicode="&#x203a;" horiz-adv-x="285" 
d="M26 410h135l98 -148v-20l-98 -148h-135l103 158z" />
    <glyph glyph-name="fraction" unicode="&#x2044;" horiz-adv-x="553" 
d="M-19 0l488 700h103l-488 -700h-103z" />
    <glyph glyph-name="uni2070" unicode="&#x2070;" horiz-adv-x="422" 
d="M211 895q83 0 134 -48.5t51 -128.5v-72q0 -80 -51 -128.5t-134 -48.5t-134 48.5t-51 128.5v72q0 80 51 128.5t134 48.5zM287 646v72q0 38 -21 61.5t-55 23.5t-55 -23.5t-21 -61.5v-72q0 -37 21 -60.5t55 -23.5t55 23.5t21 60.5z" />
    <glyph glyph-name="uni2074" unicode="&#x2074;" horiz-adv-x="438" 
d="M411 643v-89h-54v-71h-106v71h-223v70l190 263h139v-244h54zM144 643h107v144z" />
    <glyph glyph-name="uni2075" unicode="&#x2075;" horiz-adv-x="412" 
d="M218 746q69 0 111.5 -36.5t42.5 -95.5q0 -64 -46 -102.5t-122 -38.5q-74 0 -120.5 35.5t-50.5 90.5h105q6 -18 24.5 -28.5t42.5 -10.5q29 0 47 14.5t18 37.5t-17 37t-45 14q-36 0 -56 -20l-88 24l23 220h263v-89h-171l-7 -59q21 7 46 7z" />
    <glyph glyph-name="uni2076" unicode="&#x2076;" horiz-adv-x="409" 
d="M223 767q72 -3 115 -42.5t43 -101.5q0 -67 -48 -108.5t-127 -41.5t-128.5 41t-49.5 104q0 42 43 109l108 160h127zM205 558q32 0 51.5 17t19.5 44q0 29 -19.5 46t-51.5 17t-51.5 -17t-19.5 -44q0 -29 19.5 -46t51.5 -17z" />
    <glyph glyph-name="uni2077" unicode="&#x2077;" horiz-adv-x="359" 
d="M48 483l155 309h-185v95h323v-61l-169 -343h-124z" />
    <glyph glyph-name="uni2078" unicode="&#x2078;" horiz-adv-x="424" 
d="M212 473q-81 0 -129.5 34.5t-48.5 91.5q0 63 66 97q-49 30 -49 82q0 53 44 85.5t117 32.5t117 -32.5t44 -85.5q0 -52 -49 -82q66 -34 66 -97q0 -57 -48.5 -91.5t-129.5 -34.5zM212 725q25 0 41 13t16 34q0 20 -16 33t-41 13t-41 -13t-16 -33q0 -21 16 -34t41 -13z
M212 556q28 0 45 14t17 37q0 21 -17 34.5t-45 13.5t-45 -13.5t-17 -34.5q0 -23 17 -37t45 -14z" />
    <glyph glyph-name="uni2079" unicode="&#x2079;" horiz-adv-x="409" 
d="M203 895q79 0 128.5 -40.5t49.5 -103.5q0 -45 -43 -109l-108 -161h-127l83 121q-71 3 -114.5 42.5t-43.5 101.5q0 67 48 108t127 41zM204 686q32 0 51.5 17t19.5 45q0 29 -19.5 46t-51.5 17t-51.5 -17t-19.5 -45t19.5 -45.5t51.5 -17.5z" />
    <glyph glyph-name="uni2080" unicode="&#x2080;" horiz-adv-x="422" 
d="M211 227q83 0 134 -48.5t51 -128.5v-72q0 -80 -51 -128.5t-134 -48.5t-134 48.5t-51 128.5v72q0 80 51 128.5t134 48.5zM287 -22v72q0 38 -21 61t-55 23t-55 -23t-21 -61v-72q0 -38 21 -61.5t55 -23.5t55 23.5t21 61.5z" />
    <glyph glyph-name="uni2081" unicode="&#x2081;" horiz-adv-x="263" 
d="M122 -190v315h-104v89h209v-404h-105z" />
    <glyph glyph-name="uni2082" unicode="&#x2082;" horiz-adv-x="387" 
d="M38 -190v51l156 163q46 44 46 69q0 17 -12.5 28t-34.5 11q-49 0 -56 -49h-101q4 63 48.5 102t112.5 39q70 0 113.5 -34t43.5 -89q0 -51 -63 -118l-81 -87h148v-86h-320z" />
    <glyph glyph-name="uni2083" unicode="&#x2083;" horiz-adv-x="404" 
d="M267 44q47 -14 73.5 -44t26.5 -71q0 -57 -45.5 -92.5t-120.5 -35.5q-70 0 -116 35t-54 94h107q10 -43 66 -43q26 0 42 12.5t16 32.5t-16.5 33t-46.5 13h-51v70l73 77h-166v89h304v-73z" />
    <glyph glyph-name="uni2084" unicode="&#x2084;" horiz-adv-x="438" 
d="M411 -30v-89h-54v-71h-106v71h-223v70l190 263h139v-244h54zM144 -30h107v145z" />
    <glyph glyph-name="uni2085" unicode="&#x2085;" horiz-adv-x="412" 
d="M218 73q69 0 111.5 -36.5t42.5 -95.5q0 -64 -46 -102t-122 -38q-74 0 -120.5 35t-50.5 90h105q6 -18 24.5 -28.5t42.5 -10.5q29 0 47 14.5t18 37.5t-17 37t-45 14q-36 0 -56 -20l-88 24l23 220h263v-89h-171l-7 -59q21 7 46 7z" />
    <glyph glyph-name="uni2086" unicode="&#x2086;" horiz-adv-x="409" 
d="M223 94q72 -3 115 -42.5t43 -101.5q0 -67 -48 -108t-127 -41t-128.5 40.5t-49.5 103.5q0 42 43 109l108 160h127zM205 -115q32 0 51.5 17t19.5 44q0 29 -19.5 46.5t-51.5 17.5t-51.5 -17.5t-19.5 -44.5q0 -29 19.5 -46t51.5 -17z" />
    <glyph glyph-name="uni2087" unicode="&#x2087;" horiz-adv-x="359" 
d="M48 -190l155 309h-185v95h323v-61l-169 -343h-124z" />
    <glyph glyph-name="uni2088" unicode="&#x2088;" horiz-adv-x="424" 
d="M212 -199q-81 0 -129.5 34t-48.5 91q0 63 66 97q-49 30 -49 82q0 53 44 85.5t117 32.5t117 -32.5t44 -85.5q0 -52 -49 -82q66 -34 66 -97q0 -57 -48.5 -91t-129.5 -34zM212 52q25 0 41 13t16 34q0 20 -16 33t-41 13t-41 -13t-16 -33q0 -21 16 -34t41 -13zM212 -116
q28 0 45 13.5t17 36.5q0 21 -17 34.5t-45 13.5t-45 -13.5t-17 -34.5q0 -23 17 -36.5t45 -13.5z" />
    <glyph glyph-name="uni2089" unicode="&#x2089;" horiz-adv-x="409" 
d="M203 224q79 0 128.5 -41t49.5 -104q0 -45 -43 -109l-108 -160h-127l83 120q-71 3 -114.5 42.5t-43.5 101.5q0 68 48 109t127 41zM204 15q32 0 51.5 17t19.5 44q0 29 -19.5 46t-51.5 17q-31 0 -51 -17t-20 -44q0 -28 19.5 -45.5t51.5 -17.5z" />
    <glyph glyph-name="Euro" unicode="&#x20ac;" horiz-adv-x="901" 
d="M495 124q76 0 127 40t70 110h162q-21 -133 -119 -211t-241 -78q-138 0 -234.5 68t-129.5 185h-94v82h80q-1 10 -1 31q0 20 1 30h-80v81h93q33 118 129.5 186t235.5 68q143 0 241 -78t119 -211h-162q-19 70 -69.5 110t-127.5 40q-68 0 -119 -30.5t-77 -84.5h261l-17 -81
h-266q-2 -20 -2 -30q0 -11 2 -31h252l-18 -82h-212q27 -54 77.5 -84t118.5 -30z" />
    <glyph glyph-name="uni2116" unicode="&#x2116;" horiz-adv-x="1447" 
d="M561 700h157v-700h-126l-369 429v-429h-157v700h123l372 -439v439zM1109 179q-122 0 -198 71t-76 184t76 184t198 71q121 0 197.5 -71t76.5 -184t-76.5 -184t-197.5 -71zM1109 303q57 0 93.5 36.5t36.5 94.5t-36.5 94.5t-93.5 36.5q-58 0 -94.5 -36.5t-36.5 -94.5
t36.5 -94.5t94.5 -36.5zM855 0v109h509v-109h-509z" />
    <glyph glyph-name="trademark" unicode="&#x2122;" horiz-adv-x="737" 
d="M28 628v72h279v-72h-98v-220h-83v220h-98zM635 700h59v-292h-80v147l-82 -112h-33l-82 112v-147h-80v292h59l120 -159z" />
    <glyph glyph-name="oneeighth" unicode="&#x215b;" horiz-adv-x="911" 
d="M122 300v315h-104v89h209v-404h-105zM107 0l488 700h103l-488 -700h-103zM699 -9q-82 0 -130.5 34t-48.5 91q0 63 66 97q-48 29 -48 82t44 85.5t117 32.5t116.5 -32.5t43.5 -85.5t-48 -82q66 -34 66 -97q0 -57 -48.5 -91t-129.5 -34zM699 242q25 0 41 13t16 34
q0 20 -16 33t-41 13q-26 0 -42 -13t-16 -33q0 -21 16 -34t42 -13zM699 74q28 0 45 14t17 36t-17 35t-45 13t-45 -13t-17 -35q0 -23 17 -36.5t45 -13.5z" />
    <glyph glyph-name="threeeighths" unicode="&#x215c;" horiz-adv-x="996" 
d="M367 419q0 -57 -45.5 -92.5t-120.5 -35.5q-70 0 -116 35t-54 94h107q4 -18 21 -31t45 -13q26 0 42 13t16 33t-16.5 33t-46.5 13h-51v70l73 77h-166v89h304v-73l-90 -97q45 -14 71.5 -44.5t26.5 -70.5zM680 700h103l-488 -700h-103zM896 213q66 -34 66 -97
q0 -57 -48.5 -91t-129.5 -34q-82 0 -130.5 34t-48.5 91q0 63 66 97q-48 29 -48 82t44 85.5t117 32.5t116.5 -32.5t43.5 -85.5t-48 -82zM784 335q-26 0 -42 -13t-16 -33q0 -21 16 -34t42 -13q25 0 41 13t16 34q0 20 -16 33t-41 13zM784 74q28 0 45 14t17 36t-17 35t-45 13
t-45 -13t-17 -35q0 -23 17 -36.5t45 -13.5z" />
    <glyph glyph-name="fiveeighths" unicode="&#x215d;" horiz-adv-x="1001" 
d="M372 431q0 -64 -46 -102t-122 -38q-74 0 -120.5 35t-50.5 90h105q6 -18 24.5 -28.5t42.5 -10.5q29 0 47 14.5t18 37.5t-17 37t-45 14q-36 0 -56 -20l-88 24l23 220h263v-89h-171l-7 -59q21 7 46 7q69 0 111.5 -36.5t42.5 -95.5zM686 700h103l-488 -700h-103zM902 213
q66 -34 66 -97q0 -57 -48.5 -91t-130.5 -34q-81 0 -129.5 34t-48.5 91q0 63 66 97q-48 29 -48 82t43.5 85.5t116.5 32.5t117 -32.5t44 -85.5t-48 -82zM789 335q-25 0 -41 -13t-16 -33q0 -21 16 -34t41 -13q26 0 42 13t16 34q0 20 -16 33t-42 13zM789 74q28 0 45 13.5
t17 36.5q0 22 -17 35t-45 13t-45 -13t-17 -35t17 -36t45 -14z" />
    <glyph glyph-name="seveneighths" unicode="&#x215e;" horiz-adv-x="897" 
d="M48 300l155 309h-185v95h323v-61l-169 -343h-124zM93 0l489 700h103l-489 -700h-103zM685 -9q-81 0 -129.5 34t-48.5 91q0 63 66 97q-49 30 -49 82q0 53 44 85.5t117 32.5t117 -32.5t44 -85.5q0 -52 -49 -82q66 -34 66 -97q0 -57 -48.5 -91t-129.5 -34zM685 242
q25 0 41 13t16 34q0 20 -16 33t-41 13t-41 -13t-16 -33q0 -21 16 -34t41 -13zM685 74q28 0 45 14t17 36t-17 35t-45 13t-45 -13t-17 -35t17 -36t45 -14z" />
    <glyph glyph-name="arrowleft" unicode="&#x2190;" horiz-adv-x="981" 
d="M435 -40l-400 400l400 401l97 -91l-234 -234h643v-151h-643l234 -234z" />
    <glyph glyph-name="arrowup" unicode="&#x2191;" horiz-adv-x="891" 
d="M370 -66v643l-234 -234l-91 96l400 401l401 -401l-91 -96l-234 234v-643h-151z" />
    <glyph glyph-name="arrowright" unicode="&#x2192;" horiz-adv-x="981" 
d="M545 -40l-97 91l235 234h-643v151h643l-235 234l97 91l401 -401z" />
    <glyph glyph-name="arrowdown" unicode="&#x2193;" horiz-adv-x="891" 
d="M445 -66l-400 401l91 96l234 -234v643h151v-643l234 234l91 -96z" />
    <glyph glyph-name="arrowboth" unicode="&#x2194;" horiz-adv-x="1357" 
d="M922 761l400 -401l-400 -400l-97 91l234 234h-761l234 -234l-97 -91l-400 400l400 401l97 -91l-234 -234h761l-234 234z" />
    <glyph glyph-name="arrowupdn" unicode="&#x2195;" horiz-adv-x="891" 
d="M446 -261l-401 400l92 97l233 -234v726l-234 -234l-91 97l400 400l400 -399l-90 -97l-234 233v-726l234 234l91 -97z" />
    <glyph glyph-name="uni2196" unicode="&#x2196;" horiz-adv-x="817" 
d="M90 707h567l4 -133h-332l455 -454l-107 -106l-454 454v-331l-133 4v566z" />
    <glyph glyph-name="uni2197" unicode="&#x2197;" horiz-adv-x="817" 
d="M139 14l-106 106l454 454h-331l4 133h567v-566l-133 -4v331z" />
    <glyph glyph-name="uni2198" unicode="&#x2198;" horiz-adv-x="817" 
d="M160 14l-4 133h331l-454 454l106 106l455 -454v331l133 -4v-566h-567z" />
    <glyph glyph-name="uni2199" unicode="&#x2199;" horiz-adv-x="817" 
d="M90 14v566l133 4v-331l454 454l107 -106l-455 -454h332l-4 -133h-567z" />
    <glyph glyph-name="partialdiff" unicode="&#x2202;" horiz-adv-x="623" 
d="M243 721q163 -69 254 -197.5t91 -271.5q0 -121 -75 -194.5t-199 -73.5t-199.5 69.5t-75.5 184.5q0 113 76 183t199 70q31 0 61 -9q-43 55 -104 97t-160 87zM314 108q58 0 94 36t36 94t-36 93.5t-94 35.5q-59 0 -95 -35.5t-36 -93.5q0 -59 36 -94.5t95 -35.5z" />
    <glyph glyph-name="minus" unicode="&#x2212;" horiz-adv-x="705" 
d="M101 270v115h502v-115h-502z" />
    <glyph glyph-name="approxequal" unicode="&#x2248;" horiz-adv-x="495" 
d="M325 334q-39 0 -88.5 28t-59.5 28q-28 0 -28 -38h-128q1 71 39.5 115t102.5 44q44 0 93.5 -28t60.5 -28q29 0 29 38h128q0 -72 -41 -115.5t-108 -43.5zM325 124q-39 0 -88.5 28t-59.5 28q-28 0 -28 -38h-128q1 71 39 115t103 44q44 0 93.5 -28t60.5 -28q29 0 29 38h128
q0 -72 -41 -115.5t-108 -43.5z" />
    <glyph glyph-name="notequal" unicode="&#x2260;" horiz-adv-x="714" 
d="M612 367h-172l-63 -89h235v-115h-315l-75 -108h-103l75 108h-93v115h173l62 89h-235v115h315l75 108h104l-75 -108h92v-115z" />
    <glyph glyph-name="lessequal" unicode="&#x2264;" horiz-adv-x="602" 
d="M515 150l-448 165v132l448 165v-132l-293 -99l293 -99v-132zM45 0v116h492v-116h-492z" />
    <glyph glyph-name="greaterequal" unicode="&#x2265;" horiz-adv-x="602" 
d="M87 150v132l293 99l-293 99v132l448 -165v-132zM65 0v116h492v-116h-492z" />
    <glyph glyph-name="filledbox" unicode="&#x25a0;" horiz-adv-x="833" 
d="M66 0v700h700v-700h-700z" />
    <glyph glyph-name="uni25A1" unicode="&#x25a1;" horiz-adv-x="833" 
d="M66 0v700h700v-700h-700zM188 122h456v456h-456v-456z" />
    <glyph glyph-name="triagup" unicode="&#x25b2;" horiz-adv-x="939" 
d="M15 0l454 716l455 -716h-909z" />
    <glyph glyph-name="uni25B8" unicode="&#x25b8;" horiz-adv-x="370" 
d="M63 35v458l280 -229z" />
    <glyph glyph-name="triagdn" unicode="&#x25bc;" horiz-adv-x="939" 
d="M469 -16l-454 716h909z" />
    <glyph glyph-name="uni25BD" unicode="&#x25bd;" horiz-adv-x="939" 
d="M469 -16l-454 716h909zM472 222l222 357h-449z" />
    <glyph glyph-name="uni25C2" unicode="&#x25c2;" horiz-adv-x="370" 
d="M307 35l-280 229l280 229v-458z" />
    <glyph glyph-name="uni25C6" unicode="&#x25c6;" horiz-adv-x="809" 
d="M405 -20l-370 370l369 370l370 -370z" />
    <glyph glyph-name="circle" unicode="&#x25cb;" horiz-adv-x="826" 
d="M416 -16q-154 0 -261 106t-107 258q0 154 107 261t261 107q150 0 256 -107.5t106 -260.5q0 -151 -106 -257.5t-256 -106.5zM415 111q98 0 167 69.5t69 168.5q0 100 -69 170t-167 70q-101 0 -170.5 -69.5t-69.5 -170.5q0 -99 70 -168.5t170 -69.5z" />
    <glyph glyph-name="uni25CF" unicode="&#x25cf;" horiz-adv-x="826" 
d="M416 -16q-154 0 -261 106t-107 258q0 154 107 261t261 107q150 0 256 -107.5t106 -260.5q0 -151 -106 -257.5t-256 -106.5z" />
    <glyph glyph-name="uni25D0" unicode="&#x25d0;" horiz-adv-x="826" 
d="M410 -16q-150 0 -256 106.5t-106 257.5q0 153 106 260.5t256 107.5q154 0 261 -107t107 -261q0 -152 -107 -258t-261 -106zM411 111q100 0 170 69.5t70 168.5q0 101 -69.5 170.5t-170.5 69.5v-478z" />
    <glyph glyph-name="uni25D6" unicode="&#x25d6;" horiz-adv-x="482" 
d="M416 -16q-154 0 -261 106t-107 258q0 154 107 261t261 107v-732z" />
    <glyph glyph-name="heart" unicode="&#x2665;" horiz-adv-x="711" 
d="M498 623q77 0 125 -47.5t48 -123.5q0 -41 -22 -86.5t-55 -84.5t-72.5 -78t-74 -68t-60 -54t-30.5 -37h-4q-5 14 -40 46l-79.5 72t-89 86t-74.5 100.5t-30 103.5q0 76 48 123.5t125 47.5q40 0 71.5 -18t48.5 -36t22 -18t22.5 18t49 36t71.5 18z" />
    <glyph glyph-name="uni2780" unicode="&#x2780;" horiz-adv-x="868" 
d="M434 -16q-170 0 -278 102.5t-108 263.5t108 263.5t278 102.5t278.5 -102.5t108.5 -263.5t-108.5 -263.5t-278.5 -102.5zM434 61q131 0 215 81t84 208t-84 208t-215 81t-215 -81t-84 -208t84 -208t215 -81zM399 148v315h-104v88h209v-403h-105z" />
    <glyph glyph-name="uni2781" unicode="&#x2781;" horiz-adv-x="868" 
d="M434 -16q-170 0 -278 102.5t-108 263.5t108 263.5t278 102.5t278.5 -102.5t108.5 -263.5t-108.5 -263.5t-278.5 -102.5zM434 61q131 0 215 81t84 208t-84 208t-215 81t-215 -81t-84 -208t84 -208t215 -81zM276 148v51l155 163l23.5 22.5t15 20.5t8.5 26q0 18 -13 28.5
t-35 10.5q-49 0 -56 -49h-100q3 63 47.5 102t113.5 39q70 0 113 -34t43 -89q0 -51 -63 -118l-81 -87h149v-86h-320z" />
    <glyph glyph-name="uni2782" unicode="&#x2782;" horiz-adv-x="868" 
d="M434 716q170 0 278.5 -102.5t108.5 -263.5t-108.5 -263.5t-278.5 -102.5t-278 102.5t-108 263.5t108 263.5t278 102.5zM434 61q131 0 215 81t84 208t-84 208t-215 81t-215 -81t-84 -208t84 -208t215 -81zM501 383q47 -14 73.5 -44t26.5 -71q0 -57 -46 -93t-120 -36
q-70 0 -116.5 35.5t-53.5 94.5h106q4 -18 21 -31t45 -13q26 0 42.5 13t16.5 32q0 21 -17 34t-46 13h-52v70l73 77h-166v88h304v-72z" />
    <glyph glyph-name="uni2783" unicode="&#x2783;" horiz-adv-x="868" 
d="M434 -16q-170 0 -278 102.5t-108 263.5t108 263.5t278 102.5t278.5 -102.5t108.5 -263.5t-108.5 -263.5t-278.5 -102.5zM434 61q131 0 215 81t84 208t-84 208t-215 81t-215 -81t-84 -208t84 -208t215 -81zM601 308v-89h-53v-71h-107v71h-223v70l190 263h140v-244h53z
M334 308h107v145z" />
    <glyph glyph-name="uni2784" unicode="&#x2784;" horiz-adv-x="868" 
d="M434 716q170 0 278.5 -102.5t108.5 -263.5t-108.5 -263.5t-278.5 -102.5t-278 102.5t-108 263.5t108 263.5t278 102.5zM434 61q131 0 215 81t84 208t-84 208t-215 81t-215 -81t-84 -208t84 -208t215 -81zM448 416q70 0 112.5 -36.5t42.5 -95.5q0 -64 -46 -102.5
t-122 -38.5q-74 0 -121 35.5t-51 90.5h106q6 -18 24.5 -29t42.5 -11q29 0 46.5 14.5t17.5 37.5t-17 37.5t-45 14.5q-35 0 -56 -20l-87 24l22 219h263v-89h-170l-7 -58q21 7 45 7z" />
    <glyph glyph-name="uni2785" unicode="&#x2785;" horiz-adv-x="868" 
d="M434 716q170 0 278.5 -102.5t108.5 -263.5t-108.5 -263.5t-278.5 -102.5t-278 102.5t-108 263.5t108 263.5t278 102.5zM434 61q131 0 215 81t84 208t-84 208t-215 81t-215 -81t-84 -208t84 -208t215 -81zM452 436q72 -4 115.5 -43t43.5 -101q0 -67 -48.5 -108.5
t-127.5 -41.5t-128.5 41t-49.5 104q0 43 44 109l107 159h127zM434 226q32 0 51.5 17.5t19.5 44.5q0 29 -19.5 46t-51.5 17q-31 0 -51 -17t-20 -44q0 -28 19.5 -46t51.5 -18z" />
    <glyph glyph-name="uni2786" unicode="&#x2786;" horiz-adv-x="868" 
d="M434 -16q-170 0 -278 102.5t-108 263.5t108 263.5t278 102.5t278.5 -102.5t108.5 -263.5t-108.5 -263.5t-278.5 -102.5zM434 61q131 0 215 81t84 208t-84 208t-215 81t-215 -81t-84 -208t84 -208t215 -81zM304 147l155 309h-185v95h323v-61l-169 -343h-124z" />
    <glyph glyph-name="uni2787" unicode="&#x2787;" horiz-adv-x="868" 
d="M434 -16q-170 0 -278 102.5t-108 263.5t108 263.5t278 102.5t278.5 -102.5t108.5 -263.5t-108.5 -263.5t-278.5 -102.5zM434 61q131 0 215 81t84 208t-84 208t-215 81t-215 -81t-84 -208t84 -208t215 -81zM434 139q-81 0 -129.5 34.5t-48.5 91.5q0 63 66 97
q-49 30 -49 82q0 53 44 85.5t117 32.5t117 -32.5t44 -85.5q0 -52 -49 -82q66 -33 66 -97q0 -57 -48.5 -91.5t-129.5 -34.5zM434 390q26 0 41.5 13.5t15.5 34.5q0 20 -15.5 33t-41.5 13q-25 0 -41 -13t-16 -33q0 -21 16 -34.5t41 -13.5zM434 222q28 0 45 13.5t17 36.5
q0 22 -17 35.5t-45 13.5t-45 -13.5t-17 -35.5t17 -36t45 -14z" />
    <glyph glyph-name="uni2788" unicode="&#x2788;" horiz-adv-x="868" 
d="M434 716q170 0 278.5 -102.5t108.5 -263.5t-108.5 -263.5t-278.5 -102.5t-278 102.5t-108 263.5t108 263.5t278 102.5zM434 61q131 0 215 81t84 208t-84 208t-215 81t-215 -81t-84 -208t84 -208t215 -81zM433 561q79 0 128.5 -41t49.5 -104q0 -44 -44 -108l-108 -161
h-127l83 120q-72 5 -115 44t-43 100q0 67 48.5 108.5t127.5 41.5zM433 352q32 0 51.5 17t19.5 45q0 29 -19.5 46t-51.5 17t-51.5 -17t-19.5 -45t19.5 -45.5t51.5 -17.5z" />
    <glyph glyph-name="uni278A" unicode="&#x278a;" horiz-adv-x="868" 
d="M434 -16q-170 0 -278 102.5t-108 263.5t108 263.5t278 102.5t278.5 -102.5t108.5 -263.5t-108.5 -263.5t-278.5 -102.5zM399 148h105v403h-209v-88h104v-315z" />
    <glyph glyph-name="uni278B" unicode="&#x278b;" horiz-adv-x="868" 
d="M434 -16q-170 0 -278 102.5t-108 263.5t108 263.5t278 102.5t278.5 -102.5t108.5 -263.5t-108.5 -263.5t-278.5 -102.5zM276 148h320v86h-149l81 87q63 67 63 118q0 55 -43 89t-113 34q-69 0 -113.5 -39t-47.5 -102h100q7 49 56 49q22 0 35 -10.5t13 -28.5
q0 -12 -8.5 -26t-15 -20.5l-23.5 -22.5l-155 -163v-51z" />
    <glyph glyph-name="uni278C" unicode="&#x278c;" horiz-adv-x="868" 
d="M434 -16q-170 0 -278 102.5t-108 263.5t108 263.5t278 102.5t278.5 -102.5t108.5 -263.5t-108.5 -263.5t-278.5 -102.5zM435 139q74 0 120 36t46 93q0 39 -24.5 68.5t-67.5 43.5l-8 2l91 98v72h-304v-88h166l-73 -77v-70h52q29 0 46 -13t17 -34q0 -19 -16.5 -32
t-42.5 -13q-28 0 -45 13t-21 31h-106q7 -59 53.5 -94.5t116.5 -35.5z" />
    <glyph glyph-name="uni278D" unicode="&#x278d;" horiz-adv-x="868" 
d="M434 -16q-170 0 -278 102.5t-108 263.5t108 263.5t278 102.5t278.5 -102.5t108.5 -263.5t-108.5 -263.5t-278.5 -102.5zM441 148h107v71h53v89h-53v244h-140l-190 -263v-70h223v-71zM334 308l107 145v-145h-107z" />
    <glyph glyph-name="uni278E" unicode="&#x278e;" horiz-adv-x="868" 
d="M434 -16q-170 0 -278 102.5t-108 263.5t108 263.5t278 102.5t278.5 -102.5t108.5 -263.5t-108.5 -263.5t-278.5 -102.5zM435 143q76 0 122 38.5t46 102.5q0 59 -42.5 95.5t-112.5 36.5q-19 0 -45 -7l7 58h170v89h-263l-22 -219l87 -24q21 20 56 20q28 0 45 -14.5
t17 -37.5t-17.5 -37.5t-46.5 -14.5q-24 0 -42.5 11t-24.5 29h-106q4 -55 51 -90.5t121 -35.5z" />
    <glyph glyph-name="uni278F" unicode="&#x278f;" horiz-adv-x="868" 
d="M434 -16q-170 0 -278 102.5t-108 263.5t108 263.5t278 102.5t278.5 -102.5t108.5 -263.5t-108.5 -263.5t-278.5 -102.5zM435 142q79 0 127.5 41.5t48.5 108.5q0 55 -34 92t-93 48q-30 3 -32 3l83 120h-127l-107 -159q-44 -66 -44 -109q0 -63 49.5 -104t128.5 -41z
M434 226q-32 0 -51.5 18t-19.5 46q0 27 20 44t51 17q32 0 51.5 -17t19.5 -46q0 -27 -19.5 -44.5t-51.5 -17.5z" />
    <glyph glyph-name="uni2790" unicode="&#x2790;" horiz-adv-x="868" 
d="M434 -16q-170 0 -278 102.5t-108 263.5t108 263.5t278 102.5t278.5 -102.5t108.5 -263.5t-108.5 -263.5t-278.5 -102.5zM304 147h124l169 343v61h-323v-95h185z" />
    <glyph glyph-name="uni2791" unicode="&#x2791;" horiz-adv-x="868" 
d="M434 -16q-170 0 -278 102.5t-108 263.5t108 263.5t278 102.5t278.5 -102.5t108.5 -263.5t-108.5 -263.5t-278.5 -102.5zM434 139q81 0 129.5 34.5t48.5 91.5q0 64 -66 97q49 30 49 82q0 53 -44 85.5t-117 32.5t-117 -32.5t-44 -85.5q0 -52 49 -82q-66 -34 -66 -97
q0 -57 48.5 -91.5t129.5 -34.5zM434 390q-25 0 -41 13.5t-16 34.5q0 20 16 33t41 13q26 0 41.5 -13t15.5 -33q0 -21 -15.5 -34.5t-41.5 -13.5zM434 222q-28 0 -45 14t-17 36t17 35.5t45 13.5t45 -13.5t17 -35.5q0 -23 -17 -36.5t-45 -13.5z" />
    <glyph glyph-name="uni2792" unicode="&#x2792;" horiz-adv-x="868" 
d="M434 -16q-170 0 -278 102.5t-108 263.5t108 263.5t278 102.5t278.5 -102.5t108.5 -263.5t-108.5 -263.5t-278.5 -102.5zM332 147h127l108 161q44 64 44 108q0 63 -49.5 104t-128.5 41t-127.5 -41.5t-48.5 -108.5q0 -52 32 -89t87 -49q13 -3 40 -5zM433 352
q-32 0 -51.5 17.5t-19.5 45.5t19.5 45t51.5 17t51.5 -17t19.5 -46q0 -28 -19.5 -45t-51.5 -17z" />
    <glyph glyph-name="uniF8FF" unicode="&#xf8ff;" horiz-adv-x="750" 
d="M100 -35v768h550v-768h-550zM175 44h400v610h-400v-610zM255 93l-36 185v4h72l15 -131h5l28 131h71l28 -131h6l15 131h71v-4l-37 -185h-97l-11 60l-8 50h-5l-7 -50l-12 -60h-98z" />
    <glyph glyph-name="Jacute" horiz-adv-x="647" 
d="M278 769l-3 4l83 155h159l-108 -159h-131zM298 -16q-120 0 -195.5 64.5t-85.5 181.5h155q18 -111 134 -111q56 0 91 39t35 103v306h-312v133h471v-437q0 -133 -77 -206t-216 -73z" />
    <glyph glyph-name="A.ss01" horiz-adv-x="830" 
d="M26 0l542 700h196v-700h-156v142h-283l-109 -142h-190zM419 272h189v249h-2z" />
    <glyph glyph-name="Aacute.ss01" horiz-adv-x="830" 
d="M595 769l-3 4l83 155h159l-108 -159h-131zM26 0l542 700h196v-700h-156v142h-283l-109 -142h-190zM419 272h189v249h-2z" />
    <glyph glyph-name="Abreve.ss01" horiz-adv-x="830" 
d="M737 931h104q-4 -72 -49.5 -117t-125.5 -45t-125.5 45t-49.5 117h104q9 -70 71 -70t71 70zM26 0l542 700h196v-700h-156v142h-283l-109 -142h-190zM419 272h189v249h-2z" />
    <glyph glyph-name="Acircumflex.ss01" horiz-adv-x="830" 
d="M471 768l125 156h139l125 -156h-131l-63 72l-64 -72h-131zM26 0l542 700h196v-700h-156v142h-283l-109 -142h-190zM419 272h189v249h-2z" />
    <glyph glyph-name="Adieresis.ss01" horiz-adv-x="830" 
d="M470 774v153h164v-153h-164zM697 774v153h165v-153h-165zM26 0l542 700h196v-700h-156v142h-283l-109 -142h-190zM419 272h189v249h-2z" />
    <glyph glyph-name="Agrave.ss01" horiz-adv-x="830" 
d="M737 769h-131l-108 159h159l83 -155zM26 0l542 700h196v-700h-156v142h-283l-109 -142h-190zM419 272h189v249h-2z" />
    <glyph glyph-name="Amacron.ss01" horiz-adv-x="830" 
d="M515 775v110h302v-110h-302zM26 0l542 700h196v-700h-156v142h-283l-109 -142h-190zM419 272h189v249h-2z" />
    <glyph glyph-name="Aogonek.ss01" horiz-adv-x="830" 
d="M792 -73l13 -108q-44 -11 -82 -11q-71 0 -117 31.5t-46 85.5q0 56 48 90v127h-283l-109 -142h-190l542 700h196v-700h-11q-69 -11 -69 -47q0 -33 61 -33q23 0 47 7zM419 272h189v249h-2z" />
    <glyph glyph-name="Aring.ss01" horiz-adv-x="830" 
d="M667 776q-56 0 -91 30.5t-35 80.5t35 80.5t91 30.5t90 -30.5t34 -80.5t-34.5 -80.5t-89.5 -30.5zM666 841q22 0 35.5 13t13.5 33q0 21 -13.5 33.5t-35.5 12.5q-21 0 -35 -12.5t-14 -33.5q0 -20 14 -33t35 -13zM26 0l542 700h196v-700h-156v142h-283l-109 -142h-190z
M419 272h189v249h-2z" />
    <glyph glyph-name="M.ss02" horiz-adv-x="1411" 
d="M1139 700h206v-700h-156v508h-2l-386 -508h-193v508h-2l-386 -508h-194l532 700h206v-494z" />
    <glyph glyph-name="V.ss02" horiz-adv-x="830" 
d="M558 0l-532 700h194l386 -508h2v508h156v-700h-206z" />
    <glyph glyph-name="W.ss02" horiz-adv-x="1411" 
d="M1189 700h156v-700h-206l-375 494v-494h-206l-532 700h194l386 -508h2v508h193l386 -508h2v508z" />
    <glyph glyph-name="Wacute.ss02" horiz-adv-x="1411" 
d="M765 769h-131l-3 4l83 155h159zM1189 700h156v-700h-206l-375 494v-494h-206l-532 700h194l386 -508h2v508h193l386 -508h2v508z" />
    <glyph glyph-name="Wcircumflex.ss02" horiz-adv-x="1411" 
d="M705 840l-64 -72h-131l125 156h139l125 -156h-131zM1189 700h156v-700h-206l-375 494v-494h-206l-532 700h194l386 -508h2v508h193l386 -508h2v508z" />
    <glyph glyph-name="Wdieresis.ss02" horiz-adv-x="1411" 
d="M673 927v-153h-164v153h164zM901 927v-153h-165v153h165zM1189 700h156v-700h-206l-375 494v-494h-206l-532 700h194l386 -508h2v508h193l386 -508h2v508z" />
    <glyph glyph-name="Wgrave.ss02" horiz-adv-x="1411" 
d="M776 769h-131l-108 159h159l83 -155zM1189 700h156v-700h-206l-375 494v-494h-206l-532 700h194l386 -508h2v508h193l386 -508h2v508z" />
    <glyph glyph-name="J.ss03" horiz-adv-x="647" 
d="M298 -16q-120 0 -195.5 64.5t-85.5 181.5h155q18 -111 134 -111q56 0 91 39t35 103v439h159v-437q0 -133 -77 -206t-216 -73z" />
    <glyph glyph-name="Jacute.ss03" horiz-adv-x="647" 
d="M440 769l-3 4l83 155h159l-108 -159h-131zM298 -16q-120 0 -195.5 64.5t-85.5 181.5h155q18 -111 134 -111q56 0 91 39t35 103v439h159v-437q0 -133 -77 -206t-216 -73z" />
    <glyph glyph-name="A.ss04" horiz-adv-x="830" 
d="M804 0h-190l-109 142h-283v-142h-156v700h196zM411 272l-187 249h-2v-249h189z" />
    <glyph glyph-name="Aacute.ss04" horiz-adv-x="830" 
d="M93 769l-3 4l83 155h159l-108 -159h-131zM804 0h-190l-109 142h-283v-142h-156v700h196zM411 272l-187 249h-2v-249h189z" />
    <glyph glyph-name="Abreve.ss04" horiz-adv-x="830" 
d="M235 931h104q-4 -72 -49.5 -117t-125.5 -45t-125.5 45t-49.5 117h104q9 -70 71 -70t71 70zM804 0h-190l-109 142h-283v-142h-156v700h196zM411 272l-187 249h-2v-249h189z" />
    <glyph glyph-name="Acircumflex.ss04" horiz-adv-x="830" 
d="M-31 768l125 156h139l125 -156h-131l-63 72l-64 -72h-131zM804 0h-190l-109 142h-283v-142h-156v700h196zM411 272l-187 249h-2v-249h189z" />
    <glyph glyph-name="Adieresis.ss04" horiz-adv-x="830" 
d="M-32 774v153h164v-153h-164zM195 774v153h165v-153h-165zM804 0h-190l-109 142h-283v-142h-156v700h196zM411 272l-187 249h-2v-249h189z" />
    <glyph glyph-name="Agrave.ss04" horiz-adv-x="830" 
d="M235 769h-131l-108 159h159l83 -155zM804 0h-190l-109 142h-283v-142h-156v700h196zM411 272l-187 249h-2v-249h189z" />
    <glyph glyph-name="Amacron.ss04" horiz-adv-x="830" 
d="M13 775v110h302v-110h-302zM804 0h-190l-109 142h-283v-142h-156v700h196zM411 272l-187 249h-2v-249h189z" />
    <glyph glyph-name="Aogonek.ss04" horiz-adv-x="830" 
d="M793 -73l13 -108q-44 -11 -82 -11q-71 0 -117 31.5t-46 85.5q0 52 44 87l-100 130h-283v-142h-156v700h196l542 -700h-50q-69 -11 -69 -47q0 -33 61 -33q22 0 47 7zM222 272h189l-187 249h-2v-249z" />
    <glyph glyph-name="Aring.ss04" horiz-adv-x="830" 
d="M165 776q-56 0 -91 30.5t-35 80.5t35 80.5t91 30.5t90 -30.5t34 -80.5t-34.5 -80.5t-89.5 -30.5zM164 841q22 0 35.5 13t13.5 33q0 21 -13.5 33.5t-35.5 12.5q-21 0 -35 -12.5t-14 -33.5q0 -20 14 -33t35 -13zM804 0h-190l-109 142h-283v-142h-156v700h196zM411 272
l-187 249h-2v-249h189z" />
    <glyph glyph-name="M.ss05" horiz-adv-x="1411" 
d="M854 700l531 -700h-194l-385 508h-2v-508h-194l-386 508h-2v-508h-156v700h206l376 -495v495h206z" />
    <glyph glyph-name="V.ss05" horiz-adv-x="828" 
d="M269 0h-203v700h156v-508h2l386 508h191z" />
    <glyph glyph-name="W.ss05" horiz-adv-x="1407" 
d="M1189 700h191l-533 -700h-202v495l-376 -495h-203v700h156v-508h2l386 508h191v-508h2z" />
    <glyph glyph-name="Wacute.ss05" horiz-adv-x="1407" 
d="M767 769h-131l-3 4l83 155h159zM1189 700h191l-533 -700h-202v495l-376 -495h-203v700h156v-508h2l386 508h191v-508h2z" />
    <glyph glyph-name="Wcircumflex.ss05" horiz-adv-x="1407" 
d="M707 840l-64 -72h-131l125 156h139l125 -156h-131zM1189 700h191l-533 -700h-202v495l-376 -495h-203v700h156v-508h2l386 508h191v-508h2z" />
    <glyph glyph-name="Wdieresis.ss05" horiz-adv-x="1407" 
d="M675 927v-153h-164v153h164zM903 927v-153h-165v153h165zM1189 700h191l-533 -700h-202v495l-376 -495h-203v700h156v-508h2l386 508h191v-508h2z" />
    <glyph glyph-name="Wgrave.ss05" horiz-adv-x="1407" 
d="M778 769h-131l-108 159h159l83 -155zM1189 700h191l-533 -700h-202v495l-376 -495h-203v700h156v-508h2l386 508h191v-508h2z" />
    <glyph glyph-name="i.loclTRK" horiz-adv-x="276" 
d="M55 725h164v-154h-164v154zM63 0v485h150v-485h-150z" />
    <glyph glyph-name="jacute" horiz-adv-x="279" 
d="M69 565l-3 4l83 155h159l-108 -159h-131zM-30 -249v121l12 2q46 6 65.5 24t19.5 64v523h150v-506q0 -118 -53.5 -173t-167.5 -55h-26z" />
    <glyph glyph-name="v.ss02" horiz-adv-x="667" 
d="M440 0l-425 485h172l265 -302h2v302h150v-485h-164z" />
    <glyph glyph-name="w.ss02" horiz-adv-x="1030" 
d="M410 0l-395 485h172l235 -301h2v301h156l234 -301h3v301h150v-485h-162l-228 280h-3v-280h-164z" />
    <glyph glyph-name="wacute.ss02" horiz-adv-x="1030" 
d="M431 565l-3 4l83 155h159l-108 -159h-131zM410 0l-395 485h172l235 -301h2v301h156l234 -301h3v301h150v-485h-162l-228 280h-3v-280h-164z" />
    <glyph glyph-name="wcircumflex.ss02" horiz-adv-x="1030" 
d="M307 559l125 157h139l125 -157h-131l-63 73l-64 -73h-131zM410 0l-395 485h172l235 -301h2v301h156l234 -301h3v301h150v-485h-162l-228 280h-3v-280h-164z" />
    <glyph glyph-name="wdieresis.ss02" horiz-adv-x="1030" 
d="M306 725h164v-154h-164v154zM533 725h165v-154h-165v154zM410 0l-395 485h172l235 -301h2v301h156l234 -301h3v301h150v-485h-162l-228 280h-3v-280h-164z" />
    <glyph glyph-name="wgrave.ss02" horiz-adv-x="1030" 
d="M573 565h-131l-108 159h159l83 -155zM410 0l-395 485h172l235 -301h2v301h156l234 -301h3v301h150v-485h-162l-228 280h-3v-280h-164z" />
    <glyph glyph-name="y.ss02" horiz-adv-x="665" 
d="M451 485h151v-717h-151v232l-436 485h172l262 -290h2v290z" />
    <glyph glyph-name="yacute.ss02" horiz-adv-x="665" 
d="M393 565h-131l-3 4l83 155h159zM451 485h151v-717h-151v232l-436 485h172l262 -290h2v290z" />
    <glyph glyph-name="ycircumflex.ss02" horiz-adv-x="665" 
d="M333 632l-64 -73h-131l125 157h139l125 -157h-131zM451 485h151v-717h-151v232l-436 485h172l262 -290h2v290z" />
    <glyph glyph-name="ydieresis.ss02" horiz-adv-x="665" 
d="M301 725v-154h-164v154h164zM529 725v-154h-165v154h165zM451 485h151v-717h-151v232l-436 485h172l262 -290h2v290z" />
    <glyph glyph-name="ygrave.ss02" horiz-adv-x="665" 
d="M404 565h-131l-108 159h159l83 -155zM451 485h151v-717h-151v232l-436 485h172l262 -290h2v290z" />
    <glyph glyph-name="uni1EF9.ss02" horiz-adv-x="665" 
d="M404 565q-38 0 -79.5 24t-51.5 24q-22 0 -29 -33h-109q3 63 35.5 101t90.5 38q41 0 81 -24t51 -24q21 0 27 33h108q2 -60 -32.5 -99.5t-91.5 -39.5zM451 485h151v-717h-151v232l-436 485h172l262 -290h2v290z" />
    <glyph glyph-name="v.ss05" horiz-adv-x="667" 
d="M63 0v485h150v-300h2l262 300h175l-425 -485h-164z" />
    <glyph glyph-name="w.ss05" horiz-adv-x="1030" 
d="M63 0v485h150v-300h2l233 300h158v-300h2l233 300h174l-396 -485h-163v280h-3l-229 -280h-161z" />
    <glyph glyph-name="wacute.ss05" horiz-adv-x="1030" 
d="M457 565l-3 4l83 155h159l-108 -159h-131zM63 0v485h150v-300h2l233 300h158v-300h2l233 300h174l-396 -485h-163v280h-3l-229 -280h-161z" />
    <glyph glyph-name="wcircumflex.ss05" horiz-adv-x="1030" 
d="M333 559l125 157h139l125 -157h-131l-63 73l-64 -73h-131zM63 0v485h150v-300h2l233 300h158v-300h2l233 300h174l-396 -485h-163v280h-3l-229 -280h-161z" />
    <glyph glyph-name="wdieresis.ss05" horiz-adv-x="1030" 
d="M332 725h164v-154h-164v154zM559 725h165v-154h-165v154zM63 0v485h150v-300h2l233 300h158v-300h2l233 300h174l-396 -485h-163v280h-3l-229 -280h-161z" />
    <glyph glyph-name="wgrave.ss05" horiz-adv-x="1030" 
d="M599 565h-131l-108 159h159l83 -155zM63 0v485h150v-300h2l233 300h158v-300h2l233 300h174l-396 -485h-163v280h-3l-229 -280h-161z" />
    <glyph glyph-name="y.ss05" horiz-adv-x="665" 
d="M476 485h174l-437 -485v-232h-150v717h150v-289h2z" />
    <glyph glyph-name="yacute.ss05" horiz-adv-x="665" 
d="M392 565h-131l-3 4l83 155h159zM476 485h174l-437 -485v-232h-150v717h150v-289h2z" />
    <glyph glyph-name="ycircumflex.ss05" horiz-adv-x="665" 
d="M332 632l-64 -73h-131l125 157h139l125 -157h-131zM476 485h174l-437 -485v-232h-150v717h150v-289h2z" />
    <glyph glyph-name="ydieresis.ss05" horiz-adv-x="665" 
d="M300 725v-154h-164v154h164zM528 725v-154h-165v154h165zM476 485h174l-437 -485v-232h-150v717h150v-289h2z" />
    <glyph glyph-name="ygrave.ss05" horiz-adv-x="665" 
d="M403 565h-131l-108 159h159l83 -155zM476 485h174l-437 -485v-232h-150v717h150v-289h2z" />
    <glyph glyph-name="uni1EF9.ss05" horiz-adv-x="665" 
d="M403 565q-38 0 -79.5 24t-51.5 24q-22 0 -29 -33h-109q3 63 35.5 101t90.5 38q31 0 57 -12t44.5 -24t30.5 -12q21 0 27 33h108q2 -60 -32.5 -99.5t-91.5 -39.5zM476 485h174l-437 -485v-232h-150v717h150v-289h2z" />
    <glyph glyph-name="a.ss06" horiz-adv-x="606" 
d="M232 -16q-87 0 -140 41t-53 108t56 107.5t148 40.5h158v17q0 41 -27 65.5t-71 24.5q-36 0 -61 -16.5t-30 -43.5h-144q9 77 75.5 125t164.5 48q109 0 176.5 -57t67.5 -150v-294h-145v47h-2q-61 -63 -173 -63zM267 94q62 0 98.5 27t36.5 72h-150q-32 0 -50.5 -12.5
t-18.5 -33.5q0 -24 23 -38.5t61 -14.5z" />
    <glyph glyph-name="aacute.ss06" horiz-adv-x="606" 
d="M234 565l-3 4l83 155h159l-108 -159h-131zM232 -16q-87 0 -140 41t-53 108t56 107.5t148 40.5h158v17q0 41 -27 65.5t-71 24.5q-36 0 -61 -16.5t-30 -43.5h-144q9 77 75.5 125t164.5 48q109 0 176.5 -57t67.5 -150v-294h-145v47h-2q-61 -63 -173 -63zM267 94
q62 0 98.5 27t36.5 72h-150q-32 0 -50.5 -12.5t-18.5 -33.5q0 -24 23 -38.5t61 -14.5z" />
    <glyph glyph-name="abreve.ss06" horiz-adv-x="606" 
d="M376 715h104q-4 -73 -49.5 -118t-125.5 -45t-125.5 45t-49.5 118h104q9 -71 71 -71t71 71zM232 -16q-87 0 -140 41t-53 108t56 107.5t148 40.5h158v17q0 41 -27 65.5t-71 24.5q-36 0 -61 -16.5t-30 -43.5h-144q9 77 75.5 125t164.5 48q109 0 176.5 -57t67.5 -150v-294
h-145v47h-2q-61 -63 -173 -63zM267 94q62 0 98.5 27t36.5 72h-150q-32 0 -50.5 -12.5t-18.5 -33.5q0 -24 23 -38.5t61 -14.5z" />
    <glyph glyph-name="acircumflex.ss06" horiz-adv-x="606" 
d="M110 559l125 157h139l125 -157h-131l-63 73l-64 -73h-131zM232 -16q-87 0 -140 41t-53 108t56 107.5t148 40.5h158v17q0 41 -27 65.5t-71 24.5q-36 0 -61 -16.5t-30 -43.5h-144q9 77 75.5 125t164.5 48q109 0 176.5 -57t67.5 -150v-294h-145v47h-2q-61 -63 -173 -63z
M267 94q62 0 98.5 27t36.5 72h-150q-32 0 -50.5 -12.5t-18.5 -33.5q0 -24 23 -38.5t61 -14.5z" />
    <glyph glyph-name="adieresis.ss06" horiz-adv-x="606" 
d="M109 725h164v-154h-164v154zM336 725h165v-154h-165v154zM232 -16q-87 0 -140 41t-53 108t56 107.5t148 40.5h158v17q0 41 -27 65.5t-71 24.5q-36 0 -61 -16.5t-30 -43.5h-144q9 77 75.5 125t164.5 48q109 0 176.5 -57t67.5 -150v-294h-145v47h-2q-61 -63 -173 -63z
M267 94q62 0 98.5 27t36.5 72h-150q-32 0 -50.5 -12.5t-18.5 -33.5q0 -24 23 -38.5t61 -14.5z" />
    <glyph glyph-name="agrave.ss06" horiz-adv-x="606" 
d="M376 565h-131l-108 159h159l83 -155zM232 -16q-87 0 -140 41t-53 108t56 107.5t148 40.5h158v17q0 41 -27 65.5t-71 24.5q-36 0 -61 -16.5t-30 -43.5h-144q9 77 75.5 125t164.5 48q109 0 176.5 -57t67.5 -150v-294h-145v47h-2q-61 -63 -173 -63zM267 94q62 0 98.5 27
t36.5 72h-150q-32 0 -50.5 -12.5t-18.5 -33.5q0 -24 23 -38.5t61 -14.5z" />
    <glyph glyph-name="amacron.ss06" horiz-adv-x="606" 
d="M154 579v110h302v-110h-302zM232 -16q-87 0 -140 41t-53 108t56 107.5t148 40.5h158v17q0 41 -27 65.5t-71 24.5q-36 0 -61 -16.5t-30 -43.5h-144q9 77 75.5 125t164.5 48q109 0 176.5 -57t67.5 -150v-294h-145v47h-2q-61 -63 -173 -63zM267 94q62 0 98.5 27t36.5 72
h-150q-32 0 -50.5 -12.5t-18.5 -33.5q0 -24 23 -38.5t61 -14.5z" />
    <glyph glyph-name="aogonek.ss06" horiz-adv-x="606" 
d="M589 -73l13 -108q-44 -11 -82 -11q-71 0 -117 31.5t-46 85.5q0 57 50 91v31h-2q-61 -63 -173 -63q-87 0 -140 41t-53 108t56 107.5t148 40.5h158v17q0 41 -27 65.5t-71 24.5q-36 0 -61 -16.5t-30 -43.5h-144q9 77 75.5 125t164.5 48q109 0 176.5 -57t67.5 -150v-294h-2
q-69 -11 -69 -47q0 -33 61 -33q22 0 47 7zM267 94q62 0 98.5 27t36.5 72h-150q-32 0 -50.5 -12.5t-18.5 -33.5q0 -24 23 -38.5t61 -14.5z" />
    <glyph glyph-name="aring.ss06" horiz-adv-x="606" 
d="M306 551q-56 0 -91 30.5t-35 80.5q0 49 35 79.5t91 30.5t90 -30.5t34 -79.5q0 -50 -34 -80.5t-90 -30.5zM305 616q22 0 35.5 12.5t13.5 33.5q0 20 -13.5 33t-35.5 13q-21 0 -35 -13t-14 -33q0 -21 14 -33.5t35 -12.5zM232 -16q-87 0 -140 41t-53 108t56 107.5t148 40.5
h158v17q0 41 -27 65.5t-71 24.5q-36 0 -61 -16.5t-30 -43.5h-144q9 77 75.5 125t164.5 48q109 0 176.5 -57t67.5 -150v-294h-145v47h-2q-61 -63 -173 -63zM267 94q62 0 98.5 27t36.5 72h-150q-32 0 -50.5 -12.5t-18.5 -33.5q0 -24 23 -38.5t61 -14.5z" />
    <glyph glyph-name="atilde.ss06" horiz-adv-x="606" 
d="M376 565q-38 0 -79.5 24t-51.5 24q-22 0 -29 -33h-109q3 63 35.5 101t90.5 38q41 0 81 -24t51 -24q21 0 27 33h108q2 -60 -32.5 -99.5t-91.5 -39.5zM232 -16q-87 0 -140 41t-53 108t56 107.5t148 40.5h158v17q0 41 -27 65.5t-71 24.5q-36 0 -61 -16.5t-30 -43.5h-144
q9 77 75.5 125t164.5 48q109 0 176.5 -57t67.5 -150v-294h-145v47h-2q-61 -63 -173 -63zM267 94q62 0 98.5 27t36.5 72h-150q-32 0 -50.5 -12.5t-18.5 -33.5q0 -24 23 -38.5t61 -14.5z" />
    <glyph glyph-name="ij.ss07" horiz-adv-x="552" 
d="M61 635v137h154v-137h-154zM337 635v137h154v-137h-154zM63 0v485h150v-485h-150zM339 -232v717h150v-717h-150z" />
    <glyph glyph-name="j.ss07" horiz-adv-x="276" 
d="M61 635v137h154v-137h-154zM63 -232v717h150v-717h-150z" />
    <glyph glyph-name="uni0237.ss07" horiz-adv-x="276" 
d="M63 -232v717h150v-717h-150z" />
    <glyph glyph-name="jacute.ss07" horiz-adv-x="276" 
d="M67 565l-3 4l83 155h159l-108 -159h-131zM63 -232v717h150v-717h-150z" />
    <glyph glyph-name="f.ss08" horiz-adv-x="367" 
d="M63 0v572q0 99 62.5 158t167.5 59q41 0 72 -9v-123q-22 5 -41 5q-52 0 -81.5 -24.5t-29.5 -67.5v-85h152v-121h-152v-364h-150z" />
    <glyph glyph-name="t.ss09" horiz-adv-x="408" 
d="M268 -16q-96 0 -154.5 53.5t-58.5 141.5v460h151v-154h157v-121h-157v-168q0 -82 90 -82q19 0 67 6v-124q-42 -12 -95 -12z" />
    <glyph glyph-name="tbar.ss09" horiz-adv-x="428" 
d="M363 364h-157v-53h157v-78h-157v-37q0 -82 90 -82q19 0 67 6v-124q-42 -12 -95 -12q-96 0 -154.5 53.5t-58.5 141.5v460h151v-154h157v-121z" />
    <glyph glyph-name="tcaron.ss09" horiz-adv-x="408" 
d="M266 563l6 201h140l-40 -201h-106zM268 -16q-96 0 -154.5 53.5t-58.5 141.5v460h151v-154h157v-121h-157v-168q0 -82 90 -82q19 0 67 6v-124q-42 -12 -95 -12z" />
    <glyph glyph-name="uni0163.ss09" horiz-adv-x="408" 
d="M363 364h-157v-168q0 -82 90 -82q19 0 67 6v-124q-33 -9 -72 -11l-54 -159h-124l46 181q-49 23 -76.5 68t-27.5 104v460h151v-154h157v-121z" />
    <glyph glyph-name="uni021B.ss09" horiz-adv-x="408" 
d="M268 -16q-96 0 -154.5 53.5t-58.5 141.5v460h151v-154h157v-121h-157v-168q0 -82 90 -82q19 0 67 6v-124q-42 -12 -95 -12zM146 -49h164v-80q0 -78 -36 -114t-126 -48l-13 63q48 13 62.5 25t16.5 37h-68v117z" />
    <glyph glyph-name="u.ss10" horiz-adv-x="634" 
d="M571 485v-485h-148v47h-2q-57 -63 -150 -63q-95 0 -156 62t-61 159v280h150v-260q0 -51 29 -82t77 -31q50 0 80.5 29.5t30.5 78.5v265h150z" />
    <glyph glyph-name="uacute.ss10" horiz-adv-x="634" 
d="M246 565l-3 4l83 155h159l-108 -159h-131zM571 485v-485h-148v47h-2q-57 -63 -150 -63q-95 0 -156 62t-61 159v280h150v-260q0 -51 29 -82t77 -31q50 0 80.5 29.5t30.5 78.5v265h150z" />
    <glyph glyph-name="ucircumflex.ss10" horiz-adv-x="634" 
d="M122 559l125 157h139l125 -157h-131l-63 73l-64 -73h-131zM571 485v-485h-148v47h-2q-57 -63 -150 -63q-95 0 -156 62t-61 159v280h150v-260q0 -51 29 -82t77 -31q50 0 80.5 29.5t30.5 78.5v265h150z" />
    <glyph glyph-name="udieresis.ss10" horiz-adv-x="634" 
d="M121 725h164v-154h-164v154zM348 725h165v-154h-165v154zM571 485v-485h-148v47h-2q-57 -63 -150 -63q-95 0 -156 62t-61 159v280h150v-260q0 -51 29 -82t77 -31q50 0 80.5 29.5t30.5 78.5v265h150z" />
    <glyph glyph-name="ugrave.ss10" horiz-adv-x="634" 
d="M388 565h-131l-108 159h159l83 -155zM571 485v-485h-148v47h-2q-57 -63 -150 -63q-95 0 -156 62t-61 159v280h150v-260q0 -51 29 -82t77 -31q50 0 80.5 29.5t30.5 78.5v265h150z" />
    <glyph glyph-name="uhungarumlaut.ss10" horiz-adv-x="634" 
d="M178 565l-2 3l61 156h138l-83 -159h-114zM344 565l-3 3l62 156h137l-82 -159h-114zM571 485v-485h-148v47h-2q-57 -63 -150 -63q-95 0 -156 62t-61 159v280h150v-260q0 -51 29 -82t77 -31q50 0 80.5 29.5t30.5 78.5v265h150z" />
    <glyph glyph-name="umacron.ss10" horiz-adv-x="634" 
d="M166 579v110h302v-110h-302zM571 485v-485h-148v47h-2q-57 -63 -150 -63q-95 0 -156 62t-61 159v280h150v-260q0 -51 29 -82t77 -31q50 0 80.5 29.5t30.5 78.5v265h150z" />
    <glyph glyph-name="uogonek.ss10" horiz-adv-x="634" 
d="M604 -73l13 -108q-44 -11 -82 -11q-71 0 -117 31.5t-46 85.5q0 56 51 92v30h-2q-57 -63 -150 -63q-95 0 -156 62t-61 159v280h150v-260q0 -51 29 -82t77 -31q50 0 80.5 29.5t30.5 78.5v265h150v-485h-6q-69 -11 -69 -47q0 -33 61 -33q23 0 47 7z" />
    <glyph glyph-name="uring.ss10" horiz-adv-x="634" 
d="M318 551q-56 0 -91 30.5t-35 80.5q0 49 35 79.5t91 30.5t90 -30.5t34 -79.5q0 -50 -34 -80.5t-90 -30.5zM317 616q22 0 35.5 12.5t13.5 33.5q0 20 -13.5 33t-35.5 13q-21 0 -35 -13t-14 -33q0 -21 14 -33.5t35 -12.5zM571 485v-485h-148v47h-2q-57 -63 -150 -63
q-95 0 -156 62t-61 159v280h150v-260q0 -51 29 -82t77 -31q50 0 80.5 29.5t30.5 78.5v265h150z" />
    <glyph glyph-name="utilde.ss10" horiz-adv-x="634" 
d="M388 565q-38 0 -79.5 24t-51.5 24q-22 0 -29 -33h-109q3 63 35.5 101t90.5 38q41 0 81 -24t51 -24q21 0 27 33h108q2 -60 -32.5 -99.5t-91.5 -39.5zM571 485v-485h-148v47h-2q-57 -63 -150 -63q-95 0 -156 62t-61 159v280h150v-260q0 -51 29 -82t77 -31q50 0 80.5 29.5
t30.5 78.5v265h150z" />
    <glyph glyph-name="y.ss11" horiz-adv-x="664" 
d="M155 -249q-50 0 -90 10v126q33 -6 63 -6q48 0 75 15t43 50l20 44l-247 495h160l161 -326h2l145 326h159l-259 -576q-70 -158 -232 -158z" />
    <glyph glyph-name="yacute.ss11" horiz-adv-x="664" 
d="M262 565l-3 4l83 155h159l-108 -159h-131zM155 -249q-50 0 -90 10v126q33 -6 63 -6q48 0 75 15t43 50l20 44l-247 495h160l161 -326h2l145 326h159l-259 -576q-70 -158 -232 -158z" />
    <glyph glyph-name="ycircumflex.ss11" horiz-adv-x="664" 
d="M138 559l125 157h139l125 -157h-131l-63 73l-64 -73h-131zM155 -249q-50 0 -90 10v126q33 -6 63 -6q48 0 75 15t43 50l20 44l-247 495h160l161 -326h2l145 326h159l-259 -576q-70 -158 -232 -158z" />
    <glyph glyph-name="ydieresis.ss11" horiz-adv-x="664" 
d="M137 725h164v-154h-164v154zM364 725h165v-154h-165v154zM155 -249q-50 0 -90 10v126q33 -6 63 -6q48 0 75 15t43 50l20 44l-247 495h160l161 -326h2l145 326h159l-259 -576q-70 -158 -232 -158z" />
    <glyph glyph-name="ygrave.ss11" horiz-adv-x="664" 
d="M404 565h-131l-108 159h159l83 -155zM155 -249q-50 0 -90 10v126q33 -6 63 -6q48 0 75 15t43 50l20 44l-247 495h160l161 -326h2l145 326h159l-259 -576q-70 -158 -232 -158z" />
    <glyph glyph-name="y.ss12" horiz-adv-x="637" 
d="M309 -249q-119 0 -188.5 56t-79.5 146h149q8 -35 38 -57.5t83 -22.5q49 0 81 29t32 82v65h-2q-68 -63 -154 -63q-91 0 -150 62t-59 159v278h150v-258q0 -51 28.5 -81.5t76.5 -30.5q50 0 80 29t30 78v263h151v-498q0 -106 -72.5 -171t-193.5 -65z" />
    <glyph glyph-name="yacute.ss12" horiz-adv-x="637" 
d="M247 565l-3 4l83 155h159l-108 -159h-131zM309 -249q-119 0 -188.5 56t-79.5 146h149q8 -35 38 -57.5t83 -22.5q49 0 81 29t32 82v65h-2q-68 -63 -154 -63q-91 0 -150 62t-59 159v278h150v-258q0 -51 28.5 -81.5t76.5 -30.5q50 0 80 29t30 78v263h151v-498
q0 -106 -72.5 -171t-193.5 -65z" />
    <glyph glyph-name="ycircumflex.ss12" horiz-adv-x="637" 
d="M123 559l125 157h139l125 -157h-131l-63 73l-64 -73h-131zM309 -249q-119 0 -188.5 56t-79.5 146h149q8 -35 38 -57.5t83 -22.5q49 0 81 29t32 82v65h-2q-68 -63 -154 -63q-91 0 -150 62t-59 159v278h150v-258q0 -51 28.5 -81.5t76.5 -30.5q50 0 80 29t30 78v263h151
v-498q0 -106 -72.5 -171t-193.5 -65z" />
    <glyph glyph-name="ydieresis.ss12" horiz-adv-x="637" 
d="M122 725h164v-154h-164v154zM349 725h165v-154h-165v154zM309 -249q-119 0 -188.5 56t-79.5 146h149q8 -35 38 -57.5t83 -22.5q49 0 81 29t32 82v65h-2q-68 -63 -154 -63q-91 0 -150 62t-59 159v278h150v-258q0 -51 28.5 -81.5t76.5 -30.5q50 0 80 29t30 78v263h151v-498
q0 -106 -72.5 -171t-193.5 -65z" />
    <glyph glyph-name="ygrave.ss12" horiz-adv-x="637" 
d="M389 565h-131l-108 159h159l83 -155zM309 -249q-119 0 -188.5 56t-79.5 146h149q8 -35 38 -57.5t83 -22.5q49 0 81 29t32 82v65h-2q-68 -63 -154 -63q-91 0 -150 62t-59 159v278h150v-258q0 -51 28.5 -81.5t76.5 -30.5q50 0 80 29t30 78v263h151v-498q0 -106 -72.5 -171
t-193.5 -65z" />
    <glyph glyph-name="germandbls.ss13" horiz-adv-x="650" 
d="M454 411q73 -20 115.5 -76t42.5 -134q0 -99 -65.5 -158t-175.5 -59q-54 0 -105 19v128q37 -17 78 -17q51 0 82 29t31 76t-31.5 76.5t-83.5 29.5h-42v94l64 80q37 47 37 93q0 32 -25.5 51.5t-67.5 19.5q-43 0 -69 -22t-26 -59v-814h-150v815q0 93 66.5 149.5t175.5 56.5
t176 -50.5t67 -133.5q0 -72 -54 -145z" />
    <glyph glyph-name="C_A" horiz-adv-x="1123" 
d="M861 700h195v-700h-156v142h-283l-109 -142h-82q-172 0 -275 94t-103 257q0 164 104 264.5t274 100.5q121 0 212 -57l-97 -114q-46 32 -114 32q-99 0 -159.5 -62.5t-60.5 -163.5q0 -99 59 -154.5t160 -57.5zM900 272v249h-2l-186 -249h188z" />
    <glyph glyph-name="E_A" horiz-adv-x="1093" 
d="M831 700h196v-700h-156v142h-283l-9 -12h23v-130h-536v700h536v-130h-379v-159h330v-71zM871 272v249h-2l-187 -249h189zM223 130h167l118 152h-285v-152z" />
    <glyph glyph-name="F_A" horiz-adv-x="1075" 
d="M813 700h195v-700h-155v142h-283l-110 -142h-189l202 261h-250v-261h-157v700h482v-130h-325v-180h275v-97zM853 272v249h-3l-186 -249h189z" />
    <glyph glyph-name="G_A" horiz-adv-x="1246" 
d="M984 700h196v-700h-156v142h-286q-94 -157 -313 -157q-169 0 -273 101t-104 265t103.5 264.5t273.5 100.5q146 0 240 -72t123 -187h-164q-23 58 -75.5 89t-121.5 31q-99 0 -159.5 -62.5t-60.5 -163.5q0 -103 61 -165.5t159 -62.5q73 0 124.5 35.5t67.5 96.5h-203v123h319
zM1024 272v249h-2l-187 -249h189z" />
    <glyph glyph-name="H_T" horiz-adv-x="1170" 
d="M66 0v700h157v-288h324v155h-184v133h341v-700h-157v278h-324v-278h-157zM794 0v700h350v-133h-193v-567h-157z" />
    <glyph glyph-name="K_A" horiz-adv-x="1147" 
d="M885 700h195v-700h-156v142h-283l-14 -18l124 -124h-198l-12 12l-9 -12h-189l91 118l-211 209v-327h-157v700h157v-337l308 337h189l-319 -350l120 -120zM924 272v249h-2l-186 -249h188z" />
    <glyph glyph-name="L_A" horiz-adv-x="1007" 
d="M745 700h196v-700h-156v142h-283l-9 -12h96v-130h-523v700h157v-570h81zM785 272v249h-2l-187 -249h189z" />
    <glyph glyph-name="L_L" horiz-adv-x="622" 
d="M223 130h366v-130h-523v700h157v-570zM463 344h126v-130h-275v486h149v-356z" />
    <glyph glyph-name="N_T" horiz-adv-x="1184" 
d="M368 700h350v-700h-119l-376 429v-429h-157v700h116l379 -439v306h-193v133zM808 700h350v-133h-193v-567h-157v700z" />
    <glyph glyph-name="R_A" horiz-adv-x="1273" 
d="M1011 700h196v-700h-156v142h-283l-81 -106l29 -36h-246l29 37l-149 190h-127v-227h-157v700h312q130 0 207 -63.5t77 -172.5q0 -159 -147 -213l76 -95zM223 569v-210h133q69 0 109.5 27.5t40.5 77.5q0 48 -39 76.5t-103 28.5h-141zM1051 272v249h-2l-186 -249h188z" />
    <glyph glyph-name="T_H" horiz-adv-x="1170" 
d="M26 567v133h350v-700h-157v567h-193zM947 700h157v-700h-157v278h-324v-278h-157v700h341v-133h-184v-155h324v288z" />
    <glyph glyph-name="T_U" horiz-adv-x="1181" 
d="M26 567v133h350v-700h-157v567h-193zM967 700h158v-393q0 -149 -89 -236t-240 -87q-152 0 -241 87t-89 236v393h350v-133h-192v-262q0 -83 47 -133t125 -50q77 0 124 50t47 133v395z" />
    <glyph glyph-name="U_T" horiz-adv-x="1181" 
d="M365 700h350v-393q0 -149 -89 -236t-241 -87q-151 0 -240 87t-89 236v393h158v-395q0 -83 47 -133t124 -50q78 0 125 50t47 133v262h-192v133zM805 700h350v-133h-193v-567h-157v700z" />
    <glyph glyph-name="f_b" horiz-adv-x="1078" 
d="M119 0v364h-114v121h114v87q0 99 63 158t168 59q41 0 72 -9v-123q-23 5 -41 5q-52 0 -81.5 -24.5t-29.5 -67.5v-85h152v-121h-152v-364h-151zM793 501q108 0 177.5 -72.5t69.5 -186.5q0 -113 -70 -185.5t-179 -72.5q-92 0 -154 63h-2v-47h-148v772h150v-334h2
q57 63 154 63zM764 101q56 0 92 39.5t36 101.5q0 63 -36 102.5t-92 39.5t-91.5 -39.5t-35.5 -102.5q0 -62 35.5 -101.5t91.5 -39.5z" />
    <glyph glyph-name="f_f_b" horiz-adv-x="1502" 
d="M119 0v364h-114v121h114v87q0 99 63 158t168 59q41 0 72 -9v-123q-23 5 -41 5q-52 0 -81.5 -24.5t-29.5 -67.5v-85h152v-121h-152v-364h-151zM543 0v364h-114v121h114v87q0 99 63 158t168 59q41 0 72 -9v-123q-23 5 -41 5q-52 0 -81.5 -24.5t-29.5 -67.5v-85h152v-121
h-152v-364h-151zM1217 501q108 0 177.5 -72.5t69.5 -186.5q0 -113 -70 -185.5t-179 -72.5q-92 0 -154 63h-2v-47h-148v772h150v-334h2q57 63 154 63zM1188 101q56 0 92 39.5t36 101.5q0 63 -36 102.5t-92 39.5t-91.5 -39.5t-35.5 -102.5q0 -62 35.5 -101.5t91.5 -39.5z" />
    <glyph glyph-name="f_f_f" horiz-adv-x="1272" 
d="M119 0v364h-114v121h114v87q0 99 63 158t168 59q41 0 72 -9v-123q-23 5 -41 5q-52 0 -81.5 -24.5t-29.5 -67.5v-85h152v-121h-152v-364h-151zM543 0v364h-114v121h114v87q0 99 63 158t168 59q41 0 72 -9v-123q-23 5 -41 5q-52 0 -81.5 -24.5t-29.5 -67.5v-85h152v-121
h-152v-364h-151zM967 0v364h-114v121h114v87q0 99 63 158t168 59q41 0 72 -9v-123q-23 5 -41 5q-52 0 -81.5 -24.5t-29.5 -67.5v-85h152v-121h-152v-364h-151z" />
    <glyph glyph-name="f_f_h" horiz-adv-x="1482" 
d="M119 0v364h-114v121h114v87q0 99 63 158t168 59q41 0 72 -9v-123q-23 5 -41 5q-52 0 -81.5 -24.5t-29.5 -67.5v-85h152v-121h-152v-364h-151zM543 0v364h-114v121h114v87q0 99 63 158t168 59q41 0 72 -9v-123q-23 5 -41 5q-52 0 -81.5 -24.5t-29.5 -67.5v-85h152v-121
h-152v-364h-151zM911 0v772h150v-334h2q60 63 152 63q94 0 153.5 -62t59.5 -159v-280h-151v260q0 51 -28.5 82t-76.5 31q-50 0 -80.5 -29.5t-30.5 -78.5v-265h-150z" />
    <glyph glyph-name="f_f_j" horiz-adv-x="1127" 
d="M119 0v364h-114v121h114v87q0 99 63 158t168 59q41 0 72 -9v-123q-23 5 -41 5q-52 0 -81.5 -24.5t-29.5 -67.5v-85h152v-121h-152v-364h-151zM543 0v364h-114v121h114v87q0 99 63 158t168 59q41 0 72 -9v-123q-23 5 -41 5q-52 0 -81.5 -24.5t-29.5 -67.5v-85h152v-121
h-152v-364h-151zM912 635v137h154v-137h-154zM817 -249v121l12 2q46 6 65.5 24t19.5 65v522h151v-506q0 -118 -54 -173t-168 -55h-26z" />
    <glyph glyph-name="f_f_k" horiz-adv-x="1476" 
d="M119 0v364h-114v121h114v87q0 99 63 158t168 59q41 0 72 -9v-123q-23 5 -41 5q-52 0 -81.5 -24.5t-29.5 -67.5v-85h152v-121h-152v-364h-151zM543 0v364h-114v121h114v87q0 99 63 158t168 59q41 0 72 -9v-123q-23 5 -41 5q-52 0 -81.5 -24.5t-29.5 -67.5v-85h152v-121
h-152v-364h-151zM911 0v772h150v-530l206 243h171l-205 -243l235 -242h-188l-219 225v-225h-150z" />
    <glyph glyph-name="f_f_thorn" horiz-adv-x="1502" 
d="M119 0v364h-114v121h114v87q0 99 63 158t168 59q41 0 72 -9v-123q-23 5 -41 5q-52 0 -81.5 -24.5t-29.5 -67.5v-85h152v-121h-152v-364h-151zM543 0v364h-114v121h114v87q0 99 63 158t168 59q41 0 72 -9v-123q-23 5 -41 5q-52 0 -81.5 -24.5t-29.5 -67.5v-85h152v-121
h-152v-364h-151zM911 -232v1004h150v-335h2q63 64 155 64q108 0 177 -72.5t69 -186.5q0 -115 -70.5 -187t-175.5 -72q-92 0 -155 65h-2v-280h-150zM1188 101q56 0 92 39.5t36 101.5q0 63 -36 102.5t-92 39.5t-91.5 -39.5t-35.5 -102.5q0 -62 35.5 -101.5t91.5 -39.5z" />
    <glyph glyph-name="f_h" horiz-adv-x="1058" 
d="M119 0v364h-114v121h114v87q0 99 63 158t168 59q41 0 72 -9v-123q-23 5 -41 5q-52 0 -81.5 -24.5t-29.5 -67.5v-85h152v-121h-152v-364h-151zM487 0v772h150v-334h2q60 63 152 63q94 0 153.5 -62t59.5 -159v-280h-151v260q0 51 -28.5 82t-76.5 31q-50 0 -80.5 -29.5
t-30.5 -78.5v-265h-150z" />
    <glyph glyph-name="f_j" horiz-adv-x="703" 
d="M119 0v364h-114v121h114v87q0 99 63 158t168 59q41 0 72 -9v-123q-23 5 -41 5q-52 0 -81.5 -24.5t-29.5 -67.5v-85h152v-121h-152v-364h-151zM488 635v137h154v-137h-154zM393 -249v121l12 2q46 6 65.5 24t19.5 65v522h151v-506q0 -118 -54 -173t-168 -55h-26z" />
    <glyph glyph-name="f_k" horiz-adv-x="1052" 
d="M119 0v364h-114v121h114v87q0 99 63 158t168 59q41 0 72 -9v-123q-23 5 -41 5q-52 0 -81.5 -24.5t-29.5 -67.5v-85h152v-121h-152v-364h-151zM487 0v772h150v-530l206 243h171l-205 -243l235 -242h-188l-219 225v-225h-150z" />
    <glyph glyph-name="f_thorn" horiz-adv-x="1078" 
d="M119 0v364h-114v121h114v87q0 99 63 158t168 59q41 0 72 -9v-123q-23 5 -41 5q-52 0 -81.5 -24.5t-29.5 -67.5v-85h152v-121h-152v-364h-151zM487 -232v1004h150v-335h2q63 64 155 64q108 0 177 -72.5t69 -186.5q0 -115 -70.5 -187t-175.5 -72q-92 0 -155 65h-2v-280
h-150zM764 101q56 0 92 39.5t36 101.5q0 63 -36 102.5t-92 39.5t-91.5 -39.5t-35.5 -102.5q0 -62 35.5 -101.5t91.5 -39.5z" />
    <glyph glyph-name="f_f_j.ss07" horiz-adv-x="1124" 
d="M119 0v364h-114v121h114v87q0 99 63 158t168 59q41 0 72 -9v-123q-23 5 -41 5q-52 0 -81.5 -24.5t-29.5 -67.5v-85h152v-121h-152v-364h-151zM543 0v364h-114v121h114v87q0 99 63 158t168 59q41 0 72 -9v-123q-23 5 -41 5q-52 0 -81.5 -24.5t-29.5 -67.5v-85h152v-121
h-152v-364h-151zM909 635v137h154v-137h-154zM911 -232v717h150v-717h-150z" />
    <glyph glyph-name="f_j.ss07" horiz-adv-x="700" 
d="M119 0v364h-114v121h114v87q0 99 63 158t168 59q41 0 72 -9v-123q-23 5 -41 5q-52 0 -81.5 -24.5t-29.5 -67.5v-85h152v-121h-152v-364h-151zM485 635v137h154v-137h-154zM487 -232v717h150v-717h-150z" />
    <glyph glyph-name="f_b.ss08" horiz-adv-x="1021" 
d="M63 0v572q0 99 62.5 158t167.5 59q41 0 72 -9v-123q-22 5 -41 5q-52 0 -81.5 -24.5t-29.5 -67.5v-85h152v-121h-152v-364h-150zM736 501q108 0 177.5 -72.5t69.5 -186.5q0 -113 -70 -185.5t-179 -72.5q-92 0 -154 63h-2v-47h-148v772h150v-334h2q57 63 154 63zM707 101
q56 0 92 39.5t36 101.5q0 63 -36 102.5t-92 39.5t-91.5 -39.5t-35.5 -102.5q0 -62 35.5 -101.5t91.5 -39.5z" />
    <glyph glyph-name="f_f.ss08" horiz-adv-x="734" 
d="M63 0v572q0 99 62.5 158t167.5 59q41 0 72 -9v-123q-22 5 -41 5q-52 0 -81.5 -24.5t-29.5 -67.5v-85h152v-121h-152v-364h-150zM430 0v572q0 99 62.5 158t167.5 59q41 0 72 -9v-123q-22 5 -41 5q-52 0 -81.5 -24.5t-29.5 -67.5v-85h152v-121h-152v-364h-150z" />
    <glyph glyph-name="f_f_b.ss08" horiz-adv-x="1388" 
d="M63 0v572q0 99 62.5 158t167.5 59q41 0 72 -9v-123q-22 5 -41 5q-52 0 -81.5 -24.5t-29.5 -67.5v-85h152v-121h-152v-364h-150zM430 0v572q0 99 62.5 158t167.5 59q41 0 72 -9v-123q-22 5 -41 5q-52 0 -81.5 -24.5t-29.5 -67.5v-85h152v-121h-152v-364h-150zM1103 501
q108 0 177.5 -72.5t69.5 -186.5q0 -113 -70 -185.5t-179 -72.5q-92 0 -154 63h-2v-47h-148v772h150v-334h2q57 63 154 63zM1074 101q56 0 92 39.5t36 101.5q0 63 -36 102.5t-92 39.5t-91.5 -39.5t-35.5 -102.5q0 -62 35.5 -101.5t91.5 -39.5z" />
    <glyph glyph-name="f_f_f.ss08" horiz-adv-x="1101" 
d="M63 0v572q0 99 62.5 158t167.5 59q41 0 72 -9v-123q-22 5 -41 5q-52 0 -81.5 -24.5t-29.5 -67.5v-85h152v-121h-152v-364h-150zM430 0v572q0 99 62.5 158t167.5 59q41 0 72 -9v-123q-22 5 -41 5q-52 0 -81.5 -24.5t-29.5 -67.5v-85h152v-121h-152v-364h-150zM797 0v572
q0 99 62.5 158t167.5 59q41 0 72 -9v-123q-22 5 -41 5q-52 0 -81.5 -24.5t-29.5 -67.5v-85h152v-121h-152v-364h-150z" />
    <glyph glyph-name="f_f_h.ss08" horiz-adv-x="1368" 
d="M63 0v572q0 99 62.5 158t167.5 59q41 0 72 -9v-123q-22 5 -41 5q-52 0 -81.5 -24.5t-29.5 -67.5v-85h152v-121h-152v-364h-150zM430 0v572q0 99 62.5 158t167.5 59q41 0 72 -9v-123q-22 5 -41 5q-52 0 -81.5 -24.5t-29.5 -67.5v-85h152v-121h-152v-364h-150zM797 0v772
h150v-334h2q60 63 152 63q94 0 153.5 -62t59.5 -159v-280h-151v260q0 51 -28.5 82t-76.5 31q-50 0 -80.5 -29.5t-30.5 -78.5v-265h-150z" />
    <glyph glyph-name="f_f_i.ss08" horiz-adv-x="1010" 
d="M63 0v572q0 99 62.5 158t167.5 59q41 0 72 -9v-123q-22 5 -41 5q-52 0 -81.5 -24.5t-29.5 -67.5v-85h152v-121h-152v-364h-150zM430 0v572q0 99 62.5 158t167.5 59q41 0 72 -9v-123q-22 5 -41 5q-52 0 -81.5 -24.5t-29.5 -67.5v-85h152v-121h-152v-364h-150zM795 635v137
h154v-137h-154zM797 0v485h150v-485h-150z" />
    <glyph glyph-name="f_f_j.ss08" horiz-adv-x="1013" 
d="M63 0v572q0 99 62.5 158t167.5 59q41 0 72 -9v-123q-22 5 -41 5q-52 0 -81.5 -24.5t-29.5 -67.5v-85h152v-121h-152v-364h-150zM430 0v572q0 99 62.5 158t167.5 59q41 0 72 -9v-123q-22 5 -41 5q-52 0 -81.5 -24.5t-29.5 -67.5v-85h152v-121h-152v-364h-150zM798 635v137
h154v-137h-154zM703 -249v121l12 2q46 6 65.5 24t19.5 65v522h151v-506q0 -118 -54 -173t-168 -55h-26z" />
    <glyph glyph-name="f_f_k.ss08" horiz-adv-x="1362" 
d="M63 0v572q0 99 62.5 158t167.5 59q41 0 72 -9v-123q-22 5 -41 5q-52 0 -81.5 -24.5t-29.5 -67.5v-85h152v-121h-152v-364h-150zM430 0v572q0 99 62.5 158t167.5 59q41 0 72 -9v-123q-22 5 -41 5q-52 0 -81.5 -24.5t-29.5 -67.5v-85h152v-121h-152v-364h-150zM797 0v772
h150v-530l206 243h171l-205 -243l235 -242h-188l-219 225v-225h-150z" />
    <glyph glyph-name="f_f_l.ss08" horiz-adv-x="1010" 
d="M63 0v572q0 99 62.5 158t167.5 59q41 0 72 -9v-123q-22 5 -41 5q-52 0 -81.5 -24.5t-29.5 -67.5v-85h152v-121h-152v-364h-150zM430 0v572q0 99 62.5 158t167.5 59q41 0 72 -9v-123q-22 5 -41 5q-52 0 -81.5 -24.5t-29.5 -67.5v-85h152v-121h-152v-364h-150zM797 0v772
h150v-772h-150z" />
    <glyph glyph-name="f_f_thorn.ss08" horiz-adv-x="1388" 
d="M63 0v572q0 99 62.5 158t167.5 59q41 0 72 -9v-123q-22 5 -41 5q-52 0 -81.5 -24.5t-29.5 -67.5v-85h152v-121h-152v-364h-150zM430 0v572q0 99 62.5 158t167.5 59q41 0 72 -9v-123q-22 5 -41 5q-52 0 -81.5 -24.5t-29.5 -67.5v-85h152v-121h-152v-364h-150zM797 -232
v1004h150v-335h2q63 64 155 64q108 0 177 -72.5t69 -186.5q0 -115 -70.5 -187t-175.5 -72q-92 0 -155 65h-2v-280h-150zM1074 101q56 0 92 39.5t36 101.5q0 63 -36 102.5t-92 39.5t-91.5 -39.5t-35.5 -102.5q0 -62 35.5 -101.5t91.5 -39.5z" />
    <glyph glyph-name="f_h.ss08" horiz-adv-x="1001" 
d="M63 0v572q0 99 62.5 158t167.5 59q41 0 72 -9v-123q-22 5 -41 5q-52 0 -81.5 -24.5t-29.5 -67.5v-85h152v-121h-152v-364h-150zM430 0v772h150v-334h2q60 63 152 63q94 0 153.5 -62t59.5 -159v-280h-151v260q0 51 -28.5 82t-76.5 31q-50 0 -80.5 -29.5t-30.5 -78.5v-265
h-150z" />
    <glyph glyph-name="f_j.ss08" horiz-adv-x="646" 
d="M63 0v572q0 99 62.5 158t167.5 59q41 0 72 -9v-123q-22 5 -41 5q-52 0 -81.5 -24.5t-29.5 -67.5v-85h152v-121h-152v-364h-150zM431 635v137h154v-137h-154zM336 -249v121l12 2q46 6 65.5 24t19.5 65v522h151v-506q0 -118 -54 -173t-168 -55h-26z" />
    <glyph glyph-name="f_k.ss08" horiz-adv-x="995" 
d="M63 0v572q0 99 62.5 158t167.5 59q41 0 72 -9v-123q-22 5 -41 5q-52 0 -81.5 -24.5t-29.5 -67.5v-85h152v-121h-152v-364h-150zM430 0v772h150v-530l206 243h171l-205 -243l235 -242h-188l-219 225v-225h-150z" />
    <glyph glyph-name="f_thorn.ss08" horiz-adv-x="1021" 
d="M63 0v572q0 99 62.5 158t167.5 59q41 0 72 -9v-123q-22 5 -41 5q-52 0 -81.5 -24.5t-29.5 -67.5v-85h152v-121h-152v-364h-150zM430 -232v1004h150v-335h2q63 64 155 64q108 0 177 -72.5t69 -186.5q0 -115 -70.5 -187t-175.5 -72q-92 0 -155 65h-2v-280h-150zM707 101
q56 0 92 39.5t36 101.5q0 63 -36 102.5t-92 39.5t-91.5 -39.5t-35.5 -102.5q0 -62 35.5 -101.5t91.5 -39.5z" />
    <glyph glyph-name="fi.ss08" horiz-adv-x="643" 
d="M63 0v572q0 99 62.5 158t167.5 59q41 0 72 -9v-123q-22 5 -41 5q-52 0 -81.5 -24.5t-29.5 -67.5v-85h152v-121h-152v-364h-150zM428 635v137h154v-137h-154zM430 0v485h150v-485h-150z" />
    <glyph glyph-name="fl.ss08" horiz-adv-x="643" 
d="M63 0v572q0 99 62.5 158t167.5 59q41 0 72 -9v-123q-22 5 -41 5q-52 0 -81.5 -24.5t-29.5 -67.5v-85h152v-121h-152v-364h-150zM430 0v772h150v-772h-150z" />
    <glyph glyph-name="zero.closecirc" horiz-adv-x="868" 
d="M434 -16q-170 0 -278 102.5t-108 263.5t108 263.5t278 102.5t278.5 -102.5t108.5 -263.5t-108.5 -263.5t-278.5 -102.5zM434 137q83 0 134 48.5t51 128.5v72q0 80 -51 128.5t-134 48.5t-133.5 -48.5t-50.5 -128.5v-72q0 -80 50.5 -128.5t133.5 -48.5zM434 230
q-34 0 -55 23t-21 61v72q0 38 21 61t55 23q35 0 55.5 -23t20.5 -61v-72q0 -38 -20.5 -61t-55.5 -23z" />
    <glyph glyph-name="zero.opencirc" horiz-adv-x="868" 
d="M434 -16q-170 0 -278 102.5t-108 263.5t108 263.5t278 102.5t278.5 -102.5t108.5 -263.5t-108.5 -263.5t-278.5 -102.5zM434 56q133 0 218.5 82.5t85.5 211.5t-85.5 211.5t-218.5 82.5t-218.5 -82.5t-85.5 -211.5t85.5 -211.5t218.5 -82.5zM434 137q-83 0 -133.5 48.5
t-50.5 128.5v72q0 80 50.5 128.5t133.5 48.5t134 -48.5t51 -128.5v-72q0 -80 -51 -128.5t-134 -48.5zM434 230q35 0 55.5 23t20.5 61v72q0 38 -20.5 61t-55.5 23q-34 0 -55 -23t-21 -61v-72q0 -38 21 -61t55 -23z" />
    <glyph glyph-name="zero.osf" horiz-adv-x="592" 
d="M296 -15q-116 0 -186.5 65t-70.5 172v92q0 106 70.5 171t186.5 65q115 0 186 -65t71 -171v-92q0 -107 -71 -172t-186 -65zM296 109q52 0 84 31.5t32 83.5v87q0 52 -31.5 83.5t-84.5 31.5t-84.5 -31.5t-31.5 -83.5v-87q0 -52 32 -83.5t84 -31.5z" />
    <glyph glyph-name="one.osf" horiz-adv-x="387" 
d="M179 0v415h-174v128h327v-543h-153z" />
    <glyph glyph-name="two.osf" horiz-adv-x="595" 
d="M49 0v76l229 147q105 62 105 119q0 35 -26 57t-69 22q-48 0 -76 -27.5t-32 -68.5h-147q6 105 77 165t180 60q115 0 182 -55.5t67 -145.5t-108 -166l-90 -62l211 -1v-120h-503z" />
    <glyph glyph-name="three.osf" horiz-adv-x="599" 
d="M375 252q89 -16 140.5 -68t51.5 -128q0 -94 -72 -152t-189 -58q-115 0 -188 54t-83 152h145q9 -38 40 -62t85 -24q53 0 85 25.5t32 65.5t-34.5 65t-89.5 25h-85v111h1l146 158h-293v127h480v-105z" />
    <glyph glyph-name="four.osf" horiz-adv-x="685" 
d="M650 113v-124h-96v-127h-148v127h-371v95l283 459h236v-430h96zM204 113h202v325z" />
    <glyph glyph-name="five.osf" horiz-adv-x="635" 
d="M342 300q105 0 176.5 -60.5t71.5 -158.5q0 -103 -75.5 -168t-194.5 -65q-117 0 -192.5 56t-89.5 154h148q10 -38 44.5 -64t89.5 -26q57 0 92 30t35 80q0 47 -36 75t-96 28t-105 -32l-119 50l57 344h397v-127h-281l-22 -133q47 17 100 17z" />
    <glyph glyph-name="six.osf" horiz-adv-x="658" 
d="M340 474q124 -1 199.5 -68t75.5 -174q0 -111 -78.5 -179.5t-206.5 -68.5t-207 68t-79 178q0 73 61 164l195 285h178l-140 -205h2zM330 102q61 0 99 35t38 90t-38 89t-99 34t-99.5 -34.5t-38.5 -89.5t38.5 -89.5t99.5 -34.5z" />
    <glyph glyph-name="seven.osf" horiz-adv-x="547" 
d="M10 542h518v-84l-289 -598h-171l268 549h-326v133z" />
    <glyph glyph-name="eight.osf" horiz-adv-x="661" 
d="M330 -16q-129 0 -208 57.5t-79 151.5q0 58 32 103.5t90 72.5q-92 51 -92 148q0 87 70.5 140t186.5 53q115 0 186 -53.5t71 -140.5q0 -97 -92 -147q123 -56 123 -176q0 -94 -79 -151.5t-209 -57.5zM331 407q50 0 81.5 27.5t31.5 73.5q0 41 -31.5 67t-82.5 26
q-50 0 -81.5 -26t-31.5 -67q0 -46 31.5 -73.5t82.5 -27.5zM330 101q57 0 91.5 28t34.5 75q0 48 -34.5 77.5t-90.5 29.5q-57 0 -91.5 -29.5t-34.5 -77.5q0 -46 34.5 -74.5t90.5 -28.5z" />
    <glyph glyph-name="nine.osf" horiz-adv-x="658" 
d="M328 550q128 0 207 -68t79 -178q0 -72 -61 -164l-195 -285h-177l139 205h-2q-124 1 -199.5 68t-75.5 174q0 111 78.5 179.5t206.5 68.5zM328 184q61 0 99.5 34.5t38.5 89.5t-38.5 89.5t-99.5 34.5t-99 -35t-38 -90t38 -89t99 -34z" />
    <glyph glyph-name="zero.osf.zero" horiz-adv-x="592" 
d="M296 550q115 0 186 -65t71 -171v-92q0 -107 -71 -172t-186 -65q-116 0 -186.5 65t-70.5 172v92q0 106 70.5 171t186.5 65zM296 426q-53 0 -84.5 -31.5t-31.5 -83.5v-85l187 180q-29 20 -71 20zM412 224v87v10l-194 -186q31 -26 78 -26q52 0 84 31.5t32 83.5z" />
    <glyph glyph-name="zero.tf" 
d="M334 716q134 0 216.5 -77t82.5 -204v-170q0 -127 -82.5 -204t-216.5 -77q-135 0 -217 77t-82 204v170q0 127 82 204t217 77zM483 265v170q0 68 -41 110t-108 42t-108 -42t-41 -110v-170q0 -68 41 -110t108 -42t108 42t41 110z" />
    <glyph glyph-name="one.tf" 
d="M70 0v120h217v453h-174v127h327v-580h186v-120h-556z" />
    <glyph glyph-name="two.tf" 
d="M89 0v72l289 329q47 55 47 105q0 37 -26.5 59t-70.5 22q-46 0 -73.5 -25.5t-32.5 -68.5h-151q7 103 75.5 163t184.5 60q114 0 183.5 -56.5t69.5 -148.5q0 -84 -78 -174l-189 -217h274v-120h-502z" />
    <glyph glyph-name="three.tf" 
d="M400 404q93 -15 146.5 -70.5t53.5 -136.5q0 -96 -72 -154.5t-190 -58.5q-114 0 -188.5 55t-84.5 152h147q10 -38 42 -62.5t84 -24.5q53 0 85 25.5t32 67.5q0 45 -34.5 73t-91.5 28h-92v111l148 164h-295v127h481v-106z" />
    <glyph glyph-name="four.tf" 
d="M391 0v128h-368v94l282 478h235v-448h98v-124h-98v-128h-149zM189 252h202v339z" />
    <glyph glyph-name="five.tf" 
d="M347 441q107 0 178 -61.5t71 -157.5q0 -105 -76 -171.5t-196 -66.5q-115 0 -191 57t-89 153h149q11 -41 45 -65.5t88 -24.5q58 0 93 31t35 81q0 48 -36.5 77t-95.5 29q-62 0 -108 -34l-117 53l60 359h397v-127h-281l-25 -146q46 14 99 14z" />
    <glyph glyph-name="six.tf" 
d="M345 473q124 -3 199 -68.5t75 -171.5q0 -112 -78.5 -180.5t-206.5 -68.5t-206.5 68t-78.5 179q0 72 61 163l210 306h177l-155 -227h3zM334 102q61 0 99 35t38 91q0 55 -38 90t-99 35q-62 0 -100.5 -35t-38.5 -91t38.5 -90.5t100.5 -34.5z" />
    <glyph glyph-name="seven.tf" 
d="M77 700h518v-84l-296 -616h-171l275 567h-326v133z" />
    <glyph glyph-name="eight.tf" 
d="M334 -16q-130 0 -209 57.5t-79 151.5q0 59 32 105t90 73q-92 50 -92 152q0 87 71 140t187 53q115 0 186 -53.5t71 -140.5q0 -101 -91 -151q58 -27 89.5 -73t31.5 -105q0 -94 -79 -151.5t-208 -57.5zM334 411q51 0 82 28t31 74q0 42 -31 68t-82 26t-82 -26t-31 -68
q0 -46 31 -74t82 -28zM334 101q56 0 91 29t35 76q0 49 -35 78.5t-91 29.5q-57 0 -91.5 -29.5t-34.5 -78.5q0 -47 34.5 -76t91.5 -29z" />
    <glyph glyph-name="nine.tf" 
d="M334 716q128 0 206.5 -68t78.5 -179q0 -72 -61 -163l-210 -306h-178l156 227h-1q-121 0 -198.5 66t-77.5 174q0 112 78.5 180.5t206.5 68.5zM334 347q62 0 100.5 35t38.5 91q0 55 -38.5 90t-100.5 35q-61 0 -99 -35t-38 -91q0 -55 38 -90t99 -35z" />
    <glyph glyph-name="zero.tf.zero" 
d="M334 716q134 0 216.5 -77t82.5 -204v-170q0 -127 -82.5 -204t-216.5 -77q-135 0 -217 77t-82 204v170q0 127 82 204t217 77zM185 435v-170q0 -12 1 -18l231 318q-36 22 -83 22q-67 0 -108 -42t-41 -110zM483 265v170q0 11 -1 16l-230 -317q34 -21 82 -21q67 0 108 42
t41 110z" />
    <glyph glyph-name="zero.tosf" 
d="M334 -15q-116 0 -186.5 65t-70.5 172v92q0 106 70.5 171t186.5 65q115 0 186 -65t71 -171v-92q0 -107 -71 -172t-186 -65zM334 109q52 0 84 31.5t32 83.5v87q0 52 -32 83.5t-84 31.5q-53 0 -84.5 -31.5t-31.5 -83.5v-87q0 -52 32 -83.5t84 -31.5z" />
    <glyph glyph-name="one.tosf" 
d="M79 0v120h206v295h-174v127h327v-422h181v-120h-540z" />
    <glyph glyph-name="two.tosf" 
d="M91 0v76l229 147q106 62 106 119q0 35 -26.5 57t-69.5 22q-48 0 -76 -27.5t-32 -68.5h-147q6 105 77 165t180 60q115 0 182 -55.5t67 -145.5t-108 -166l-90 -62l211 -1v-120h-503z" />
    <glyph glyph-name="three.tosf" 
d="M407 252q89 -16 140.5 -68t51.5 -128q0 -94 -72 -152t-189 -58q-115 0 -188 54t-83 152h145q9 -38 40 -62t85 -24q53 0 85 25.5t32 65.5t-34.5 65t-90.5 25h-84v111h1l145 158h-292v127h480v-105z" />
    <glyph glyph-name="four.tosf" 
d="M635 113v-124h-96v-127h-148v127h-366v95l278 459h236v-430h96zM194 113h197v325z" />
    <glyph glyph-name="five.tosf" 
d="M360 300q105 0 176.5 -60.5t71.5 -158.5q0 -103 -75.5 -168t-194.5 -65q-117 0 -192.5 56t-90.5 154h149q10 -38 44.5 -64t89.5 -26q57 0 92 30t35 80q0 47 -36 75t-96 28t-105 -32l-119 50l57 344h397v-127h-282l-22 -133q47 17 101 17z" />
    <glyph glyph-name="six.tosf" 
d="M345 474q123 -2 199 -68.5t76 -173.5q0 -111 -79 -179.5t-206 -68.5q-128 0 -207.5 68t-79.5 178q0 73 61 164l196 285h177l-139 -205h2zM335 102q61 0 98.5 34.5t37.5 90.5q0 55 -37.5 89t-98.5 34q-62 0 -100.5 -34.5t-38.5 -89.5t38.5 -89.5t100.5 -34.5z" />
    <glyph glyph-name="seven.tosf" 
d="M69 542h518v-84l-289 -598h-170l267 549h-326v133z" />
    <glyph glyph-name="eight.tosf" 
d="M334 -16q-130 0 -209 57.5t-79 151.5q0 59 32.5 104t90.5 72q-93 50 -93 148q0 87 71 140t187 53q115 0 186 -53.5t71 -140.5q0 -96 -92 -147q122 -56 122 -176q0 -94 -79 -151.5t-208 -57.5zM334 407q51 0 82 27.5t31 73.5q0 41 -31 67t-82 26t-82 -26t-31 -67
q0 -46 31 -73.5t82 -27.5zM334 101q56 0 91 28.5t35 74.5q0 48 -35 77.5t-91 29.5q-57 0 -91.5 -29.5t-34.5 -77.5q0 -47 34.5 -75t91.5 -28z" />
    <glyph glyph-name="nine.tosf" 
d="M333 550q128 0 207.5 -68t79.5 -178q0 -74 -62 -164l-195 -285h-177l139 205h-2q-123 2 -199 68.5t-76 173.5q0 111 78.5 179.5t206.5 68.5zM333 184q62 0 100 34.5t38 89.5t-38.5 89.5t-99.5 34.5t-99 -35t-38 -90t38 -89t99 -34z" />
    <glyph glyph-name="zero.tosf.zero" 
d="M334 550q115 0 186 -65t71 -171v-92q0 -107 -71 -172t-186 -65q-116 0 -186.5 65t-70.5 172v92q0 106 70.5 171t186.5 65zM334 426q-53 0 -84.5 -31.5t-31.5 -83.5v-85l187 180q-29 20 -71 20zM450 224v87v10l-194 -186q31 -26 78 -26q52 0 84 31.5t32 83.5z" />
    <glyph glyph-name="zero.zero" horiz-adv-x="693" 
d="M347 716q134 0 216.5 -77t82.5 -204v-170q0 -127 -82.5 -204t-216.5 -77q-135 0 -217 77t-82 204v170q0 127 82 204t217 77zM197 435v-170q0 -13 1 -19l232 319q-36 22 -83 22q-67 0 -108.5 -42t-41.5 -110zM496 265v170q0 11 -1 16l-230 -317q34 -21 82 -21q67 0 108 42
t41 110z" />
    <glyph glyph-name="zero.dnom" horiz-adv-x="422" 
d="M211 417q83 0 134 -48.5t51 -128.5v-72q0 -80 -51 -128.5t-134 -48.5t-134 48.5t-51 128.5v72q0 80 51 128.5t134 48.5zM287 168v72q0 38 -21 61.5t-55 23.5t-55 -23.5t-21 -61.5v-72q0 -37 21 -60.5t55 -23.5t55 23.5t21 60.5z" />
    <glyph glyph-name="one.dnom" horiz-adv-x="263" 
d="M122 0v315h-104v89h209v-404h-105z" />
    <glyph glyph-name="two.dnom" horiz-adv-x="387" 
d="M38 1v51l156 163q46 44 46 69q0 18 -12.5 28.5t-34.5 10.5q-49 0 -56 -49h-101q4 63 48.5 102t112.5 39q70 0 113.5 -34t43.5 -89q0 -51 -63 -118l-81 -87h148v-86h-320z" />
    <glyph glyph-name="three.dnom" horiz-adv-x="404" 
d="M267 234q47 -14 73.5 -44t26.5 -71q0 -57 -45.5 -92.5t-120.5 -35.5q-70 0 -116 35.5t-54 93.5h107q10 -43 66 -43q26 0 42 12.5t16 32.5t-16.5 33t-46.5 13h-51v70l73 77h-166v89h304v-73z" />
    <glyph glyph-name="four.dnom" horiz-adv-x="438" 
d="M411 160v-89h-54v-71h-106v71h-223v70l190 263h139v-244h54zM144 160h107v145z" />
    <glyph glyph-name="five.dnom" horiz-adv-x="412" 
d="M218 263q69 0 111.5 -36.5t42.5 -95.5q0 -63 -46 -101.5t-122 -38.5q-74 0 -120.5 35.5t-50.5 90.5h105q6 -18 25 -29t42 -11q29 0 47 14.5t18 37.5t-17 37t-45 14q-37 0 -56 -20l-88 24l23 220h263v-89h-171l-7 -59q21 7 46 7z" />
    <glyph glyph-name="six.dnom" horiz-adv-x="409" 
d="M223 285q72 -5 115 -44t43 -101q0 -67 -48 -108t-127 -41t-128.5 41t-49.5 103q0 42 43 109l108 160h127zM205 75q32 0 51.5 17t19.5 45q0 29 -19.5 46t-51.5 17t-51.5 -17t-19.5 -45q0 -29 19.5 -46t51.5 -17z" />
    <glyph glyph-name="seven.dnom" horiz-adv-x="359" 
d="M48 0l155 309h-185v95h323v-61l-169 -343h-124z" />
    <glyph glyph-name="eight.dnom" horiz-adv-x="424" 
d="M212 -9q-81 0 -129.5 34t-48.5 91q0 63 66 97q-49 30 -49 82q0 53 44 85.5t117 32.5t117 -32.5t44 -85.5q0 -52 -49 -82q66 -34 66 -97q0 -57 -48.5 -91t-129.5 -34zM212 242q25 0 41 13t16 34q0 20 -16 33t-41 13t-41 -13t-16 -33q0 -21 16 -34t41 -13zM212 74
q28 0 45 14t17 36t-17 35t-45 13t-45 -13t-17 -35t17 -36t45 -14z" />
    <glyph glyph-name="nine.dnom" horiz-adv-x="409" 
d="M203 414q79 0 128.5 -41t49.5 -104q0 -45 -43 -108l-108 -161h-127l83 120q-71 4 -114.5 43.5t-43.5 100.5q0 68 48 109t127 41zM204 205q32 0 51.5 17t19.5 45q0 29 -19.5 46t-51.5 17t-51.5 -17t-19.5 -45t19.5 -45.5t51.5 -17.5z" />
    <glyph glyph-name="zero.numr" horiz-adv-x="422" 
d="M211 712q83 0 134 -48.5t51 -128.5v-72q0 -80 -51 -128.5t-134 -48.5t-134 48.5t-51 128.5v72q0 80 51 128.5t134 48.5zM287 463v72q0 38 -21 61.5t-55 23.5t-55 -23.5t-21 -61.5v-72q0 -37 21 -60.5t55 -23.5t55 23.5t21 60.5z" />
    <glyph glyph-name="one.numr" horiz-adv-x="263" 
d="M122 300v315h-104v89h209v-404h-105z" />
    <glyph glyph-name="two.numr" horiz-adv-x="387" 
d="M38 300v51l156 163q46 44 46 69q0 18 -12.5 28.5t-34.5 10.5q-49 0 -56 -49h-101q4 63 48.5 102t112.5 39q70 0 113.5 -34t43.5 -89q0 -51 -63 -118l-81 -87h148v-86h-320z" />
    <glyph glyph-name="three.numr" horiz-adv-x="404" 
d="M267 534q47 -14 73.5 -44t26.5 -71q0 -57 -45.5 -92.5t-120.5 -35.5q-70 0 -116 35t-54 94h107q4 -18 21 -31t45 -13q26 0 42 13t16 33t-16.5 33t-46.5 13h-51v70l73 77h-166v89h304v-73z" />
    <glyph glyph-name="four.numr" horiz-adv-x="438" 
d="M411 460v-89h-54v-71h-106v71h-223v70l190 263h139v-244h54zM144 460h107v145z" />
    <glyph glyph-name="five.numr" horiz-adv-x="412" 
d="M218 563q69 0 111.5 -36.5t42.5 -95.5q0 -64 -46 -102t-122 -38q-74 0 -120.5 35t-50.5 90h105q6 -18 24.5 -28.5t42.5 -10.5q29 0 47 14.5t18 37.5t-17 37t-45 14q-36 0 -56 -20l-88 24l23 220h263v-89h-171l-7 -59q21 7 46 7z" />
    <glyph glyph-name="six.numr" horiz-adv-x="409" 
d="M223 584q72 -3 115 -42.5t43 -101.5q0 -67 -48 -108t-127 -41t-128.5 40.5t-49.5 103.5q0 42 43 109l108 160h127zM205 375q32 0 51.5 17t19.5 44q0 29 -19.5 46.5t-51.5 17.5t-51.5 -17.5t-19.5 -44.5q0 -29 19.5 -46t51.5 -17z" />
    <glyph glyph-name="seven.numr" horiz-adv-x="359" 
d="M48 300l155 309h-185v95h323v-61l-169 -343h-124z" />
    <glyph glyph-name="eight.numr" horiz-adv-x="424" 
d="M212 291q-81 0 -129.5 34t-48.5 91q0 63 66 97q-49 30 -49 82q0 53 44 85.5t117 32.5t117 -32.5t44 -85.5q0 -52 -49 -82q66 -34 66 -97q0 -57 -48.5 -91t-129.5 -34zM212 542q25 0 41 13t16 34q0 20 -16 33t-41 13t-41 -13t-16 -33q0 -21 16 -34t41 -13zM212 374
q28 0 45 13.5t17 36.5q0 21 -17 34.5t-45 13.5t-45 -13.5t-17 -34.5q0 -23 17 -36.5t45 -13.5z" />
    <glyph glyph-name="nine.numr" horiz-adv-x="409" 
d="M203 712q79 0 128.5 -40.5t49.5 -103.5q0 -42 -43 -109l-108 -160h-127l83 120q-71 3 -114.5 42.5t-43.5 101.5q0 67 48 108t127 41zM204 503q32 0 51.5 17t19.5 45q0 29 -19.5 46t-51.5 17q-31 0 -51 -17t-20 -44q0 -29 19.5 -46.5t51.5 -17.5z" />
    <glyph glyph-name="exclamdown.case" horiz-adv-x="293" 
d="M63 551v157h167v-157h-167zM69 8v192l11 281h133l12 -281v-192h-156z" />
    <glyph glyph-name="questiondown.case" horiz-adv-x="575" 
d="M400 543h-167v157h167v-157zM378 472q2 -52 -17 -87.5t-47.5 -54t-58 -34t-50 -39t-20.5 -56.5q0 -44 29.5 -70.5t78.5 -26.5q45 0 74.5 23.5t34.5 61.5h148q-8 -94 -78 -149.5t-176 -55.5q-113 0 -182.5 59t-69.5 154q0 52 22 90.5t53.5 60.5t63 40t52.5 38.5t20 45.5
h123z" />
    <glyph glyph-name="braceleft.case" horiz-adv-x="381" 
d="M350 -58q-112 3 -173 53.5t-61 135.5v91q0 35 -14 48t-56 16l-18 2v111l18 1q42 4 56 17t14 48v90q0 85 61 135.5t173 53.5v-132q-84 -5 -84 -65v-93q0 -49 -17.5 -73t-62.5 -38q45 -13 62.5 -37t17.5 -74v-93q0 -60 84 -65v-132z" />
    <glyph glyph-name="braceright.case" horiz-adv-x="381" 
d="M32 -58l-1 132q84 5 84 65v93q0 50 17.5 74t62.5 37q-45 14 -62.5 38t-17.5 73v93q0 60 -84 65l1 132q112 -3 172.5 -53.5t60.5 -135.5v-90q0 -35 14 -48t56 -17l19 -1v-111l-19 -2q-42 -3 -56 -16t-14 -48v-91q0 -85 -60.5 -135.5t-172.5 -53.5z" />
    <glyph glyph-name="bracketleft.case" horiz-adv-x="398" 
d="M66 -48v778h301v-133h-152v-511h152v-134h-301z" />
    <glyph glyph-name="bracketright.case" horiz-adv-x="398" 
d="M31 -48v134h153v511h-153v133h301v-778h-301z" />
    <glyph glyph-name="parenleft.case" horiz-adv-x="382" 
d="M256 -45q-109 92 -158.5 182.5t-49.5 206.5t49.5 207t158.5 182l102 -91q-82 -80 -115.5 -145t-33.5 -153t33.5 -153t115.5 -145z" />
    <glyph glyph-name="parenright.case" horiz-adv-x="382" 
d="M126 -45l-102 91q82 80 115.5 145t33.5 153t-33.5 153t-115.5 145l102 91q109 -91 158.5 -182t49.5 -207t-49.5 -206.5t-158.5 -182.5z" />
    <glyph glyph-name="emdash.case" horiz-adv-x="1093" 
d="M94 262v137h905v-137h-905z" />
    <glyph glyph-name="endash.case" horiz-adv-x="715" 
d="M94 262v137h527v-137h-527z" />
    <glyph glyph-name="hyphen.case" horiz-adv-x="563" 
d="M94 261v137h376v-137h-376z" />
    <glyph glyph-name="guillemotleft.case" horiz-adv-x="491" 
d="M259 489l-103 -158l103 -158h-135l-98 148v20l98 148h135zM465 489l-103 -158l103 -158h-135l-97 148v20l97 148h135z" />
    <glyph glyph-name="guillemotright.case" horiz-adv-x="491" 
d="M26 489h135l98 -148v-20l-98 -148h-135l103 158zM233 489h134l98 -148v-20l-98 -148h-134l102 158z" />
    <glyph glyph-name="guilsinglleft.case" horiz-adv-x="285" 
d="M259 489l-103 -158l103 -158h-135l-98 148v20l98 148h135z" />
    <glyph glyph-name="guilsinglright.case" horiz-adv-x="285" 
d="M26 489h135l98 -148v-20l-98 -148h-135l103 158z" />
    <glyph glyph-name="cent.osf" horiz-adv-x="608" 
d="M314 105q47 0 76 22.5t37 57.5h142q-9 -76 -59.5 -127.5t-130.5 -67.5v-106h-124v105q-99 16 -157.5 83.5t-58.5 169.5t58.5 170t157.5 84v115h124v-116q79 -16 130 -67.5t60 -127.5h-142q-8 35 -37 57.5t-76 22.5q-59 0 -95 -38t-36 -100t36 -99.5t95 -37.5z" />
    <glyph glyph-name="dollar.osf" horiz-adv-x="705" 
d="M241 509q0 -37 30.5 -58.5t76.5 -29t99 -20t99 -30t76.5 -60.5t30.5 -109q0 -85 -61 -142t-164 -71v-106h-124v105q-113 14 -183.5 76t-80.5 159h157q10 -49 53.5 -80.5t114.5 -31.5q55 0 88.5 21.5t33.5 56.5q0 31 -23 50t-59.5 28t-80.5 16t-88.5 20t-81 33.5t-59.5 62
t-23 100.5q0 88 63 146t169 69v105h124v-110q95 -18 156.5 -74.5t68.5 -138.5h-158q-9 43 -42.5 69.5t-92.5 26.5q-53 0 -86 -22.5t-33 -60.5z" />
    <glyph glyph-name="Euro.osf" horiz-adv-x="901" 
d="M495 124q76 0 127 40t70 110h162q-21 -133 -119 -211t-241 -78q-138 0 -234.5 68t-129.5 185h-94v82h80q-1 10 -1 31q0 20 1 30h-80v81h93q33 118 129.5 186t235.5 68q143 0 241 -78t119 -211h-162q-19 70 -69.5 110t-127.5 40q-68 0 -119 -30.5t-77 -84.5h261l-17 -81
h-266q-2 -20 -2 -30q0 -11 2 -31h252l-18 -82h-212q27 -54 77.5 -84t118.5 -30z" />
    <glyph glyph-name="florin.osf" horiz-adv-x="610" 
d="M481 587q-39 0 -63.5 -22.5t-31.5 -63.5l-18 -120h169v-114h-185l-26 -173q-15 -105 -71.5 -159.5t-147.5 -54.5q-63 0 -128 17l21 121q68 -9 80 -9q39 0 63 23t30 63l25 172h-130v114h147l18 121q15 105 71.5 159.5t147.5 54.5q62 0 128 -18l-21 -123q-51 12 -78 12z
" />
    <glyph glyph-name="sterling.osf" horiz-adv-x="662" 
d="M39 0v123h63v149h-63v113h63v91q0 109 74.5 174.5t191.5 65.5q111 0 185 -57.5t78 -154.5h-149q-26 89 -115 89q-51 0 -83.5 -32t-32.5 -85v-91h205v-113h-205v-149h367v-123h-579z" />
    <glyph glyph-name="yen.osf" horiz-adv-x="748" 
d="M740 700l-235 -394h138v-94h-190v-47h190v-94h-190v-71h-158v71h-190v94h190v47h-190v94h138l-235 394h174l191 -326l193 326h174z" />
    <glyph glyph-name="cent.tf" 
d="M285 -116v105q-99 16 -157.5 83.5t-58.5 169.5t58.5 170t157.5 84v115h124v-116q79 -16 130 -67.5t60 -127.5h-142q-8 35 -37 57.5t-76 22.5q-59 0 -95 -38t-36 -100t36 -99.5t95 -37.5q47 0 76 22.5t37 57.5h142q-9 -76 -60 -128t-130 -67v-106h-124z" />
    <glyph glyph-name="dollar.tf" 
d="M226 509q0 -37 30.5 -58.5t76.5 -29t99 -20t99 -30t76.5 -60.5t30.5 -109q0 -85 -61 -142t-164 -71v-106h-124v105q-113 14 -183.5 76t-80.5 159h156q10 -49 54 -80.5t115 -31.5q55 0 88.5 21.5t33.5 56.5q0 31 -23 50t-59.5 28t-81 16t-88.5 20t-80.5 33.5t-59.5 62
t-23 100.5q0 88 63 146t169 69v105h124v-110q95 -18 156.5 -74.5t68.5 -138.5h-158q-9 43 -42.5 69.5t-92.5 26.5q-53 0 -86 -22.5t-33 -60.5z" />
    <glyph glyph-name="Euro.tf" 
d="M384 113q75 0 108 47h169q-65 -176 -277 -176q-118 0 -201.5 68.5t-111.5 185.5h-57v82h45q-1 10 -1 30q0 21 1 31h-45v81h57q28 117 111.5 185.5t201.5 68.5q212 0 277 -176h-169q-33 47 -108 47q-54 0 -95.5 -33.5t-61.5 -91.5h259l-18 -81h-258q-1 -10 -1 -31
q0 -20 1 -30h244l-17 -82h-210q20 -58 61.5 -91.5t95.5 -33.5z" />
    <glyph glyph-name="florin.tf" 
d="M535 587q-39 0 -63.5 -22.5t-31.5 -63.5l-18 -120h169v-114h-185l-26 -173q-15 -105 -71.5 -159.5t-147.5 -54.5q-63 0 -128 17l21 121q68 -9 80 -9q39 0 63 23t30 63l25 172h-130v114h147l18 121q15 105 71.5 159.5t147.5 54.5q62 0 128 -18l-21 -123q-51 12 -78 12z
" />
    <glyph glyph-name="sterling.tf" 
d="M38 0v123h64v149h-64v113h64v91q0 109 74.5 174.5t191.5 65.5q110 0 184 -57.5t79 -154.5h-149q-26 89 -115 89q-52 0 -84 -32t-32 -85v-91h205v-113h-205v-149h367v-123h-580z" />
    <glyph glyph-name="yen.tf" 
d="M664 700l-206 -394h145v-94h-190v-47h190v-94h-190v-71h-158v71h-191v94h191v47h-191v94h145l-206 394h174l156 -326l157 326h174z" />
    <glyph glyph-name="cent.tosf" 
d="M285 -116v105q-99 16 -157.5 83.5t-58.5 169.5t58.5 170t157.5 84v115h124v-116q79 -16 130 -67.5t60 -127.5h-142q-8 35 -37 57.5t-76 22.5q-59 0 -95 -38t-36 -100t36 -99.5t95 -37.5q47 0 76 22.5t37 57.5h142q-9 -76 -60 -128t-130 -67v-106h-124z" />
    <glyph glyph-name="dollar.tosf" 
d="M226 509q0 -37 30.5 -58.5t76.5 -29t99 -20t99 -30t76.5 -60.5t30.5 -109q0 -85 -61 -142t-164 -71v-106h-124v105q-113 14 -183.5 76t-80.5 159h156q10 -49 54 -80.5t115 -31.5q55 0 88.5 21.5t33.5 56.5q0 31 -23 50t-59.5 28t-81 16t-88.5 20t-80.5 33.5t-59.5 62
t-23 100.5q0 88 63 146t169 69v105h124v-110q95 -18 156.5 -74.5t68.5 -138.5h-158q-9 43 -42.5 69.5t-92.5 26.5q-53 0 -86 -22.5t-33 -60.5z" />
    <glyph glyph-name="Euro.tosf" 
d="M384 113q75 0 108 47h169q-65 -176 -277 -176q-118 0 -201.5 68.5t-111.5 185.5h-57v82h45q-1 10 -1 30q0 21 1 31h-45v81h57q28 117 111.5 185.5t201.5 68.5q212 0 277 -176h-169q-33 47 -108 47q-54 0 -95.5 -33.5t-61.5 -91.5h259l-18 -81h-258q-1 -10 -1 -31
q0 -20 1 -30h244l-17 -82h-210q20 -58 61.5 -91.5t95.5 -33.5z" />
    <glyph glyph-name="florin.tosf" 
d="M535 587q-39 0 -63.5 -22.5t-31.5 -63.5l-18 -120h169v-114h-185l-26 -173q-15 -105 -71.5 -159.5t-147.5 -54.5q-63 0 -128 17l21 121q68 -9 80 -9q39 0 63 23t30 63l25 172h-130v114h147l18 121q15 105 71.5 159.5t147.5 54.5q62 0 128 -18l-21 -123q-51 12 -78 12z
" />
    <glyph glyph-name="sterling.tosf" 
d="M38 0v123h64v149h-64v113h64v91q0 109 74.5 174.5t191.5 65.5q110 0 184 -57.5t79 -154.5h-149q-26 89 -115 89q-52 0 -84 -32t-32 -85v-91h205v-113h-205v-149h367v-123h-580z" />
    <glyph glyph-name="yen.tosf" 
d="M664 700l-206 -394h145v-94h-190v-47h190v-94h-190v-71h-158v71h-191v94h191v47h-191v94h145l-206 394h174l156 -326l157 326h174z" />
    <glyph glyph-name="at.case" horiz-adv-x="1044" 
d="M526 -93q-199 0 -333 122t-134 305q0 182 135.5 304t337.5 122q204 0 329 -111t125 -293q0 -105 -52 -169.5t-136 -64.5q-48 0 -89 20.5t-60 54.5q-24 -34 -67.5 -54t-90.5 -20q-94 0 -153 58.5t-59 150.5q0 93 59 151.5t153 58.5q36 0 71 -13.5t55 -33.5h2v34h126v-239
q0 -76 58 -76q37 0 59.5 38.5t22.5 102.5q0 141 -97 228t-256 87q-158 0 -264 -96.5t-106 -239.5q0 -144 104 -240.5t259 -96.5q121 0 234 75l52 -81q-130 -84 -285 -84zM516 226q46 0 73.5 29.5t27.5 76.5q0 48 -27.5 77.5t-73.5 29.5q-48 0 -78 -30t-30 -77t30 -76.5
t78 -29.5z" />
    <glyph glyph-name="caron.alt" horiz-adv-x="246" 
d="M50 522l6 201h140l-40 -201h-106z" />
    <glyph glyph-name="acute.cap" horiz-adv-x="342" 
d="M53 767l-3 4l83 155h159l-108 -159h-131z" />
    <glyph glyph-name="breve.cap" horiz-adv-x="450" 
d="M296 929h104q-4 -72 -49.5 -117t-125.5 -45t-125.5 45t-49.5 117h104q9 -70 71 -70t71 70z" />
    <glyph glyph-name="caron.cap" horiz-adv-x="489" 
d="M175 764l-125 156h131l64 -72l63 72h131l-125 -156h-139z" />
    <glyph glyph-name="circumflex.cap" horiz-adv-x="489" 
d="M50 764l125 156h139l125 -156h-131l-63 72l-64 -72h-131z" />
    <glyph glyph-name="dieresis.cap" horiz-adv-x="492" 
d="M50 773v153h164v-153h-164zM277 773v153h165v-153h-165z" />
    <glyph glyph-name="dotaccent.cap" horiz-adv-x="264" 
d="M50 926h164v-153h-164v153z" />
    <glyph glyph-name="grave.cap" horiz-adv-x="342" 
d="M289 767h-131l-108 159h159l83 -155z" />
    <glyph glyph-name="hungarumlaut.cap" horiz-adv-x="464" 
d="M52 771l-2 4l61 155h138l-83 -159h-114zM218 771l-3 4l62 155h137l-82 -159h-114z" />
    <glyph glyph-name="macron.cap" horiz-adv-x="402" 
d="M50 774v110h302v-110h-302z" />
    <glyph glyph-name="ring.cap" horiz-adv-x="350" 
d="M176 774q-56 0 -91 30.5t-35 80.5t35 80.5t91 30.5t90 -30.5t34 -80.5t-34.5 -80.5t-89.5 -30.5zM175 839q22 0 35.5 13t13.5 33q0 21 -13.5 33.5t-35.5 12.5q-21 0 -35 -12.5t-14 -33.5q0 -20 14 -33t35 -13z" />
    <glyph glyph-name="tilde.cap" horiz-adv-x="493" 
d="M319 766q-38 0 -79.5 23.5t-51.5 23.5q-22 0 -29 -32h-109q3 62 35.5 100t90.5 38q40 0 81 -23.5t51 -23.5q21 0 27 33h108q2 -60 -32.5 -99.5t-91.5 -39.5z" />
    <glyph glyph-name="IJacute" horiz-adv-x="936" 
d="M74 769l-3 4l83 155h159l-108 -159h-131zM567 769l-3 4l83 155h159l-108 -159h-131zM66 0v700h157v-700h-157zM587 -16q-120 0 -195.5 64.5t-85.5 181.5h155q18 -111 134 -111q56 0 91 39t35 103v306h-312v133h471v-437q0 -133 -77 -206t-216 -73z" />
    <glyph glyph-name="ijacute" horiz-adv-x="555" 
d="M67 565l-3 4l83 155h159l-108 -159h-131zM345 565l-3 4l83 155h159l-108 -159h-131zM63 0v485h150v-485h-150zM246 -249v121l12 2q46 6 65.5 24t19.5 64v523h150v-506q0 -118 -53.5 -173t-167.5 -55h-26z" />
    <glyph glyph-name="ijacute.ss07" horiz-adv-x="555" 
d="M67 565l-3 4l83 155h159l-108 -159h-131zM344 565l-2 4l83 155h159l-108 -159h-132zM63 0v485h150v-485h-150zM343 -232v717h150v-717h-150z" />
    </font>
</defs>
</svg>
